%TF.GenerationSoftware,KiCad,Pcbnew,8.0.5*%
%TF.CreationDate,2024-11-09T17:21:21+03:00*%
%TF.ProjectId,BLR8812AF1 baseboard,424c5238-3831-4324-9146-312062617365,rev?*%
%TF.SameCoordinates,Original*%
%TF.FileFunction,Copper,L1,Top*%
%TF.FilePolarity,Positive*%
%FSLAX46Y46*%
G04 Gerber Fmt 4.6, Leading zero omitted, Abs format (unit mm)*
G04 Created by KiCad (PCBNEW 8.0.5) date 2024-11-09 17:21:21*
%MOMM*%
%LPD*%
G01*
G04 APERTURE LIST*
G04 Aperture macros list*
%AMRoundRect*
0 Rectangle with rounded corners*
0 $1 Rounding radius*
0 $2 $3 $4 $5 $6 $7 $8 $9 X,Y pos of 4 corners*
0 Add a 4 corners polygon primitive as box body*
4,1,4,$2,$3,$4,$5,$6,$7,$8,$9,$2,$3,0*
0 Add four circle primitives for the rounded corners*
1,1,$1+$1,$2,$3*
1,1,$1+$1,$4,$5*
1,1,$1+$1,$6,$7*
1,1,$1+$1,$8,$9*
0 Add four rect primitives between the rounded corners*
20,1,$1+$1,$2,$3,$4,$5,0*
20,1,$1+$1,$4,$5,$6,$7,0*
20,1,$1+$1,$6,$7,$8,$9,0*
20,1,$1+$1,$8,$9,$2,$3,0*%
G04 Aperture macros list end*
%TA.AperFunction,SMDPad,CuDef*%
%ADD10R,0.600000X1.450000*%
%TD*%
%TA.AperFunction,SMDPad,CuDef*%
%ADD11R,0.300000X1.450000*%
%TD*%
%TA.AperFunction,ComponentPad*%
%ADD12O,1.000000X2.100000*%
%TD*%
%TA.AperFunction,ComponentPad*%
%ADD13O,1.000000X1.600000*%
%TD*%
%TA.AperFunction,SMDPad,CuDef*%
%ADD14RoundRect,0.250000X-1.000000X-0.250000X1.000000X-0.250000X1.000000X0.250000X-1.000000X0.250000X0*%
%TD*%
%TA.AperFunction,SMDPad,CuDef*%
%ADD15RoundRect,0.125000X-0.187500X-0.125000X0.187500X-0.125000X0.187500X0.125000X-0.187500X0.125000X0*%
%TD*%
%TA.AperFunction,HeatsinkPad*%
%ADD16R,1.100000X1.900000*%
%TD*%
%TA.AperFunction,SMDPad,CuDef*%
%ADD17RoundRect,0.250000X-0.650000X0.325000X-0.650000X-0.325000X0.650000X-0.325000X0.650000X0.325000X0*%
%TD*%
%TA.AperFunction,ComponentPad*%
%ADD18C,1.000000*%
%TD*%
%TA.AperFunction,SMDPad,CuDef*%
%ADD19RoundRect,0.140000X-0.140000X-0.170000X0.140000X-0.170000X0.140000X0.170000X-0.140000X0.170000X0*%
%TD*%
%TA.AperFunction,SMDPad,CuDef*%
%ADD20RoundRect,0.135000X-0.185000X0.135000X-0.185000X-0.135000X0.185000X-0.135000X0.185000X0.135000X0*%
%TD*%
%TA.AperFunction,SMDPad,CuDef*%
%ADD21RoundRect,0.218750X-0.256250X0.218750X-0.256250X-0.218750X0.256250X-0.218750X0.256250X0.218750X0*%
%TD*%
%TA.AperFunction,SMDPad,CuDef*%
%ADD22RoundRect,0.250000X0.325000X0.650000X-0.325000X0.650000X-0.325000X-0.650000X0.325000X-0.650000X0*%
%TD*%
%TA.AperFunction,SMDPad,CuDef*%
%ADD23RoundRect,0.135000X-0.135000X-0.185000X0.135000X-0.185000X0.135000X0.185000X-0.135000X0.185000X0*%
%TD*%
%TA.AperFunction,SMDPad,CuDef*%
%ADD24RoundRect,0.250000X-0.400000X-1.450000X0.400000X-1.450000X0.400000X1.450000X-0.400000X1.450000X0*%
%TD*%
%TA.AperFunction,SMDPad,CuDef*%
%ADD25RoundRect,0.135000X0.185000X-0.135000X0.185000X0.135000X-0.185000X0.135000X-0.185000X-0.135000X0*%
%TD*%
%TA.AperFunction,ComponentPad*%
%ADD26C,1.700000*%
%TD*%
%TA.AperFunction,SMDPad,CuDef*%
%ADD27RoundRect,0.150000X-0.150000X0.587500X-0.150000X-0.587500X0.150000X-0.587500X0.150000X0.587500X0*%
%TD*%
%TA.AperFunction,SMDPad,CuDef*%
%ADD28RoundRect,0.218750X0.256250X-0.218750X0.256250X0.218750X-0.256250X0.218750X-0.256250X-0.218750X0*%
%TD*%
%TA.AperFunction,SMDPad,CuDef*%
%ADD29RoundRect,0.135000X0.135000X0.185000X-0.135000X0.185000X-0.135000X-0.185000X0.135000X-0.185000X0*%
%TD*%
%TA.AperFunction,SMDPad,CuDef*%
%ADD30RoundRect,0.150000X-0.150000X0.512500X-0.150000X-0.512500X0.150000X-0.512500X0.150000X0.512500X0*%
%TD*%
%TA.AperFunction,ViaPad*%
%ADD31C,0.600000*%
%TD*%
%TA.AperFunction,Conductor*%
%ADD32C,0.300000*%
%TD*%
%TA.AperFunction,Conductor*%
%ADD33C,0.500000*%
%TD*%
%TA.AperFunction,Conductor*%
%ADD34C,0.600000*%
%TD*%
%TA.AperFunction,Conductor*%
%ADD35C,0.200000*%
%TD*%
%TA.AperFunction,Conductor*%
%ADD36C,1.300000*%
%TD*%
G04 APERTURE END LIST*
D10*
%TO.P,X1,A1B12,GND*%
%TO.N,GND*%
X65421000Y-32776000D03*
%TO.P,X1,A4B9,VBUS*%
%TO.N,+VBUS*%
X64646000Y-32776000D03*
D11*
%TO.P,X1,A5,CC1*%
%TO.N,unconnected-(X1-CC1-PadA5)*%
X63446000Y-32776000D03*
%TO.P,X1,A6,DP1*%
%TO.N,/DP*%
X62446000Y-32776000D03*
%TO.P,X1,A7,DN1*%
%TO.N,/DN*%
X61946000Y-32776000D03*
%TO.P,X1,A8,SBU1*%
%TO.N,unconnected-(X1-SBU1-PadA8)*%
X60946000Y-32776000D03*
D10*
%TO.P,X1,B1A12,GND*%
%TO.N,GND*%
X58971000Y-32776000D03*
%TO.P,X1,B4A9,VBUS*%
%TO.N,+VBUS*%
X59746000Y-32776000D03*
D11*
%TO.P,X1,B5,CC2*%
%TO.N,unconnected-(X1-CC2-PadB5)*%
X60446000Y-32776000D03*
%TO.P,X1,B6,DP2*%
%TO.N,/DP*%
X61446000Y-32776000D03*
%TO.P,X1,B7,DN2*%
%TO.N,/DN*%
X62946000Y-32776000D03*
%TO.P,X1,B8,SBU2*%
%TO.N,unconnected-(X1-SBU2-PadB8)*%
X63946000Y-32776000D03*
D12*
%TO.P,X1,SHIELD,SHIELD*%
%TO.N,GND*%
X66516000Y-31861000D03*
D13*
X66516000Y-27681000D03*
D12*
X57876000Y-31861000D03*
D13*
X57876000Y-27681000D03*
%TD*%
D14*
%TO.P,U1,1,PDN*%
%TO.N,unconnected-(U1-PDN-Pad1)*%
X56146000Y-56916000D03*
%TO.P,U1,2,VDD*%
%TO.N,+3.3V*%
X56146000Y-54916000D03*
%TO.P,U1,3,DN*%
%TO.N,/D2_N*%
X56146000Y-52916000D03*
%TO.P,U1,4,DP*%
%TO.N,/D2_P*%
X56146000Y-50916000D03*
%TO.P,U1,5,GND*%
%TO.N,GND*%
X56146000Y-48916000D03*
%TO.P,U1,6,LED*%
%TO.N,Net-(D1-K)*%
X56146000Y-46916000D03*
%TO.P,U1,7,GND*%
%TO.N,GND*%
X83146000Y-46266000D03*
%TO.P,U1,8,NC*%
%TO.N,unconnected-(U1-NC-Pad8)*%
X83146000Y-47766000D03*
%TO.P,U1,9,GND*%
%TO.N,GND*%
X83146000Y-49266000D03*
%TO.P,U1,10,GND*%
X83146000Y-54566000D03*
%TO.P,U1,11,NC*%
%TO.N,unconnected-(U1-NC-Pad11)*%
X83146000Y-56066000D03*
%TO.P,U1,12,GND*%
%TO.N,GND*%
X83146000Y-57566000D03*
%TD*%
D15*
%TO.P,U3,1,EN*%
%TO.N,/Vin*%
X75871000Y-30466000D03*
%TO.P,U3,2,VIN*%
X75871000Y-31116000D03*
%TO.P,U3,3,GND*%
%TO.N,GND*%
X75871000Y-31766000D03*
%TO.P,U3,4,VOUT*%
%TO.N,+3.3V*%
X75871000Y-32416000D03*
%TO.P,U3,5,VOUT*%
X77996000Y-32416000D03*
%TO.P,U3,6,FB*%
%TO.N,Net-(U3-FB)*%
X77996000Y-31766000D03*
%TO.P,U3,7,PG*%
%TO.N,unconnected-(U3-PG-Pad7)*%
X77996000Y-31116000D03*
%TO.P,U3,8,SS/TR*%
%TO.N,Net-(U3-SS{slash}TR)*%
X77996000Y-30466000D03*
D16*
%TO.P,U3,9,GND*%
%TO.N,GND*%
X76933500Y-31441000D03*
%TD*%
D17*
%TO.P,C1,1*%
%TO.N,+3.3V*%
X53287600Y-54913800D03*
%TO.P,C1,2*%
%TO.N,GND*%
X53287600Y-57863800D03*
%TD*%
D18*
%TO.P,X3,1,Pin_1*%
%TO.N,/DN*%
X53426000Y-34011400D03*
%TD*%
D19*
%TO.P,C5,1*%
%TO.N,Net-(U3-SS{slash}TR)*%
X79703500Y-30466000D03*
%TO.P,C5,2*%
%TO.N,GND*%
X80663500Y-30466000D03*
%TD*%
D20*
%TO.P,R1,1*%
%TO.N,/D1_P*%
X53516200Y-44448800D03*
%TO.P,R1,2*%
%TO.N,/D2_P*%
X53516200Y-45468800D03*
%TD*%
%TO.P,R2,1*%
%TO.N,/D1_N*%
X52456200Y-44448800D03*
%TO.P,R2,2*%
%TO.N,/D2_N*%
X52456200Y-45468800D03*
%TD*%
D21*
%TO.P,D2,1,K*%
%TO.N,GND*%
X86946000Y-34281000D03*
%TO.P,D2,2,A*%
%TO.N,Net-(D2-A)*%
X86946000Y-35856000D03*
%TD*%
D17*
%TO.P,C3,1*%
%TO.N,/Vin*%
X73671000Y-30466000D03*
%TO.P,C3,2*%
%TO.N,GND*%
X73671000Y-33416000D03*
%TD*%
D22*
%TO.P,C4,1*%
%TO.N,+3.3V*%
X78996000Y-35116000D03*
%TO.P,C4,2*%
%TO.N,GND*%
X76046000Y-35116000D03*
%TD*%
D23*
%TO.P,R4,1*%
%TO.N,Net-(U3-FB)*%
X79693500Y-33041000D03*
%TO.P,R4,2*%
%TO.N,+3.3V*%
X80713500Y-33041000D03*
%TD*%
D20*
%TO.P,R3,1*%
%TO.N,Net-(D1-A)*%
X85046000Y-40178500D03*
%TO.P,R3,2*%
%TO.N,+3.3V*%
X85046000Y-41198500D03*
%TD*%
D24*
%TO.P,F1,1*%
%TO.N,+VBUS*%
X64646000Y-37016000D03*
%TO.P,F1,2*%
%TO.N,Net-(Q1-S)*%
X69096000Y-37016000D03*
%TD*%
D25*
%TO.P,R6,1*%
%TO.N,GND*%
X75690400Y-38496000D03*
%TO.P,R6,2*%
%TO.N,Net-(Q1-G)*%
X75690400Y-37476000D03*
%TD*%
D17*
%TO.P,C2,1*%
%TO.N,/Vin*%
X71096000Y-30466000D03*
%TO.P,C2,2*%
%TO.N,GND*%
X71096000Y-33416000D03*
%TD*%
D18*
%TO.P,X2,1,Pin_1*%
%TO.N,/DP*%
X55326000Y-34011400D03*
%TD*%
D26*
%TO.P,X4,1,Pin_1*%
%TO.N,+VBUS*%
X64646000Y-40766000D03*
%TD*%
D27*
%TO.P,Q1,1,G*%
%TO.N,Net-(Q1-G)*%
X73206000Y-36058500D03*
%TO.P,Q1,2,S*%
%TO.N,Net-(Q1-S)*%
X71306000Y-36058500D03*
%TO.P,Q1,3,D*%
%TO.N,/Vin*%
X72256000Y-37933500D03*
%TD*%
D28*
%TO.P,D1,1,K*%
%TO.N,Net-(D1-K)*%
X86946000Y-41753500D03*
%TO.P,D1,2,A*%
%TO.N,Net-(D1-A)*%
X86946000Y-40178500D03*
%TD*%
D29*
%TO.P,R7,1*%
%TO.N,GND*%
X80713500Y-31766000D03*
%TO.P,R7,2*%
%TO.N,Net-(U3-FB)*%
X79693500Y-31766000D03*
%TD*%
D18*
%TO.P,X5,1,Pin_1*%
%TO.N,GND*%
X57226000Y-34011400D03*
%TD*%
D26*
%TO.P,X6,1,Pin_1*%
%TO.N,GND*%
X72046000Y-40766000D03*
%TD*%
D30*
%TO.P,U2,1,I/O1*%
%TO.N,/DP*%
X55329800Y-35941800D03*
%TO.P,U2,2,GND*%
%TO.N,GND*%
X54379800Y-35941800D03*
%TO.P,U2,3,I/O2*%
%TO.N,/DN*%
X53429800Y-35941800D03*
%TO.P,U2,4,I/O2*%
%TO.N,/D1_N*%
X53429800Y-38216800D03*
%TO.P,U2,5,VBUS*%
%TO.N,+VBUS*%
X54379800Y-38216800D03*
%TO.P,U2,6,I/O1*%
%TO.N,/D1_P*%
X55329800Y-38216800D03*
%TD*%
D25*
%TO.P,R5,1*%
%TO.N,Net-(D2-A)*%
X80713500Y-35856000D03*
%TO.P,R5,2*%
%TO.N,+3.3V*%
X80713500Y-34836000D03*
%TD*%
D31*
%TO.N,GND*%
X56335600Y-37796000D03*
X56335600Y-36297400D03*
X87201000Y-59927750D03*
X87201000Y-57387750D03*
X87201000Y-54847750D03*
X87201000Y-52307750D03*
X87201000Y-49767750D03*
X87201000Y-47227750D03*
X87201000Y-44687750D03*
X87201000Y-37067750D03*
X87201000Y-31987750D03*
X84661000Y-62467750D03*
X84661000Y-59927750D03*
X84661000Y-52307750D03*
X84661000Y-44687750D03*
X84661000Y-42147750D03*
X84661000Y-37067750D03*
X84661000Y-34527750D03*
X84661000Y-31987750D03*
X84661000Y-29447750D03*
X82121000Y-62467750D03*
X82121000Y-59927750D03*
X82121000Y-52307750D03*
X82121000Y-44687750D03*
X82121000Y-42147750D03*
X82121000Y-39607750D03*
X82121000Y-37067750D03*
X82121000Y-34527750D03*
X82121000Y-31987750D03*
X82121000Y-29447750D03*
X79581000Y-62467750D03*
X79581000Y-59927750D03*
X79581000Y-57387750D03*
X79581000Y-29447750D03*
X77041000Y-62467750D03*
X77041000Y-59927750D03*
X77041000Y-52307750D03*
X77041000Y-49767750D03*
X77041000Y-47227750D03*
X77041000Y-44687750D03*
X77041000Y-42147750D03*
X77041000Y-39607750D03*
X77041000Y-37067750D03*
X77041000Y-29447750D03*
X74501000Y-62467750D03*
X74501000Y-59927750D03*
X74501000Y-54847750D03*
X74501000Y-52307750D03*
X74501000Y-49767750D03*
X74501000Y-47227750D03*
X74501000Y-44687750D03*
X74501000Y-42147750D03*
X74501000Y-39607750D03*
X71961000Y-62467750D03*
X71961000Y-59927750D03*
X71961000Y-54847750D03*
X71961000Y-52307750D03*
X71961000Y-49767750D03*
X71961000Y-47227750D03*
X71961000Y-44687750D03*
X71961000Y-31987750D03*
X69421000Y-62467750D03*
X69421000Y-59927750D03*
X69421000Y-54847750D03*
X69421000Y-52307750D03*
X69421000Y-49767750D03*
X69421000Y-47227750D03*
X69421000Y-44687750D03*
X69421000Y-42147750D03*
X69421000Y-39607750D03*
X66881000Y-62467750D03*
X66881000Y-59927750D03*
X66881000Y-54847750D03*
X66881000Y-52307750D03*
X66881000Y-49767750D03*
X66881000Y-47227750D03*
X66881000Y-44687750D03*
X66881000Y-42147750D03*
X66881000Y-39607750D03*
X66881000Y-37067750D03*
X66881000Y-34527750D03*
X66881000Y-29447750D03*
X64341000Y-62467750D03*
X64341000Y-59927750D03*
X64341000Y-54847750D03*
X64341000Y-52307750D03*
X64341000Y-49767750D03*
X64341000Y-47227750D03*
X64341000Y-44687750D03*
X64341000Y-29447750D03*
X61801000Y-62467750D03*
X61801000Y-59927750D03*
X61801000Y-54847750D03*
X61801000Y-52307750D03*
X61801000Y-49767750D03*
X61801000Y-47227750D03*
X61801000Y-44687750D03*
X61801000Y-42147750D03*
X61801000Y-39607750D03*
X61801000Y-34527750D03*
X59261000Y-62467750D03*
X59261000Y-59927750D03*
X59261000Y-54847750D03*
X59261000Y-52307750D03*
X59261000Y-49767750D03*
X59261000Y-47227750D03*
X59261000Y-44687750D03*
X59261000Y-42147750D03*
X59261000Y-39607750D03*
X56721000Y-62467750D03*
X56721000Y-59927750D03*
X56721000Y-42147750D03*
X56721000Y-39607750D03*
X56721000Y-31987750D03*
X54181000Y-59927750D03*
X54181000Y-49767750D03*
X54181000Y-47227750D03*
X51641000Y-59927750D03*
X51641000Y-52307750D03*
X51641000Y-49767750D03*
X51641000Y-47227750D03*
X51641000Y-42147750D03*
X51641000Y-39607750D03*
X51641000Y-37067750D03*
X51641000Y-34527750D03*
X51641000Y-31987750D03*
X76933500Y-30785600D03*
X76933500Y-32106400D03*
X76933500Y-31441000D03*
X58971000Y-33816000D03*
X54384600Y-37068900D03*
X60546000Y-34566000D03*
X63846000Y-34566000D03*
X65416000Y-34516000D03*
X58971000Y-34516000D03*
X65416000Y-33816000D03*
X62246000Y-36166000D03*
X54376000Y-34011400D03*
%TO.N,+3.3V*%
X78992400Y-36627600D03*
X78992400Y-37237200D03*
X78992400Y-41166000D03*
X51865200Y-55220400D03*
X51865200Y-54610800D03*
%TO.N,/Vin*%
X71347000Y-38431000D03*
X69492800Y-30938000D03*
X69492800Y-30328400D03*
X71347000Y-37415000D03*
X71347000Y-37923000D03*
%TD*%
D32*
%TO.N,/D2_N*%
X55396000Y-52916000D02*
X56146000Y-52916000D01*
X53730164Y-52129500D02*
X54609500Y-52129500D01*
X52772700Y-51172036D02*
X53730164Y-52129500D01*
X52456200Y-45468800D02*
X52456200Y-45948801D01*
X52456200Y-45948801D02*
X52772700Y-46265301D01*
%TO.N,/D2_P*%
X55396000Y-50916000D02*
X56146000Y-50916000D01*
X54609500Y-51702500D02*
X55396000Y-50916000D01*
%TO.N,/D2_N*%
X52772700Y-46265301D02*
X52772700Y-51172036D01*
%TO.N,/D2_P*%
X53199700Y-50995164D02*
X53907036Y-51702500D01*
X53199700Y-46265301D02*
X53199700Y-50995164D01*
X53907036Y-51702500D02*
X54609500Y-51702500D01*
%TO.N,/D2_N*%
X54609500Y-52129500D02*
X55396000Y-52916000D01*
%TO.N,/D2_P*%
X53516200Y-45948801D02*
X53199700Y-46265301D01*
X53516200Y-45468800D02*
X53516200Y-45948801D01*
%TO.N,/D1_N*%
X52456200Y-43968799D02*
X52456200Y-44448800D01*
X52772700Y-43652299D02*
X52456200Y-43968799D01*
X52772700Y-41895164D02*
X52772700Y-43652299D01*
X54166300Y-40501564D02*
X52772700Y-41895164D01*
X54166300Y-40082000D02*
X54166300Y-40501564D01*
X53429800Y-38216800D02*
X53429800Y-39345500D01*
X53429800Y-39345500D02*
X54166300Y-40082000D01*
%TO.N,/D1_P*%
X53516200Y-43968799D02*
X53516200Y-44448800D01*
X53199700Y-43652299D02*
X53516200Y-43968799D01*
X53199700Y-42072036D02*
X53199700Y-43652299D01*
X54593300Y-40678436D02*
X53199700Y-42072036D01*
X55329800Y-39345500D02*
X54593300Y-40082000D01*
X55329800Y-38216800D02*
X55329800Y-39345500D01*
X54593300Y-40082000D02*
X54593300Y-40678436D01*
%TO.N,/DN*%
X54162500Y-31158164D02*
X54162500Y-33274900D01*
X55932227Y-29388437D02*
X54162500Y-31158164D01*
X60447373Y-29388437D02*
X55932227Y-29388437D01*
X61946000Y-30887064D02*
X60447373Y-29388437D01*
X54162500Y-33274900D02*
X53426000Y-34011400D01*
X61946000Y-32776000D02*
X61946000Y-30887064D01*
%TO.N,/DP*%
X56109099Y-29815437D02*
X54589500Y-31335036D01*
X60270501Y-29815437D02*
X56109099Y-29815437D01*
X54589500Y-31335036D02*
X54589500Y-33274900D01*
X61446000Y-32776000D02*
X61446000Y-30990936D01*
X61446000Y-30990936D02*
X60270501Y-29815437D01*
X54589500Y-33274900D02*
X55326000Y-34011400D01*
%TO.N,/DN*%
X62845800Y-31750800D02*
X61946000Y-31750800D01*
X62946000Y-31851000D02*
X62845800Y-31750800D01*
X62946000Y-32776000D02*
X62946000Y-31851000D01*
%TO.N,/DP*%
X62446000Y-33666800D02*
X62446000Y-32776000D01*
X62253800Y-33859000D02*
X62446000Y-33666800D01*
X61644200Y-33859000D02*
X62253800Y-33859000D01*
X61446000Y-33660800D02*
X61644200Y-33859000D01*
X61446000Y-32776000D02*
X61446000Y-33660800D01*
X61441000Y-32771000D02*
X61446000Y-32776000D01*
D33*
%TO.N,GND*%
X73671000Y-32551000D02*
X74456000Y-31766000D01*
X73671000Y-33416000D02*
X71096000Y-33416000D01*
D34*
X65416000Y-32551000D02*
X65416000Y-33816000D01*
D35*
X76608500Y-31766000D02*
X76933500Y-31441000D01*
D34*
X65416000Y-33816000D02*
X65416000Y-34516000D01*
D33*
X75871000Y-31766000D02*
X76608500Y-31766000D01*
X73671000Y-33416000D02*
X73671000Y-32551000D01*
D34*
X58971000Y-32776000D02*
X58971000Y-34516000D01*
D33*
X74456000Y-31766000D02*
X75871000Y-31766000D01*
D35*
%TO.N,+3.3V*%
X80713500Y-34836000D02*
X79276000Y-34836000D01*
X79024900Y-41198500D02*
X78992400Y-41166000D01*
X79276000Y-34836000D02*
X78996000Y-35116000D01*
X80713500Y-34836000D02*
X80713500Y-33041000D01*
X78996000Y-37132000D02*
X78992400Y-37135600D01*
X85046000Y-41198500D02*
X79024900Y-41198500D01*
%TO.N,+VBUS*%
X59398000Y-37034000D02*
X60312000Y-36120000D01*
D36*
X64646000Y-40766000D02*
X64646000Y-37016000D01*
D35*
X55218000Y-37034000D02*
X59398000Y-37034000D01*
X54379800Y-38216800D02*
X54379800Y-37872200D01*
D34*
X59746000Y-32776000D02*
X59746000Y-35456000D01*
D35*
X54379800Y-37872200D02*
X55218000Y-37034000D01*
D34*
X64646000Y-32776000D02*
X64646000Y-37016000D01*
X59746000Y-35456000D02*
X61306000Y-37016000D01*
X61306000Y-37016000D02*
X64646000Y-37016000D01*
D35*
X60312000Y-36120000D02*
X59746000Y-35554000D01*
%TO.N,Net-(D1-A)*%
X85046000Y-40178500D02*
X86946000Y-40178500D01*
%TO.N,Net-(D2-A)*%
X80713500Y-35856000D02*
X86946000Y-35856000D01*
D32*
%TO.N,/DN*%
X53429800Y-34015200D02*
X53426000Y-34011400D01*
X53429800Y-35941800D02*
X53429800Y-34015200D01*
X61946000Y-31750800D02*
X61946000Y-32776000D01*
%TO.N,/DP*%
X55329800Y-35941800D02*
X55329800Y-34015200D01*
X55329800Y-34015200D02*
X55326000Y-34011400D01*
D35*
%TO.N,Net-(U3-SS{slash}TR)*%
X77996000Y-30466000D02*
X79703500Y-30466000D01*
%TO.N,Net-(Q1-G)*%
X75690400Y-37476000D02*
X73592400Y-37476000D01*
X73592400Y-37476000D02*
X73206000Y-37089600D01*
X73206000Y-37089600D02*
X73206000Y-36058500D01*
%TO.N,Net-(D1-K)*%
X57746000Y-42966000D02*
X56146000Y-44566000D01*
X85733500Y-42966000D02*
X57746000Y-42966000D01*
X86946000Y-41753500D02*
X85733500Y-42966000D01*
X56146000Y-44566000D02*
X56146000Y-46916000D01*
%TO.N,Net-(U3-FB)*%
X77996000Y-31766000D02*
X79693500Y-31766000D01*
X79693500Y-33041000D02*
X79693500Y-31766000D01*
%TD*%
%TA.AperFunction,Conductor*%
%TO.N,/Vin*%
G36*
X76067225Y-29887668D02*
G01*
X76110822Y-29899349D01*
X76132783Y-29912030D01*
X76159969Y-29939216D01*
X76172651Y-29961181D01*
X76184330Y-30004766D01*
X76186000Y-30017449D01*
X76186000Y-31234550D01*
X76184330Y-31247233D01*
X76172651Y-31290818D01*
X76159969Y-31312783D01*
X76132783Y-31339969D01*
X76110818Y-31352651D01*
X76087457Y-31358910D01*
X76067231Y-31364330D01*
X76054550Y-31366000D01*
X75556000Y-31366000D01*
X71346000Y-31366000D01*
X69089850Y-31366000D01*
X69077168Y-31364330D01*
X69033582Y-31352651D01*
X69011616Y-31339969D01*
X68984430Y-31312783D01*
X68971749Y-31290822D01*
X68960068Y-31247225D01*
X68958400Y-31234550D01*
X68958400Y-30017449D01*
X68960067Y-30004775D01*
X68971750Y-29961176D01*
X68984428Y-29939218D01*
X69011618Y-29912028D01*
X69033577Y-29899349D01*
X69077173Y-29887668D01*
X69089850Y-29886000D01*
X76054550Y-29886000D01*
X76067225Y-29887668D01*
G37*
%TD.AperFunction*%
%TD*%
%TA.AperFunction,Conductor*%
%TO.N,+3.3V*%
G36*
X76067225Y-32167668D02*
G01*
X76110822Y-32179349D01*
X76132783Y-32192030D01*
X76159969Y-32219216D01*
X76172651Y-32241181D01*
X76184330Y-32284766D01*
X76186000Y-32297449D01*
X76186000Y-32646000D01*
X77561000Y-32646000D01*
X77561003Y-32646000D01*
X77686000Y-32646000D01*
X77686000Y-32297449D01*
X77687667Y-32284775D01*
X77699350Y-32241176D01*
X77712028Y-32219218D01*
X77739218Y-32192028D01*
X77761177Y-32179349D01*
X77804773Y-32167668D01*
X77817450Y-32166000D01*
X78194550Y-32166000D01*
X78207225Y-32167668D01*
X78250822Y-32179349D01*
X78272783Y-32192030D01*
X78299969Y-32219216D01*
X78312651Y-32241181D01*
X78324330Y-32284766D01*
X78326000Y-32297449D01*
X78326000Y-34216000D01*
X79454550Y-34216000D01*
X79467225Y-34217668D01*
X79510822Y-34229349D01*
X79532783Y-34242030D01*
X79559969Y-34269216D01*
X79572651Y-34291181D01*
X79584330Y-34334766D01*
X79586000Y-34347449D01*
X79586000Y-36046000D01*
X77617450Y-36046000D01*
X77604768Y-36044330D01*
X77561182Y-36032651D01*
X77539216Y-36019969D01*
X77512030Y-35992783D01*
X77499349Y-35970822D01*
X77487668Y-35927225D01*
X77486000Y-35914550D01*
X77486000Y-33517954D01*
X77486000Y-33392728D01*
X77360772Y-33392956D01*
X77360769Y-33392956D01*
X75687687Y-33396015D01*
X75674986Y-33394364D01*
X75631334Y-33382738D01*
X75609329Y-33370069D01*
X75582088Y-33342878D01*
X75569379Y-33320897D01*
X75557672Y-33277261D01*
X75556000Y-33264569D01*
X75556000Y-32297449D01*
X75557667Y-32284775D01*
X75569350Y-32241176D01*
X75582028Y-32219218D01*
X75609218Y-32192028D01*
X75631177Y-32179349D01*
X75674773Y-32167668D01*
X75687450Y-32166000D01*
X76054550Y-32166000D01*
X76067225Y-32167668D01*
G37*
%TD.AperFunction*%
%TD*%
%TA.AperFunction,Conductor*%
%TO.N,GND*%
G36*
X77496000Y-32456000D02*
G01*
X76376000Y-32456000D01*
X76376000Y-29717400D01*
X77496000Y-29717400D01*
X77496000Y-32456000D01*
G37*
%TD.AperFunction*%
%TD*%
%TA.AperFunction,Conductor*%
%TO.N,+3.3V*%
G36*
X57445565Y-54259425D02*
G01*
X57459229Y-54263086D01*
X57518891Y-54299449D01*
X57546912Y-54350764D01*
X57550574Y-54364429D01*
X57554800Y-54396526D01*
X57554800Y-55434673D01*
X57550574Y-55466770D01*
X57546912Y-55480435D01*
X57510545Y-55540095D01*
X57459238Y-55568111D01*
X57445574Y-55571773D01*
X57413474Y-55576000D01*
X51650926Y-55576000D01*
X51618829Y-55571774D01*
X51605164Y-55568112D01*
X51545504Y-55531745D01*
X51517485Y-55480427D01*
X51513824Y-55466762D01*
X51509600Y-55434673D01*
X51509600Y-54396526D01*
X51513824Y-54364437D01*
X51517485Y-54350772D01*
X51553848Y-54291110D01*
X51605170Y-54263085D01*
X51612232Y-54261193D01*
X51618837Y-54259424D01*
X51650926Y-54255200D01*
X57413474Y-54255200D01*
X57445565Y-54259425D01*
G37*
%TD.AperFunction*%
%TD*%
%TA.AperFunction,Conductor*%
%TO.N,+3.3V*%
G36*
X79586000Y-37451473D02*
G01*
X79581774Y-37483570D01*
X79578112Y-37497235D01*
X79541745Y-37556895D01*
X79490438Y-37584911D01*
X79476774Y-37588573D01*
X79444674Y-37592800D01*
X78524126Y-37592800D01*
X78492029Y-37588574D01*
X78478364Y-37584912D01*
X78418704Y-37548545D01*
X78390685Y-37497227D01*
X78387024Y-37483562D01*
X78382800Y-37451473D01*
X78382800Y-36171002D01*
X78382800Y-36171000D01*
X78382800Y-36018000D01*
X79586000Y-36018000D01*
X79586000Y-37451473D01*
G37*
%TD.AperFunction*%
%TD*%
%TA.AperFunction,Conductor*%
%TO.N,/Vin*%
G36*
X72576765Y-37070225D02*
G01*
X72590429Y-37073886D01*
X72650091Y-37110249D01*
X72678112Y-37161564D01*
X72681774Y-37175229D01*
X72686000Y-37207326D01*
X72686000Y-38654673D01*
X72681774Y-38686770D01*
X72678112Y-38700435D01*
X72641745Y-38760095D01*
X72590438Y-38788111D01*
X72576774Y-38791773D01*
X72544674Y-38796000D01*
X71147326Y-38796000D01*
X71115229Y-38791774D01*
X71101564Y-38788112D01*
X71041904Y-38751745D01*
X71013885Y-38700427D01*
X71010224Y-38686762D01*
X71006000Y-38654673D01*
X71006000Y-37207326D01*
X71010224Y-37175237D01*
X71013885Y-37161572D01*
X71050248Y-37101910D01*
X71101570Y-37073885D01*
X71108632Y-37071993D01*
X71115237Y-37070224D01*
X71147326Y-37066000D01*
X72544674Y-37066000D01*
X72576765Y-37070225D01*
G37*
%TD.AperFunction*%
%TD*%
%TA.AperFunction,Conductor*%
%TO.N,Net-(Q1-S)*%
G36*
X71626765Y-35200225D02*
G01*
X71640429Y-35203886D01*
X71700091Y-35240249D01*
X71728112Y-35291564D01*
X71731774Y-35305229D01*
X71736000Y-35337326D01*
X71736000Y-36784673D01*
X71731774Y-36816770D01*
X71728112Y-36830435D01*
X71691745Y-36890095D01*
X71640438Y-36918111D01*
X71626774Y-36921773D01*
X71594674Y-36926000D01*
X69876000Y-36926000D01*
X69876000Y-37051000D01*
X69876000Y-38714673D01*
X69871774Y-38746770D01*
X69868112Y-38760435D01*
X69831745Y-38820095D01*
X69780438Y-38848111D01*
X69766774Y-38851773D01*
X69734674Y-38856000D01*
X68457326Y-38856000D01*
X68425229Y-38851774D01*
X68411564Y-38848112D01*
X68351904Y-38811745D01*
X68323885Y-38760427D01*
X68320224Y-38746762D01*
X68316000Y-38714673D01*
X68316000Y-35337326D01*
X68320224Y-35305237D01*
X68323885Y-35291572D01*
X68360248Y-35231910D01*
X68411570Y-35203885D01*
X68418632Y-35201993D01*
X68425237Y-35200224D01*
X68457326Y-35196000D01*
X71594674Y-35196000D01*
X71626765Y-35200225D01*
G37*
%TD.AperFunction*%
%TD*%
%TA.AperFunction,Conductor*%
%TO.N,GND*%
G36*
X60121791Y-30234844D02*
G01*
X60133604Y-30244933D01*
X61016504Y-31127832D01*
X61044281Y-31182349D01*
X61045500Y-31197836D01*
X61045500Y-31701500D01*
X61026593Y-31759691D01*
X60977093Y-31795655D01*
X60946500Y-31800500D01*
X60771320Y-31800500D01*
X60715313Y-31811641D01*
X60676687Y-31811641D01*
X60620679Y-31800500D01*
X60620674Y-31800500D01*
X60271326Y-31800500D01*
X60271325Y-31800500D01*
X60251453Y-31804453D01*
X60198260Y-31815034D01*
X60198258Y-31815034D01*
X60190315Y-31816615D01*
X60151685Y-31816615D01*
X60143741Y-31815034D01*
X60143740Y-31815034D01*
X60070674Y-31800500D01*
X59870938Y-31800500D01*
X59812747Y-31781593D01*
X59776783Y-31732093D01*
X59776783Y-31670907D01*
X59785202Y-31652000D01*
X59842279Y-31553139D01*
X59842279Y-31553137D01*
X59842281Y-31553135D01*
X59881500Y-31406766D01*
X59881500Y-31255234D01*
X59842281Y-31108865D01*
X59842279Y-31108861D01*
X59842279Y-31108860D01*
X59766518Y-30977639D01*
X59766516Y-30977637D01*
X59766515Y-30977635D01*
X59659365Y-30870485D01*
X59659362Y-30870483D01*
X59659360Y-30870481D01*
X59528138Y-30794720D01*
X59528140Y-30794720D01*
X59471347Y-30779503D01*
X59381766Y-30755500D01*
X59230234Y-30755500D01*
X59140652Y-30779503D01*
X59083860Y-30794720D01*
X58952639Y-30870481D01*
X58845481Y-30977639D01*
X58769720Y-31108861D01*
X58769718Y-31108865D01*
X58753221Y-31170433D01*
X58719897Y-31221747D01*
X58662775Y-31243673D01*
X58603675Y-31227837D01*
X58565170Y-31180287D01*
X58560497Y-31164122D01*
X58549099Y-31106819D01*
X58549098Y-31106816D01*
X58496333Y-30979428D01*
X58419728Y-30864779D01*
X58322220Y-30767271D01*
X58207571Y-30690666D01*
X58080182Y-30637901D01*
X57976000Y-30617177D01*
X57976000Y-31027211D01*
X57915496Y-31011000D01*
X57836504Y-31011000D01*
X57776000Y-31027211D01*
X57776000Y-30617177D01*
X57671817Y-30637901D01*
X57544428Y-30690666D01*
X57429779Y-30767271D01*
X57332271Y-30864779D01*
X57255666Y-30979428D01*
X57202901Y-31106816D01*
X57176000Y-31242055D01*
X57176000Y-31760999D01*
X57176001Y-31761000D01*
X57576000Y-31761000D01*
X57576000Y-31961000D01*
X57176001Y-31961000D01*
X57176000Y-31961001D01*
X57176000Y-32479944D01*
X57202901Y-32615183D01*
X57255666Y-32742571D01*
X57332271Y-32857220D01*
X57429779Y-32954728D01*
X57544428Y-33031333D01*
X57671817Y-33084098D01*
X57776000Y-33104822D01*
X57776000Y-32694788D01*
X57836504Y-32711000D01*
X57915496Y-32711000D01*
X57976000Y-32694788D01*
X57976000Y-33104821D01*
X58080181Y-33084098D01*
X58080183Y-33084098D01*
X58207571Y-33031333D01*
X58316999Y-32958217D01*
X58375887Y-32941609D01*
X58433291Y-32962787D01*
X58467283Y-33013661D01*
X58471000Y-33040533D01*
X58471000Y-33520700D01*
X58482603Y-33579036D01*
X58526806Y-33645189D01*
X58526810Y-33645193D01*
X58592963Y-33689396D01*
X58651299Y-33700999D01*
X58651303Y-33701000D01*
X58870999Y-33701000D01*
X58871000Y-33700999D01*
X58871000Y-32775000D01*
X58889907Y-32716809D01*
X58939407Y-32680845D01*
X58970000Y-32676000D01*
X58972000Y-32676000D01*
X59030191Y-32694907D01*
X59066155Y-32744407D01*
X59071000Y-32775000D01*
X59071000Y-33700999D01*
X59071001Y-33701000D01*
X59096500Y-33701000D01*
X59154691Y-33719907D01*
X59190655Y-33769407D01*
X59195500Y-33800000D01*
X59195500Y-35528477D01*
X59208108Y-35575529D01*
X59208108Y-35575530D01*
X59208109Y-35575530D01*
X59208109Y-35575531D01*
X59233016Y-35668485D01*
X59305490Y-35794015D01*
X59305492Y-35794017D01*
X59653892Y-36142418D01*
X59681669Y-36196934D01*
X59672098Y-36257366D01*
X59653892Y-36282424D01*
X59281815Y-36654503D01*
X59227298Y-36682281D01*
X59211811Y-36683500D01*
X55964904Y-36683500D01*
X55906713Y-36664593D01*
X55870749Y-36615093D01*
X55867123Y-36569014D01*
X55880300Y-36485819D01*
X55880299Y-35397782D01*
X55880299Y-35397781D01*
X55880299Y-35397778D01*
X55880298Y-35397776D01*
X55865447Y-35304000D01*
X55865446Y-35303998D01*
X55865446Y-35303996D01*
X55807850Y-35190958D01*
X55784892Y-35168000D01*
X55759296Y-35142403D01*
X55731519Y-35087886D01*
X55730300Y-35072400D01*
X55730300Y-34698433D01*
X55749207Y-34640242D01*
X55776629Y-34614607D01*
X55796890Y-34601877D01*
X55916477Y-34482290D01*
X56006456Y-34339090D01*
X56061774Y-34180999D01*
X56062311Y-34179465D01*
X56062314Y-34179453D01*
X56081249Y-34011404D01*
X56081249Y-34011395D01*
X56069982Y-33911400D01*
X56533000Y-33911400D01*
X56916331Y-33911400D01*
X56901000Y-33968613D01*
X56901000Y-34054187D01*
X56916331Y-34111400D01*
X56533001Y-34111400D01*
X56541349Y-34180149D01*
X56541351Y-34180158D01*
X56601626Y-34339090D01*
X56601628Y-34339093D01*
X56698194Y-34478994D01*
X56698199Y-34479000D01*
X56825431Y-34591718D01*
X56975952Y-34670717D01*
X56975955Y-34670718D01*
X57125999Y-34707701D01*
X57126000Y-34707701D01*
X57126000Y-34321069D01*
X57183213Y-34336400D01*
X57268787Y-34336400D01*
X57326000Y-34321069D01*
X57326000Y-34707701D01*
X57476044Y-34670718D01*
X57476047Y-34670717D01*
X57626568Y-34591718D01*
X57626569Y-34591718D01*
X57753800Y-34479000D01*
X57753805Y-34478994D01*
X57850371Y-34339093D01*
X57850373Y-34339090D01*
X57910648Y-34180158D01*
X57910650Y-34180149D01*
X57918999Y-34111400D01*
X57535669Y-34111400D01*
X57551000Y-34054187D01*
X57551000Y-33968613D01*
X57535669Y-33911400D01*
X57918999Y-33911400D01*
X57910650Y-33842650D01*
X57910648Y-33842641D01*
X57850373Y-33683709D01*
X57850371Y-33683706D01*
X57753805Y-33543805D01*
X57753800Y-33543799D01*
X57626568Y-33431081D01*
X57476046Y-33352082D01*
X57326000Y-33315098D01*
X57326000Y-33701730D01*
X57268787Y-33686400D01*
X57183213Y-33686400D01*
X57126000Y-33701730D01*
X57126000Y-33315098D01*
X56975953Y-33352082D01*
X56975952Y-33352082D01*
X56825431Y-33431081D01*
X56825430Y-33431081D01*
X56698199Y-33543799D01*
X56698194Y-33543805D01*
X56601628Y-33683706D01*
X56601626Y-33683709D01*
X56541351Y-33842641D01*
X56541349Y-33842650D01*
X56533000Y-33911400D01*
X56069982Y-33911400D01*
X56062314Y-33843346D01*
X56062311Y-33843334D01*
X56036792Y-33770407D01*
X56006456Y-33683710D01*
X56006453Y-33683706D01*
X55916479Y-33540513D01*
X55916478Y-33540512D01*
X55916477Y-33540510D01*
X55796890Y-33420923D01*
X55796887Y-33420921D01*
X55796886Y-33420920D01*
X55653691Y-33330944D01*
X55494065Y-33275088D01*
X55494053Y-33275085D01*
X55326004Y-33256151D01*
X55326003Y-33256151D01*
X55326001Y-33256151D01*
X55326000Y-33256151D01*
X55271972Y-33262238D01*
X55203644Y-33269937D01*
X55143702Y-33257663D01*
X55122556Y-33241563D01*
X55018996Y-33138003D01*
X54991219Y-33083486D01*
X54990000Y-33067999D01*
X54990000Y-31541936D01*
X55008907Y-31483745D01*
X55018996Y-31471932D01*
X56245995Y-30244933D01*
X56300512Y-30217156D01*
X56315999Y-30215937D01*
X60063600Y-30215937D01*
X60121791Y-30234844D01*
G37*
%TD.AperFunction*%
%TA.AperFunction,Conductor*%
G36*
X60771326Y-33751500D02*
G01*
X60980180Y-33751500D01*
X61038371Y-33770407D01*
X61069446Y-33809827D01*
X61069548Y-33809769D01*
X61069951Y-33810467D01*
X61071645Y-33812616D01*
X61072795Y-33815393D01*
X61125516Y-33906708D01*
X61125518Y-33906710D01*
X61125520Y-33906713D01*
X61398287Y-34179480D01*
X61398289Y-34179481D01*
X61398291Y-34179483D01*
X61489608Y-34232205D01*
X61489606Y-34232205D01*
X61489610Y-34232206D01*
X61489612Y-34232207D01*
X61591473Y-34259500D01*
X61591475Y-34259500D01*
X62306525Y-34259500D01*
X62306527Y-34259500D01*
X62408388Y-34232207D01*
X62408390Y-34232205D01*
X62408392Y-34232205D01*
X62499708Y-34179483D01*
X62499708Y-34179482D01*
X62499713Y-34179480D01*
X62766480Y-33912713D01*
X62819207Y-33821388D01*
X62819208Y-33821382D01*
X62821688Y-33815398D01*
X62823848Y-33816292D01*
X62851586Y-33773570D01*
X62908705Y-33751636D01*
X62913898Y-33751500D01*
X63120673Y-33751500D01*
X63120674Y-33751500D01*
X63176688Y-33740358D01*
X63215312Y-33740358D01*
X63271326Y-33751500D01*
X63271327Y-33751500D01*
X63620673Y-33751500D01*
X63620674Y-33751500D01*
X63676688Y-33740358D01*
X63715312Y-33740358D01*
X63771326Y-33751500D01*
X63996500Y-33751500D01*
X64054691Y-33770407D01*
X64090655Y-33819907D01*
X64095500Y-33850500D01*
X64095500Y-35019215D01*
X64076593Y-35077406D01*
X64031098Y-35111973D01*
X64003666Y-35122204D01*
X63888458Y-35208450D01*
X63888450Y-35208458D01*
X63802202Y-35323670D01*
X63751910Y-35458511D01*
X63751908Y-35458522D01*
X63745500Y-35518129D01*
X63745500Y-36366500D01*
X63726593Y-36424691D01*
X63677093Y-36460655D01*
X63646500Y-36465500D01*
X61575033Y-36465500D01*
X61516842Y-36446593D01*
X61505029Y-36436504D01*
X60325496Y-35256971D01*
X60297719Y-35202454D01*
X60296500Y-35186967D01*
X60296500Y-33850500D01*
X60315407Y-33792309D01*
X60364907Y-33756345D01*
X60395500Y-33751500D01*
X60620673Y-33751500D01*
X60620674Y-33751500D01*
X60676688Y-33740358D01*
X60715312Y-33740358D01*
X60771326Y-33751500D01*
G37*
%TD.AperFunction*%
%TA.AperFunction,Conductor*%
G36*
X76376000Y-32075567D02*
G01*
X76361545Y-32034725D01*
X76370788Y-31990310D01*
X76376000Y-31979131D01*
X76376000Y-32075567D01*
G37*
%TD.AperFunction*%
%TA.AperFunction,Conductor*%
G36*
X76376000Y-31552865D02*
G01*
X76370788Y-31541688D01*
X76363329Y-31480959D01*
X76376000Y-31452857D01*
X76376000Y-31552865D01*
G37*
%TD.AperFunction*%
%TA.AperFunction,Conductor*%
G36*
X57369734Y-26735407D02*
G01*
X57405698Y-26784907D01*
X57405698Y-26846093D01*
X57381547Y-26885504D01*
X57332271Y-26934779D01*
X57255666Y-27049428D01*
X57202901Y-27176816D01*
X57176000Y-27312055D01*
X57176000Y-27580999D01*
X57176001Y-27581000D01*
X57576000Y-27581000D01*
X57576000Y-27781000D01*
X57176001Y-27781000D01*
X57176000Y-27781001D01*
X57176000Y-28049944D01*
X57202901Y-28185183D01*
X57255666Y-28312571D01*
X57332271Y-28427220D01*
X57429779Y-28524728D01*
X57544428Y-28601333D01*
X57671817Y-28654098D01*
X57776000Y-28674822D01*
X57776000Y-28264788D01*
X57836504Y-28281000D01*
X57915496Y-28281000D01*
X57976000Y-28264788D01*
X57976000Y-28674821D01*
X58080181Y-28654098D01*
X58080183Y-28654098D01*
X58207571Y-28601333D01*
X58322220Y-28524728D01*
X58419728Y-28427220D01*
X58496333Y-28312571D01*
X58549098Y-28185183D01*
X58575999Y-28049944D01*
X58576000Y-28049942D01*
X58576000Y-27781001D01*
X58575999Y-27781000D01*
X58176000Y-27781000D01*
X58176000Y-27581000D01*
X58575999Y-27581000D01*
X58576000Y-27580999D01*
X58576000Y-27312057D01*
X58575999Y-27312055D01*
X58549098Y-27176816D01*
X58496333Y-27049428D01*
X58419728Y-26934779D01*
X58370453Y-26885504D01*
X58342676Y-26830987D01*
X58352247Y-26770555D01*
X58395512Y-26727290D01*
X58440457Y-26716500D01*
X65951543Y-26716500D01*
X66009734Y-26735407D01*
X66045698Y-26784907D01*
X66045698Y-26846093D01*
X66021547Y-26885504D01*
X65972271Y-26934779D01*
X65895666Y-27049428D01*
X65842901Y-27176816D01*
X65816000Y-27312055D01*
X65816000Y-27580999D01*
X65816001Y-27581000D01*
X66216000Y-27581000D01*
X66216000Y-27781000D01*
X65816001Y-27781000D01*
X65816000Y-27781001D01*
X65816000Y-28049944D01*
X65842901Y-28185183D01*
X65895666Y-28312571D01*
X65972271Y-28427220D01*
X66069779Y-28524728D01*
X66184428Y-28601333D01*
X66311817Y-28654098D01*
X66416000Y-28674822D01*
X66416000Y-28264788D01*
X66476504Y-28281000D01*
X66555496Y-28281000D01*
X66616000Y-28264788D01*
X66616000Y-28674821D01*
X66720181Y-28654098D01*
X66720183Y-28654098D01*
X66847571Y-28601333D01*
X66962220Y-28524728D01*
X67059728Y-28427220D01*
X67104837Y-28359709D01*
X85295500Y-28359709D01*
X85295500Y-28572290D01*
X85328752Y-28782238D01*
X85394443Y-28984412D01*
X85490948Y-29173815D01*
X85490950Y-29173819D01*
X85615891Y-29345786D01*
X85615893Y-29345788D01*
X85615896Y-29345792D01*
X85766208Y-29496104D01*
X85766211Y-29496106D01*
X85766213Y-29496108D01*
X85938180Y-29621049D01*
X85938184Y-29621051D01*
X86127588Y-29717557D01*
X86329757Y-29783246D01*
X86329758Y-29783246D01*
X86329761Y-29783247D01*
X86539710Y-29816500D01*
X86539713Y-29816500D01*
X86752290Y-29816500D01*
X86962238Y-29783247D01*
X86962239Y-29783246D01*
X86962243Y-29783246D01*
X87164412Y-29717557D01*
X87353816Y-29621051D01*
X87525792Y-29496104D01*
X87676104Y-29345792D01*
X87801051Y-29173816D01*
X87897557Y-28984412D01*
X87963246Y-28782243D01*
X87980260Y-28674821D01*
X87996500Y-28572290D01*
X87996500Y-28359709D01*
X87963247Y-28149761D01*
X87963246Y-28149757D01*
X87897557Y-27947588D01*
X87801051Y-27758184D01*
X87801049Y-27758180D01*
X87676108Y-27586213D01*
X87676106Y-27586211D01*
X87676104Y-27586208D01*
X87525792Y-27435896D01*
X87525788Y-27435893D01*
X87525786Y-27435891D01*
X87353819Y-27310950D01*
X87353815Y-27310948D01*
X87164412Y-27214443D01*
X86962238Y-27148752D01*
X86752290Y-27115500D01*
X86752287Y-27115500D01*
X86539713Y-27115500D01*
X86539710Y-27115500D01*
X86329761Y-27148752D01*
X86127587Y-27214443D01*
X85938184Y-27310948D01*
X85938180Y-27310950D01*
X85766213Y-27435891D01*
X85615891Y-27586213D01*
X85490950Y-27758180D01*
X85490948Y-27758184D01*
X85394443Y-27947587D01*
X85328752Y-28149761D01*
X85295500Y-28359709D01*
X67104837Y-28359709D01*
X67136333Y-28312571D01*
X67189098Y-28185183D01*
X67215999Y-28049944D01*
X67216000Y-28049942D01*
X67216000Y-27781001D01*
X67215999Y-27781000D01*
X66816000Y-27781000D01*
X66816000Y-27581000D01*
X67215999Y-27581000D01*
X67216000Y-27580999D01*
X67216000Y-27312057D01*
X67215999Y-27312055D01*
X67189098Y-27176816D01*
X67136333Y-27049428D01*
X67059728Y-26934779D01*
X67010453Y-26885504D01*
X66982676Y-26830987D01*
X66992247Y-26770555D01*
X67035512Y-26727290D01*
X67080457Y-26716500D01*
X87601830Y-26716500D01*
X87641140Y-26716500D01*
X87650843Y-26716977D01*
X87782514Y-26729945D01*
X87801549Y-26733731D01*
X87923495Y-26770723D01*
X87941412Y-26778144D01*
X88053811Y-26838223D01*
X88069934Y-26848997D01*
X88168443Y-26929840D01*
X88182159Y-26943556D01*
X88263000Y-27042063D01*
X88273778Y-27058191D01*
X88333852Y-27170580D01*
X88341279Y-27188511D01*
X88378268Y-27310450D01*
X88382054Y-27329484D01*
X88395023Y-27461155D01*
X88395500Y-27470859D01*
X88395500Y-63461140D01*
X88395023Y-63470844D01*
X88382054Y-63602515D01*
X88378268Y-63621549D01*
X88341279Y-63743488D01*
X88333852Y-63761419D01*
X88273780Y-63873805D01*
X88262998Y-63889940D01*
X88182163Y-63988439D01*
X88168439Y-64002163D01*
X88069940Y-64082998D01*
X88053805Y-64093780D01*
X87941419Y-64153852D01*
X87923488Y-64161279D01*
X87801549Y-64198268D01*
X87782515Y-64202054D01*
X87662223Y-64213902D01*
X87650842Y-64215023D01*
X87641140Y-64215500D01*
X51650860Y-64215500D01*
X51641157Y-64215023D01*
X51628395Y-64213766D01*
X51509484Y-64202054D01*
X51490450Y-64198268D01*
X51389443Y-64167628D01*
X51368509Y-64161278D01*
X51350582Y-64153853D01*
X51238191Y-64093778D01*
X51222063Y-64083000D01*
X51123556Y-64002159D01*
X51109840Y-63988443D01*
X51028997Y-63889934D01*
X51018223Y-63873811D01*
X50958144Y-63761412D01*
X50950723Y-63743495D01*
X50913731Y-63621549D01*
X50909945Y-63602514D01*
X50896977Y-63470843D01*
X50896500Y-63461140D01*
X50896500Y-62359709D01*
X51295500Y-62359709D01*
X51295500Y-62572290D01*
X51328752Y-62782238D01*
X51394443Y-62984412D01*
X51490948Y-63173815D01*
X51490950Y-63173819D01*
X51615891Y-63345786D01*
X51615893Y-63345788D01*
X51615896Y-63345792D01*
X51766208Y-63496104D01*
X51766211Y-63496106D01*
X51766213Y-63496108D01*
X51938180Y-63621049D01*
X51938184Y-63621051D01*
X52127588Y-63717557D01*
X52329757Y-63783246D01*
X52329758Y-63783246D01*
X52329761Y-63783247D01*
X52539710Y-63816500D01*
X52539713Y-63816500D01*
X52752290Y-63816500D01*
X52962238Y-63783247D01*
X52962239Y-63783246D01*
X52962243Y-63783246D01*
X53164412Y-63717557D01*
X53353816Y-63621051D01*
X53525792Y-63496104D01*
X53676104Y-63345792D01*
X53801051Y-63173816D01*
X53897557Y-62984412D01*
X53963246Y-62782243D01*
X53996500Y-62572287D01*
X53996500Y-62359713D01*
X53996500Y-62359709D01*
X85295500Y-62359709D01*
X85295500Y-62572290D01*
X85328752Y-62782238D01*
X85394443Y-62984412D01*
X85490948Y-63173815D01*
X85490950Y-63173819D01*
X85615891Y-63345786D01*
X85615893Y-63345788D01*
X85615896Y-63345792D01*
X85766208Y-63496104D01*
X85766211Y-63496106D01*
X85766213Y-63496108D01*
X85938180Y-63621049D01*
X85938184Y-63621051D01*
X86127588Y-63717557D01*
X86329757Y-63783246D01*
X86329758Y-63783246D01*
X86329761Y-63783247D01*
X86539710Y-63816500D01*
X86539713Y-63816500D01*
X86752290Y-63816500D01*
X86962238Y-63783247D01*
X86962239Y-63783246D01*
X86962243Y-63783246D01*
X87164412Y-63717557D01*
X87353816Y-63621051D01*
X87525792Y-63496104D01*
X87676104Y-63345792D01*
X87801051Y-63173816D01*
X87897557Y-62984412D01*
X87963246Y-62782243D01*
X87996500Y-62572287D01*
X87996500Y-62359713D01*
X87996500Y-62359709D01*
X87963247Y-62149761D01*
X87963246Y-62149757D01*
X87897557Y-61947588D01*
X87801051Y-61758184D01*
X87801049Y-61758180D01*
X87676108Y-61586213D01*
X87676106Y-61586211D01*
X87676104Y-61586208D01*
X87525792Y-61435896D01*
X87525788Y-61435893D01*
X87525786Y-61435891D01*
X87353819Y-61310950D01*
X87353815Y-61310948D01*
X87164412Y-61214443D01*
X86962238Y-61148752D01*
X86752290Y-61115500D01*
X86752287Y-61115500D01*
X86539713Y-61115500D01*
X86539710Y-61115500D01*
X86329761Y-61148752D01*
X86127587Y-61214443D01*
X85938184Y-61310948D01*
X85938180Y-61310950D01*
X85766213Y-61435891D01*
X85615891Y-61586213D01*
X85490950Y-61758180D01*
X85490948Y-61758184D01*
X85394443Y-61947587D01*
X85328752Y-62149761D01*
X85295500Y-62359709D01*
X53996500Y-62359709D01*
X53963247Y-62149761D01*
X53963246Y-62149757D01*
X53897557Y-61947588D01*
X53801051Y-61758184D01*
X53801049Y-61758180D01*
X53676108Y-61586213D01*
X53676106Y-61586211D01*
X53676104Y-61586208D01*
X53525792Y-61435896D01*
X53525788Y-61435893D01*
X53525786Y-61435891D01*
X53353819Y-61310950D01*
X53353815Y-61310948D01*
X53164412Y-61214443D01*
X52962238Y-61148752D01*
X52752290Y-61115500D01*
X52752287Y-61115500D01*
X52539713Y-61115500D01*
X52539710Y-61115500D01*
X52329761Y-61148752D01*
X52127587Y-61214443D01*
X51938184Y-61310948D01*
X51938180Y-61310950D01*
X51766213Y-61435891D01*
X51615891Y-61586213D01*
X51490950Y-61758180D01*
X51490948Y-61758184D01*
X51394443Y-61947587D01*
X51328752Y-62149761D01*
X51295500Y-62359709D01*
X50896500Y-62359709D01*
X50896500Y-57963801D01*
X52187601Y-57963801D01*
X52187601Y-58243003D01*
X52190450Y-58273400D01*
X52190450Y-58273402D01*
X52235254Y-58401447D01*
X52315807Y-58510590D01*
X52315809Y-58510592D01*
X52424952Y-58591145D01*
X52552998Y-58635949D01*
X52583389Y-58638799D01*
X53187598Y-58638799D01*
X53187600Y-58638798D01*
X53187600Y-57963801D01*
X53387600Y-57963801D01*
X53387600Y-58638798D01*
X53387601Y-58638799D01*
X53991803Y-58638799D01*
X54022200Y-58635949D01*
X54022202Y-58635949D01*
X54150247Y-58591145D01*
X54259390Y-58510592D01*
X54259392Y-58510590D01*
X54339945Y-58401447D01*
X54384749Y-58273401D01*
X54387599Y-58243011D01*
X54387600Y-58243010D01*
X54387600Y-57963801D01*
X54387599Y-57963800D01*
X53387601Y-57963800D01*
X53387600Y-57963801D01*
X53187600Y-57963801D01*
X53187599Y-57963800D01*
X52187602Y-57963800D01*
X52187601Y-57963801D01*
X50896500Y-57963801D01*
X50896500Y-57484588D01*
X52187600Y-57484588D01*
X52187600Y-57763799D01*
X52187601Y-57763800D01*
X53187599Y-57763800D01*
X53187600Y-57763799D01*
X53187600Y-57088801D01*
X53387600Y-57088801D01*
X53387600Y-57763799D01*
X53387601Y-57763800D01*
X54387598Y-57763800D01*
X54387599Y-57763799D01*
X54387599Y-57484596D01*
X54384749Y-57454199D01*
X54384749Y-57454197D01*
X54339945Y-57326152D01*
X54259392Y-57217009D01*
X54259390Y-57217007D01*
X54150247Y-57136454D01*
X54022201Y-57091650D01*
X53991811Y-57088800D01*
X53387601Y-57088800D01*
X53387600Y-57088801D01*
X53187600Y-57088801D01*
X53187599Y-57088800D01*
X52583396Y-57088800D01*
X52552999Y-57091650D01*
X52552997Y-57091650D01*
X52424952Y-57136454D01*
X52315809Y-57217007D01*
X52315807Y-57217009D01*
X52235254Y-57326152D01*
X52190450Y-57454198D01*
X52187600Y-57484588D01*
X50896500Y-57484588D01*
X50896500Y-56618129D01*
X54645500Y-56618129D01*
X54645500Y-57213866D01*
X54645501Y-57213870D01*
X54651908Y-57273480D01*
X54651909Y-57273485D01*
X54702202Y-57408329D01*
X54745374Y-57465999D01*
X54788454Y-57523546D01*
X54788457Y-57523548D01*
X54788458Y-57523549D01*
X54903670Y-57609797D01*
X55038511Y-57660089D01*
X55038512Y-57660089D01*
X55038517Y-57660091D01*
X55098127Y-57666500D01*
X57193872Y-57666499D01*
X57198505Y-57666001D01*
X81696001Y-57666001D01*
X81696001Y-57870203D01*
X81698850Y-57900600D01*
X81698850Y-57900602D01*
X81743654Y-58028647D01*
X81824207Y-58137790D01*
X81824209Y-58137792D01*
X81933352Y-58218345D01*
X82061398Y-58263149D01*
X82091789Y-58265999D01*
X83045998Y-58265999D01*
X83046000Y-58265998D01*
X83046000Y-57666001D01*
X83246000Y-57666001D01*
X83246000Y-58265998D01*
X83246001Y-58265999D01*
X84200203Y-58265999D01*
X84230600Y-58263149D01*
X84230602Y-58263149D01*
X84358647Y-58218345D01*
X84467790Y-58137792D01*
X84467792Y-58137790D01*
X84548345Y-58028647D01*
X84593149Y-57900601D01*
X84595999Y-57870211D01*
X84596000Y-57870210D01*
X84596000Y-57666001D01*
X84595999Y-57666000D01*
X83246001Y-57666000D01*
X83246000Y-57666001D01*
X83046000Y-57666001D01*
X83045999Y-57666000D01*
X81696002Y-57666000D01*
X81696001Y-57666001D01*
X57198505Y-57666001D01*
X57253483Y-57660091D01*
X57320907Y-57634943D01*
X57388329Y-57609797D01*
X57388329Y-57609796D01*
X57388331Y-57609796D01*
X57503546Y-57523546D01*
X57589796Y-57408331D01*
X57640091Y-57273483D01*
X57646500Y-57213873D01*
X57646499Y-56618128D01*
X57640091Y-56558517D01*
X57640021Y-56558329D01*
X57589797Y-56423670D01*
X57503549Y-56308458D01*
X57503548Y-56308457D01*
X57503546Y-56308454D01*
X57503541Y-56308450D01*
X57388329Y-56222202D01*
X57253488Y-56171910D01*
X57253483Y-56171909D01*
X57253481Y-56171908D01*
X57253477Y-56171908D01*
X57222249Y-56168550D01*
X57193873Y-56165500D01*
X57193870Y-56165500D01*
X55098133Y-56165500D01*
X55098129Y-56165500D01*
X55098128Y-56165501D01*
X55090949Y-56166272D01*
X55038519Y-56171908D01*
X55038514Y-56171909D01*
X54903670Y-56222202D01*
X54788458Y-56308450D01*
X54788450Y-56308458D01*
X54702202Y-56423670D01*
X54651910Y-56558511D01*
X54651908Y-56558522D01*
X54645500Y-56618129D01*
X50896500Y-56618129D01*
X50896500Y-54396523D01*
X51254100Y-54396523D01*
X51254100Y-55434675D01*
X51256285Y-55468020D01*
X51256286Y-55468036D01*
X51260506Y-55500088D01*
X51260509Y-55500107D01*
X51267026Y-55532874D01*
X51267028Y-55532881D01*
X51270690Y-55546550D01*
X51293235Y-55602870D01*
X51321252Y-55654185D01*
X51321254Y-55654189D01*
X51339153Y-55682409D01*
X51339154Y-55682410D01*
X51412518Y-55749908D01*
X51472178Y-55786275D01*
X51539028Y-55814904D01*
X51552693Y-55818566D01*
X51585477Y-55825088D01*
X51617574Y-55829314D01*
X51650926Y-55831500D01*
X57413474Y-55831500D01*
X57446831Y-55829313D01*
X57478931Y-55825086D01*
X57511715Y-55818564D01*
X57511734Y-55818558D01*
X57511738Y-55818558D01*
X57515188Y-55817633D01*
X57525379Y-55814902D01*
X57581687Y-55792358D01*
X57626059Y-55768129D01*
X81645500Y-55768129D01*
X81645500Y-56363866D01*
X81645501Y-56363870D01*
X81651908Y-56423480D01*
X81651909Y-56423485D01*
X81702202Y-56558329D01*
X81788450Y-56673541D01*
X81788454Y-56673546D01*
X81903669Y-56759796D01*
X81903674Y-56759797D01*
X81904325Y-56760154D01*
X81904754Y-56760608D01*
X81909338Y-56764040D01*
X81908744Y-56764832D01*
X81946339Y-56804633D01*
X81954185Y-56865314D01*
X81924866Y-56919017D01*
X81915674Y-56926702D01*
X81824209Y-56994207D01*
X81824207Y-56994209D01*
X81743654Y-57103352D01*
X81698850Y-57231398D01*
X81696000Y-57261788D01*
X81696000Y-57465999D01*
X81696001Y-57466000D01*
X84595998Y-57466000D01*
X84595999Y-57465999D01*
X84595999Y-57261796D01*
X84593149Y-57231399D01*
X84593149Y-57231397D01*
X84548345Y-57103352D01*
X84467792Y-56994209D01*
X84467790Y-56994207D01*
X84376325Y-56926702D01*
X84340733Y-56876934D01*
X84341191Y-56815750D01*
X84377524Y-56766521D01*
X84387679Y-56760151D01*
X84388323Y-56759798D01*
X84388331Y-56759796D01*
X84503546Y-56673546D01*
X84589796Y-56558331D01*
X84640091Y-56423483D01*
X84646500Y-56363873D01*
X84646499Y-55768128D01*
X84640091Y-55708517D01*
X84630354Y-55682410D01*
X84589797Y-55573670D01*
X84503549Y-55458458D01*
X84503548Y-55458457D01*
X84503546Y-55458454D01*
X84471781Y-55434675D01*
X84388331Y-55372204D01*
X84387670Y-55371843D01*
X84387237Y-55371385D01*
X84382662Y-55367960D01*
X84383254Y-55367168D01*
X84345657Y-55327361D01*
X84337815Y-55266680D01*
X84367137Y-55212979D01*
X84376326Y-55205297D01*
X84467787Y-55137795D01*
X84467792Y-55137790D01*
X84548345Y-55028647D01*
X84593149Y-54900601D01*
X84595999Y-54870211D01*
X84596000Y-54870210D01*
X84596000Y-54666001D01*
X84595999Y-54666000D01*
X81696002Y-54666000D01*
X81696001Y-54666001D01*
X81696001Y-54870203D01*
X81698850Y-54900600D01*
X81698850Y-54900602D01*
X81743654Y-55028647D01*
X81824207Y-55137790D01*
X81824209Y-55137792D01*
X81915674Y-55205297D01*
X81951266Y-55255065D01*
X81950808Y-55316249D01*
X81914475Y-55365478D01*
X81904335Y-55371840D01*
X81903669Y-55372203D01*
X81788458Y-55458450D01*
X81788450Y-55458458D01*
X81702202Y-55573670D01*
X81651910Y-55708511D01*
X81651908Y-55708522D01*
X81645500Y-55768129D01*
X57626059Y-55768129D01*
X57632994Y-55764342D01*
X57661210Y-55746445D01*
X57728708Y-55673081D01*
X57765075Y-55613421D01*
X57793704Y-55546571D01*
X57797366Y-55532906D01*
X57803888Y-55500122D01*
X57808114Y-55468025D01*
X57810300Y-55434673D01*
X57810300Y-54396526D01*
X57808114Y-54363174D01*
X57803888Y-54331077D01*
X57797366Y-54298293D01*
X57793704Y-54284628D01*
X57784559Y-54261788D01*
X81696000Y-54261788D01*
X81696000Y-54465999D01*
X81696001Y-54466000D01*
X83045999Y-54466000D01*
X83046000Y-54465999D01*
X83046000Y-53866001D01*
X83246000Y-53866001D01*
X83246000Y-54465999D01*
X83246001Y-54466000D01*
X84595998Y-54466000D01*
X84595999Y-54465999D01*
X84595999Y-54261796D01*
X84593149Y-54231399D01*
X84593149Y-54231397D01*
X84548345Y-54103352D01*
X84467792Y-53994209D01*
X84467790Y-53994207D01*
X84358647Y-53913654D01*
X84230601Y-53868850D01*
X84200211Y-53866000D01*
X83246001Y-53866000D01*
X83246000Y-53866001D01*
X83046000Y-53866001D01*
X83045999Y-53866000D01*
X82091796Y-53866000D01*
X82061399Y-53868850D01*
X82061397Y-53868850D01*
X81933352Y-53913654D01*
X81824209Y-53994207D01*
X81824207Y-53994209D01*
X81743654Y-54103352D01*
X81698850Y-54231398D01*
X81696000Y-54261788D01*
X57784559Y-54261788D01*
X57771160Y-54228320D01*
X57771159Y-54228318D01*
X57771157Y-54228313D01*
X57743136Y-54176998D01*
X57725232Y-54148771D01*
X57725229Y-54148768D01*
X57651864Y-54081278D01*
X57592209Y-54044919D01*
X57592203Y-54044916D01*
X57592201Y-54044915D01*
X57525353Y-54016291D01*
X57525349Y-54016290D01*
X57525339Y-54016286D01*
X57511702Y-54012633D01*
X57511681Y-54012628D01*
X57478903Y-54006108D01*
X57448671Y-54002129D01*
X57446825Y-54001886D01*
X57446818Y-54001885D01*
X57446813Y-54001885D01*
X57413474Y-53999700D01*
X51650926Y-53999700D01*
X51650923Y-53999700D01*
X51617578Y-54001885D01*
X51617566Y-54001886D01*
X51585493Y-54006108D01*
X51552741Y-54012621D01*
X51552738Y-54012621D01*
X51552737Y-54012622D01*
X51546132Y-54014391D01*
X51546118Y-54014394D01*
X51546100Y-54014400D01*
X51546099Y-54014399D01*
X51539057Y-54016286D01*
X51539045Y-54016290D01*
X51482722Y-54038837D01*
X51482712Y-54038842D01*
X51431399Y-54066862D01*
X51403167Y-54084771D01*
X51335677Y-54158136D01*
X51299314Y-54217799D01*
X51299313Y-54217801D01*
X51270688Y-54284656D01*
X51270683Y-54284668D01*
X51267035Y-54298284D01*
X51267026Y-54298324D01*
X51260509Y-54331091D01*
X51260506Y-54331110D01*
X51256286Y-54363162D01*
X51256285Y-54363178D01*
X51254100Y-54396523D01*
X50896500Y-54396523D01*
X50896500Y-44277218D01*
X51885700Y-44277218D01*
X51885700Y-44620382D01*
X51896618Y-44695318D01*
X51953124Y-44810902D01*
X52031020Y-44888798D01*
X52058796Y-44943313D01*
X52049225Y-45003745D01*
X52031021Y-45028800D01*
X51953124Y-45106698D01*
X51953123Y-45106699D01*
X51926200Y-45161771D01*
X51896618Y-45222282D01*
X51885700Y-45297218D01*
X51885700Y-45640382D01*
X51896618Y-45715318D01*
X51953124Y-45830902D01*
X52026705Y-45904483D01*
X52054481Y-45958998D01*
X52055700Y-45974484D01*
X52055700Y-46001528D01*
X52055701Y-46001530D01*
X52082994Y-46103393D01*
X52135716Y-46194709D01*
X52135718Y-46194711D01*
X52135720Y-46194714D01*
X52249464Y-46308458D01*
X52343203Y-46402196D01*
X52370981Y-46456713D01*
X52372200Y-46472200D01*
X52372200Y-51119309D01*
X52372200Y-51224763D01*
X52385126Y-51273003D01*
X52399494Y-51326628D01*
X52452216Y-51417944D01*
X52452218Y-51417946D01*
X52452220Y-51417949D01*
X53409682Y-52375410D01*
X53409684Y-52375413D01*
X53484251Y-52449980D01*
X53484253Y-52449981D01*
X53575573Y-52502705D01*
X53575577Y-52502707D01*
X53677434Y-52530000D01*
X53677436Y-52530001D01*
X53677437Y-52530001D01*
X53788954Y-52530001D01*
X53788970Y-52530000D01*
X54402599Y-52530000D01*
X54460790Y-52548907D01*
X54472603Y-52558996D01*
X54616504Y-52702897D01*
X54644281Y-52757414D01*
X54645500Y-52772901D01*
X54645500Y-53213866D01*
X54645501Y-53213870D01*
X54651908Y-53273480D01*
X54651909Y-53273485D01*
X54702202Y-53408329D01*
X54788450Y-53523541D01*
X54788454Y-53523546D01*
X54788457Y-53523548D01*
X54788458Y-53523549D01*
X54903670Y-53609797D01*
X55038511Y-53660089D01*
X55038512Y-53660089D01*
X55038517Y-53660091D01*
X55098127Y-53666500D01*
X57193872Y-53666499D01*
X57253483Y-53660091D01*
X57320907Y-53634943D01*
X57388329Y-53609797D01*
X57388329Y-53609796D01*
X57388331Y-53609796D01*
X57503546Y-53523546D01*
X57589796Y-53408331D01*
X57640091Y-53273483D01*
X57646500Y-53213873D01*
X57646499Y-52618128D01*
X57640091Y-52558517D01*
X57629455Y-52530000D01*
X57589797Y-52423670D01*
X57503549Y-52308458D01*
X57503548Y-52308457D01*
X57503546Y-52308454D01*
X57503541Y-52308450D01*
X57388329Y-52222202D01*
X57253488Y-52171910D01*
X57253483Y-52171909D01*
X57253481Y-52171908D01*
X57253477Y-52171908D01*
X57222249Y-52168550D01*
X57193873Y-52165500D01*
X57193870Y-52165500D01*
X55252901Y-52165500D01*
X55194710Y-52146593D01*
X55182897Y-52136504D01*
X55032396Y-51986003D01*
X55004619Y-51931486D01*
X55014190Y-51871054D01*
X55032391Y-51846001D01*
X55182898Y-51695493D01*
X55237413Y-51667718D01*
X55252900Y-51666499D01*
X57193867Y-51666499D01*
X57193872Y-51666499D01*
X57253483Y-51660091D01*
X57320907Y-51634943D01*
X57388329Y-51609797D01*
X57388329Y-51609796D01*
X57388331Y-51609796D01*
X57503546Y-51523546D01*
X57589796Y-51408331D01*
X57640091Y-51273483D01*
X57646500Y-51213873D01*
X57646499Y-50618128D01*
X57640091Y-50558517D01*
X57640089Y-50558511D01*
X57589797Y-50423670D01*
X57503549Y-50308458D01*
X57503548Y-50308457D01*
X57503546Y-50308454D01*
X57503541Y-50308450D01*
X57388329Y-50222202D01*
X57253488Y-50171910D01*
X57253483Y-50171909D01*
X57253481Y-50171908D01*
X57253477Y-50171908D01*
X57222249Y-50168550D01*
X57193873Y-50165500D01*
X57193870Y-50165500D01*
X55098133Y-50165500D01*
X55098129Y-50165500D01*
X55098128Y-50165501D01*
X55090949Y-50166272D01*
X55038519Y-50171908D01*
X55038514Y-50171909D01*
X54903670Y-50222202D01*
X54788458Y-50308450D01*
X54788450Y-50308458D01*
X54702202Y-50423670D01*
X54651910Y-50558511D01*
X54651908Y-50558522D01*
X54645500Y-50618129D01*
X54645500Y-51059099D01*
X54626593Y-51117290D01*
X54616504Y-51129102D01*
X54472604Y-51273003D01*
X54418087Y-51300781D01*
X54402600Y-51302000D01*
X54113937Y-51302000D01*
X54055746Y-51283093D01*
X54043933Y-51273004D01*
X53629196Y-50858267D01*
X53601419Y-50803750D01*
X53600200Y-50788263D01*
X53600200Y-49016001D01*
X54696001Y-49016001D01*
X54696001Y-49220203D01*
X54698850Y-49250600D01*
X54698850Y-49250602D01*
X54743654Y-49378647D01*
X54824207Y-49487790D01*
X54824209Y-49487792D01*
X54933352Y-49568345D01*
X55061398Y-49613149D01*
X55091789Y-49615999D01*
X56045998Y-49615999D01*
X56046000Y-49615998D01*
X56046000Y-49016001D01*
X56246000Y-49016001D01*
X56246000Y-49615998D01*
X56246001Y-49615999D01*
X57200203Y-49615999D01*
X57230600Y-49613149D01*
X57230602Y-49613149D01*
X57358647Y-49568345D01*
X57467790Y-49487792D01*
X57467792Y-49487790D01*
X57548345Y-49378647D01*
X57552770Y-49366001D01*
X81696001Y-49366001D01*
X81696001Y-49570203D01*
X81698850Y-49600600D01*
X81698850Y-49600602D01*
X81743654Y-49728647D01*
X81824207Y-49837790D01*
X81824209Y-49837792D01*
X81933352Y-49918345D01*
X82061398Y-49963149D01*
X82091789Y-49965999D01*
X83045998Y-49965999D01*
X83046000Y-49965998D01*
X83046000Y-49366001D01*
X83246000Y-49366001D01*
X83246000Y-49965998D01*
X83246001Y-49965999D01*
X84200203Y-49965999D01*
X84230600Y-49963149D01*
X84230602Y-49963149D01*
X84358647Y-49918345D01*
X84467790Y-49837792D01*
X84467792Y-49837790D01*
X84548345Y-49728647D01*
X84593149Y-49600601D01*
X84595999Y-49570211D01*
X84596000Y-49570210D01*
X84596000Y-49366001D01*
X84595999Y-49366000D01*
X83246001Y-49366000D01*
X83246000Y-49366001D01*
X83046000Y-49366001D01*
X83045999Y-49366000D01*
X81696002Y-49366000D01*
X81696001Y-49366001D01*
X57552770Y-49366001D01*
X57593149Y-49250601D01*
X57595999Y-49220211D01*
X57596000Y-49220210D01*
X57596000Y-49016001D01*
X57595999Y-49016000D01*
X56246001Y-49016000D01*
X56246000Y-49016001D01*
X56046000Y-49016001D01*
X56045999Y-49016000D01*
X54696002Y-49016000D01*
X54696001Y-49016001D01*
X53600200Y-49016001D01*
X53600200Y-48611788D01*
X54696000Y-48611788D01*
X54696000Y-48815999D01*
X54696001Y-48816000D01*
X56045999Y-48816000D01*
X56046000Y-48815999D01*
X56046000Y-48216001D01*
X56246000Y-48216001D01*
X56246000Y-48815999D01*
X56246001Y-48816000D01*
X57595998Y-48816000D01*
X57595999Y-48815999D01*
X57595999Y-48611796D01*
X57593149Y-48581399D01*
X57593149Y-48581397D01*
X57548345Y-48453352D01*
X57467792Y-48344209D01*
X57467790Y-48344207D01*
X57358647Y-48263654D01*
X57230601Y-48218850D01*
X57200211Y-48216000D01*
X56246001Y-48216000D01*
X56246000Y-48216001D01*
X56046000Y-48216001D01*
X56045999Y-48216000D01*
X55091796Y-48216000D01*
X55061399Y-48218850D01*
X55061397Y-48218850D01*
X54933352Y-48263654D01*
X54824209Y-48344207D01*
X54824207Y-48344209D01*
X54743654Y-48453352D01*
X54698850Y-48581398D01*
X54696000Y-48611788D01*
X53600200Y-48611788D01*
X53600200Y-46618129D01*
X54645500Y-46618129D01*
X54645500Y-47213866D01*
X54645501Y-47213870D01*
X54651908Y-47273480D01*
X54651909Y-47273485D01*
X54702202Y-47408329D01*
X54788450Y-47523541D01*
X54788454Y-47523546D01*
X54788457Y-47523548D01*
X54788458Y-47523549D01*
X54903670Y-47609797D01*
X55038511Y-47660089D01*
X55038512Y-47660089D01*
X55038517Y-47660091D01*
X55098127Y-47666500D01*
X57193872Y-47666499D01*
X57253483Y-47660091D01*
X57320907Y-47634943D01*
X57388329Y-47609797D01*
X57388329Y-47609796D01*
X57388331Y-47609796D01*
X57503546Y-47523546D01*
X57545031Y-47468129D01*
X81645500Y-47468129D01*
X81645500Y-48063866D01*
X81645501Y-48063870D01*
X81651908Y-48123480D01*
X81651909Y-48123485D01*
X81702202Y-48258329D01*
X81766492Y-48344209D01*
X81788454Y-48373546D01*
X81903669Y-48459796D01*
X81903674Y-48459797D01*
X81904325Y-48460154D01*
X81904754Y-48460608D01*
X81909338Y-48464040D01*
X81908744Y-48464832D01*
X81946339Y-48504633D01*
X81954185Y-48565314D01*
X81924866Y-48619017D01*
X81915674Y-48626702D01*
X81824209Y-48694207D01*
X81824207Y-48694209D01*
X81743654Y-48803352D01*
X81698850Y-48931398D01*
X81696000Y-48961788D01*
X81696000Y-49165999D01*
X81696001Y-49166000D01*
X84595998Y-49166000D01*
X84595999Y-49165999D01*
X84595999Y-48961796D01*
X84593149Y-48931399D01*
X84593149Y-48931397D01*
X84548345Y-48803352D01*
X84467792Y-48694209D01*
X84467790Y-48694207D01*
X84376325Y-48626702D01*
X84340733Y-48576934D01*
X84341191Y-48515750D01*
X84377524Y-48466521D01*
X84387679Y-48460151D01*
X84388323Y-48459798D01*
X84388331Y-48459796D01*
X84503546Y-48373546D01*
X84589796Y-48258331D01*
X84604522Y-48218850D01*
X84640089Y-48123488D01*
X84640090Y-48123485D01*
X84640091Y-48123483D01*
X84646500Y-48063873D01*
X84646499Y-47468128D01*
X84640091Y-47408517D01*
X84640021Y-47408329D01*
X84589797Y-47273670D01*
X84503549Y-47158458D01*
X84503548Y-47158457D01*
X84503546Y-47158454D01*
X84388331Y-47072204D01*
X84387670Y-47071843D01*
X84387237Y-47071385D01*
X84382662Y-47067960D01*
X84383254Y-47067168D01*
X84345657Y-47027361D01*
X84337815Y-46966680D01*
X84367137Y-46912979D01*
X84376326Y-46905297D01*
X84467787Y-46837795D01*
X84467792Y-46837790D01*
X84548345Y-46728647D01*
X84593149Y-46600601D01*
X84595999Y-46570211D01*
X84596000Y-46570210D01*
X84596000Y-46366001D01*
X84595999Y-46366000D01*
X81696002Y-46366000D01*
X81696001Y-46366001D01*
X81696001Y-46570203D01*
X81698850Y-46600600D01*
X81698850Y-46600602D01*
X81743654Y-46728647D01*
X81824207Y-46837790D01*
X81824209Y-46837792D01*
X81915674Y-46905297D01*
X81951266Y-46955065D01*
X81950808Y-47016249D01*
X81914475Y-47065478D01*
X81904335Y-47071840D01*
X81903669Y-47072203D01*
X81788458Y-47158450D01*
X81788450Y-47158458D01*
X81702202Y-47273670D01*
X81651910Y-47408511D01*
X81651908Y-47408522D01*
X81645500Y-47468129D01*
X57545031Y-47468129D01*
X57589796Y-47408331D01*
X57640091Y-47273483D01*
X57646500Y-47213873D01*
X57646499Y-46618128D01*
X57640091Y-46558517D01*
X57640089Y-46558511D01*
X57589797Y-46423670D01*
X57503549Y-46308458D01*
X57503548Y-46308457D01*
X57503546Y-46308454D01*
X57503541Y-46308450D01*
X57388329Y-46222202D01*
X57253488Y-46171910D01*
X57253483Y-46171909D01*
X57253481Y-46171908D01*
X57253477Y-46171908D01*
X57222249Y-46168550D01*
X57193873Y-46165500D01*
X57193870Y-46165500D01*
X56595500Y-46165500D01*
X56537309Y-46146593D01*
X56501345Y-46097093D01*
X56496500Y-46066500D01*
X56496500Y-45961788D01*
X81696000Y-45961788D01*
X81696000Y-46165999D01*
X81696001Y-46166000D01*
X83045999Y-46166000D01*
X83046000Y-46165999D01*
X83046000Y-45566001D01*
X83246000Y-45566001D01*
X83246000Y-46165999D01*
X83246001Y-46166000D01*
X84595998Y-46166000D01*
X84595999Y-46165999D01*
X84595999Y-45961796D01*
X84593149Y-45931399D01*
X84593149Y-45931397D01*
X84548345Y-45803352D01*
X84467792Y-45694209D01*
X84467790Y-45694207D01*
X84358647Y-45613654D01*
X84230601Y-45568850D01*
X84200211Y-45566000D01*
X83246001Y-45566000D01*
X83246000Y-45566001D01*
X83046000Y-45566001D01*
X83045999Y-45566000D01*
X82091796Y-45566000D01*
X82061399Y-45568850D01*
X82061397Y-45568850D01*
X81933352Y-45613654D01*
X81824209Y-45694207D01*
X81824207Y-45694209D01*
X81743654Y-45803352D01*
X81698850Y-45931398D01*
X81696000Y-45961788D01*
X56496500Y-45961788D01*
X56496500Y-44752190D01*
X56515407Y-44693999D01*
X56525496Y-44682186D01*
X57862186Y-43345496D01*
X57916703Y-43317719D01*
X57932190Y-43316500D01*
X85779642Y-43316500D01*
X85779644Y-43316500D01*
X85868788Y-43292614D01*
X85948712Y-43246470D01*
X86724686Y-42470496D01*
X86779203Y-42442719D01*
X86794690Y-42441500D01*
X87247126Y-42441500D01*
X87247130Y-42441500D01*
X87303022Y-42435491D01*
X87346918Y-42419118D01*
X87429448Y-42388337D01*
X87429448Y-42388336D01*
X87429450Y-42388336D01*
X87537472Y-42307472D01*
X87618336Y-42199450D01*
X87665491Y-42073022D01*
X87671500Y-42017130D01*
X87671500Y-41489870D01*
X87665491Y-41433978D01*
X87665489Y-41433972D01*
X87618337Y-41307551D01*
X87537474Y-41199531D01*
X87537472Y-41199528D01*
X87492684Y-41166000D01*
X87429448Y-41118662D01*
X87303027Y-41071510D01*
X87303022Y-41071509D01*
X87303020Y-41071508D01*
X87303016Y-41071508D01*
X87277744Y-41068791D01*
X87247130Y-41065500D01*
X86644870Y-41065500D01*
X86617943Y-41068394D01*
X86588983Y-41071508D01*
X86588972Y-41071510D01*
X86462551Y-41118662D01*
X86354531Y-41199525D01*
X86354525Y-41199531D01*
X86273662Y-41307551D01*
X86226510Y-41433972D01*
X86226508Y-41433983D01*
X86220500Y-41489873D01*
X86220500Y-41942310D01*
X86201593Y-42000501D01*
X86191504Y-42012314D01*
X85617314Y-42586504D01*
X85562797Y-42614281D01*
X85547310Y-42615500D01*
X57699856Y-42615500D01*
X57610712Y-42639386D01*
X57530788Y-42685530D01*
X55865530Y-44350788D01*
X55819386Y-44430712D01*
X55795500Y-44519857D01*
X55795500Y-46066500D01*
X55776593Y-46124691D01*
X55727093Y-46160655D01*
X55696500Y-46165500D01*
X55098133Y-46165500D01*
X55098129Y-46165500D01*
X55098128Y-46165501D01*
X55093486Y-46166000D01*
X55038519Y-46171908D01*
X55038514Y-46171909D01*
X54903670Y-46222202D01*
X54788458Y-46308450D01*
X54788450Y-46308458D01*
X54702202Y-46423670D01*
X54651910Y-46558511D01*
X54651908Y-46558522D01*
X54645500Y-46618129D01*
X53600200Y-46618129D01*
X53600200Y-46472201D01*
X53619107Y-46414010D01*
X53629196Y-46402197D01*
X53722943Y-46308450D01*
X53762111Y-46269282D01*
X53762113Y-46269281D01*
X53836680Y-46194714D01*
X53889407Y-46103388D01*
X53916701Y-46001528D01*
X53916701Y-45974484D01*
X53935608Y-45916293D01*
X53945691Y-45904486D01*
X54019276Y-45830902D01*
X54075782Y-45715318D01*
X54086700Y-45640382D01*
X54086700Y-45297218D01*
X54075782Y-45222282D01*
X54019276Y-45106698D01*
X53941379Y-45028801D01*
X53913604Y-44974287D01*
X53923175Y-44913855D01*
X53941378Y-44888799D01*
X54019276Y-44810902D01*
X54075782Y-44695318D01*
X54086700Y-44620382D01*
X54086700Y-44277218D01*
X54075782Y-44202282D01*
X54019276Y-44086698D01*
X53945695Y-44013117D01*
X53917920Y-43958603D01*
X53916701Y-43943116D01*
X53916701Y-43916074D01*
X53916701Y-43916073D01*
X53916701Y-43916072D01*
X53889407Y-43814212D01*
X53885177Y-43806886D01*
X53885176Y-43806883D01*
X53836680Y-43722886D01*
X53762113Y-43648318D01*
X53762113Y-43648319D01*
X53629196Y-43515402D01*
X53601419Y-43460885D01*
X53600200Y-43445398D01*
X53600200Y-42278936D01*
X53619107Y-42220745D01*
X53629190Y-42208938D01*
X54913780Y-40924349D01*
X54934550Y-40888375D01*
X54966505Y-40833028D01*
X54966505Y-40833026D01*
X54966507Y-40833024D01*
X54993800Y-40731163D01*
X54993800Y-40625709D01*
X54993800Y-40288900D01*
X55012707Y-40230709D01*
X55022790Y-40218902D01*
X55650280Y-39591413D01*
X55677848Y-39543664D01*
X55703005Y-39500092D01*
X55703005Y-39500090D01*
X55703007Y-39500088D01*
X55730300Y-39398227D01*
X55730300Y-39292773D01*
X55730300Y-39086199D01*
X55749207Y-39028008D01*
X55759290Y-39016201D01*
X55807850Y-38967642D01*
X55865446Y-38854604D01*
X55880300Y-38760819D01*
X55880299Y-37672782D01*
X55880299Y-37672781D01*
X55880299Y-37672778D01*
X55880298Y-37672776D01*
X55865447Y-37579000D01*
X55865446Y-37578995D01*
X55839689Y-37528446D01*
X55830117Y-37468014D01*
X55857894Y-37413497D01*
X55912410Y-37385719D01*
X55927898Y-37384500D01*
X59444142Y-37384500D01*
X59444144Y-37384500D01*
X59533288Y-37360614D01*
X59533291Y-37360612D01*
X59544717Y-37354016D01*
X59563069Y-37343419D01*
X59613212Y-37314470D01*
X60149576Y-36778104D01*
X60204091Y-36750329D01*
X60264523Y-36759900D01*
X60289578Y-36778103D01*
X60967985Y-37456510D01*
X61068991Y-37514825D01*
X61093515Y-37528984D01*
X61233525Y-37566500D01*
X63646500Y-37566500D01*
X63704691Y-37585407D01*
X63740655Y-37634907D01*
X63745500Y-37665500D01*
X63745500Y-40099124D01*
X63726593Y-40157315D01*
X63725504Y-40158784D01*
X63706332Y-40184171D01*
X63706323Y-40184186D01*
X63615419Y-40366747D01*
X63615418Y-40366750D01*
X63559603Y-40562917D01*
X63540785Y-40766000D01*
X63559603Y-40969083D01*
X63615418Y-41165250D01*
X63706327Y-41347821D01*
X63829236Y-41510579D01*
X63979959Y-41647981D01*
X64153363Y-41755348D01*
X64343544Y-41829024D01*
X64544024Y-41866500D01*
X64747976Y-41866500D01*
X64948456Y-41829024D01*
X65138637Y-41755348D01*
X65312041Y-41647981D01*
X65462764Y-41510579D01*
X65585673Y-41347821D01*
X65676582Y-41165250D01*
X65732397Y-40969083D01*
X65751215Y-40766000D01*
X65741949Y-40665999D01*
X71000767Y-40665999D01*
X71000768Y-40666000D01*
X71555157Y-40666000D01*
X71546000Y-40700174D01*
X71546000Y-40831826D01*
X71555157Y-40866000D01*
X71000767Y-40866000D01*
X71011190Y-40971831D01*
X71011191Y-40971836D01*
X71071232Y-41169762D01*
X71071234Y-41169767D01*
X71168724Y-41352160D01*
X71168731Y-41352170D01*
X71299940Y-41512050D01*
X71299949Y-41512059D01*
X71459829Y-41643268D01*
X71459839Y-41643275D01*
X71642232Y-41740765D01*
X71642237Y-41740767D01*
X71840166Y-41800808D01*
X71945998Y-41811231D01*
X71946000Y-41811230D01*
X71946000Y-41256842D01*
X71980174Y-41266000D01*
X72111826Y-41266000D01*
X72146000Y-41256842D01*
X72146000Y-41811230D01*
X72146001Y-41811231D01*
X72251833Y-41800808D01*
X72449762Y-41740767D01*
X72449767Y-41740765D01*
X72632160Y-41643275D01*
X72632170Y-41643268D01*
X72792050Y-41512059D01*
X72792059Y-41512050D01*
X72923268Y-41352170D01*
X72923275Y-41352160D01*
X73020765Y-41169767D01*
X73020767Y-41169762D01*
X73021909Y-41165999D01*
X78437150Y-41165999D01*
X78437150Y-41166000D01*
X78456069Y-41309708D01*
X78456070Y-41309709D01*
X78507540Y-41433972D01*
X78511539Y-41443625D01*
X78599779Y-41558621D01*
X78714775Y-41646861D01*
X78848691Y-41702330D01*
X78992400Y-41721250D01*
X79136109Y-41702330D01*
X79270025Y-41646861D01*
X79370898Y-41569457D01*
X79428573Y-41549034D01*
X79431165Y-41549000D01*
X84490315Y-41549000D01*
X84548506Y-41567907D01*
X84560312Y-41577990D01*
X84633898Y-41651576D01*
X84749482Y-41708082D01*
X84824418Y-41719000D01*
X84824421Y-41719000D01*
X85267578Y-41719000D01*
X85267582Y-41719000D01*
X85342518Y-41708082D01*
X85458102Y-41651576D01*
X85549076Y-41560602D01*
X85605582Y-41445018D01*
X85616500Y-41370082D01*
X85616500Y-41026918D01*
X85605582Y-40951982D01*
X85549076Y-40836398D01*
X85471179Y-40758501D01*
X85443404Y-40703987D01*
X85452975Y-40643555D01*
X85471178Y-40618499D01*
X85531683Y-40557994D01*
X85586198Y-40530219D01*
X85601685Y-40529000D01*
X86169326Y-40529000D01*
X86227517Y-40547907D01*
X86262084Y-40593404D01*
X86273662Y-40624448D01*
X86319095Y-40685139D01*
X86354528Y-40732472D01*
X86354531Y-40732474D01*
X86462551Y-40813337D01*
X86588972Y-40860489D01*
X86588973Y-40860489D01*
X86588978Y-40860491D01*
X86644870Y-40866500D01*
X86644874Y-40866500D01*
X87247126Y-40866500D01*
X87247130Y-40866500D01*
X87303022Y-40860491D01*
X87346918Y-40844118D01*
X87429448Y-40813337D01*
X87429448Y-40813336D01*
X87429450Y-40813336D01*
X87537472Y-40732472D01*
X87618336Y-40624450D01*
X87665491Y-40498022D01*
X87671500Y-40442130D01*
X87671500Y-39914870D01*
X87665491Y-39858978D01*
X87640224Y-39791234D01*
X87618337Y-39732551D01*
X87537474Y-39624531D01*
X87537472Y-39624528D01*
X87537468Y-39624525D01*
X87429448Y-39543662D01*
X87303027Y-39496510D01*
X87303022Y-39496509D01*
X87303020Y-39496508D01*
X87303016Y-39496508D01*
X87277744Y-39493791D01*
X87247130Y-39490500D01*
X86644870Y-39490500D01*
X86617943Y-39493394D01*
X86588983Y-39496508D01*
X86588972Y-39496510D01*
X86462551Y-39543662D01*
X86354531Y-39624525D01*
X86354525Y-39624531D01*
X86273662Y-39732551D01*
X86262084Y-39763596D01*
X86224034Y-39811511D01*
X86169326Y-39828000D01*
X85601685Y-39828000D01*
X85543494Y-39809093D01*
X85531687Y-39799009D01*
X85458102Y-39725424D01*
X85342518Y-39668918D01*
X85267582Y-39658000D01*
X84824418Y-39658000D01*
X84749482Y-39668918D01*
X84633899Y-39725423D01*
X84542923Y-39816399D01*
X84522105Y-39858983D01*
X84486418Y-39931982D01*
X84475500Y-40006918D01*
X84475500Y-40350082D01*
X84486418Y-40425018D01*
X84542924Y-40540602D01*
X84620820Y-40618498D01*
X84648596Y-40673013D01*
X84639025Y-40733445D01*
X84620821Y-40758500D01*
X84560316Y-40819005D01*
X84505802Y-40846781D01*
X84490315Y-40848000D01*
X79491101Y-40848000D01*
X79432910Y-40829093D01*
X79412559Y-40809267D01*
X79385025Y-40773384D01*
X79385024Y-40773383D01*
X79385021Y-40773379D01*
X79270025Y-40685139D01*
X79270021Y-40685137D01*
X79136109Y-40629670D01*
X79136108Y-40629669D01*
X78992400Y-40610750D01*
X78848691Y-40629669D01*
X78848690Y-40629670D01*
X78714778Y-40685137D01*
X78714774Y-40685139D01*
X78599781Y-40773377D01*
X78599777Y-40773381D01*
X78511539Y-40888374D01*
X78511537Y-40888378D01*
X78456070Y-41022290D01*
X78456069Y-41022291D01*
X78437150Y-41165999D01*
X73021909Y-41165999D01*
X73080808Y-40971836D01*
X73080809Y-40971831D01*
X73091232Y-40866000D01*
X72536843Y-40866000D01*
X72546000Y-40831826D01*
X72546000Y-40700174D01*
X72536843Y-40666000D01*
X73091232Y-40666000D01*
X73091232Y-40665999D01*
X73080809Y-40560168D01*
X73080808Y-40560163D01*
X73020767Y-40362237D01*
X73020765Y-40362232D01*
X72923275Y-40179839D01*
X72923268Y-40179829D01*
X72792059Y-40019949D01*
X72792050Y-40019940D01*
X72632170Y-39888731D01*
X72632160Y-39888724D01*
X72449767Y-39791234D01*
X72449762Y-39791232D01*
X72251836Y-39731191D01*
X72251831Y-39731190D01*
X72146000Y-39720767D01*
X72146000Y-40275157D01*
X72111826Y-40266000D01*
X71980174Y-40266000D01*
X71946000Y-40275157D01*
X71946000Y-39720767D01*
X71945999Y-39720767D01*
X71840168Y-39731190D01*
X71840163Y-39731191D01*
X71642237Y-39791232D01*
X71642232Y-39791234D01*
X71459839Y-39888724D01*
X71459829Y-39888731D01*
X71299949Y-40019940D01*
X71299940Y-40019949D01*
X71168731Y-40179829D01*
X71168724Y-40179839D01*
X71071234Y-40362232D01*
X71071232Y-40362237D01*
X71011191Y-40560163D01*
X71011190Y-40560168D01*
X71000767Y-40665999D01*
X65741949Y-40665999D01*
X65732397Y-40562917D01*
X65676582Y-40366750D01*
X65585673Y-40184179D01*
X65566496Y-40158784D01*
X65546517Y-40100953D01*
X65546500Y-40099124D01*
X65546500Y-36919335D01*
X65546499Y-36919321D01*
X65546499Y-35518133D01*
X65546499Y-35518128D01*
X65540091Y-35458517D01*
X65540089Y-35458511D01*
X65494889Y-35337323D01*
X68060500Y-35337323D01*
X68060500Y-38714675D01*
X68062685Y-38748020D01*
X68062686Y-38748036D01*
X68066906Y-38780088D01*
X68066909Y-38780107D01*
X68073426Y-38812874D01*
X68073428Y-38812881D01*
X68077090Y-38826550D01*
X68099635Y-38882870D01*
X68127652Y-38934185D01*
X68127654Y-38934189D01*
X68143757Y-38959577D01*
X68145554Y-38962410D01*
X68218918Y-39029908D01*
X68278578Y-39066275D01*
X68345428Y-39094904D01*
X68359093Y-39098566D01*
X68391877Y-39105088D01*
X68423974Y-39109314D01*
X68457326Y-39111500D01*
X69734674Y-39111500D01*
X69768031Y-39109313D01*
X69800131Y-39105086D01*
X69832915Y-39098564D01*
X69832934Y-39098558D01*
X69832938Y-39098558D01*
X69836388Y-39097633D01*
X69846579Y-39094902D01*
X69902887Y-39072358D01*
X69954194Y-39044342D01*
X69982410Y-39026445D01*
X70049908Y-38953081D01*
X70086275Y-38893421D01*
X70114904Y-38826571D01*
X70118566Y-38812906D01*
X70125088Y-38780122D01*
X70129314Y-38748025D01*
X70131500Y-38714673D01*
X70131500Y-37280500D01*
X70150407Y-37222309D01*
X70199907Y-37186345D01*
X70230500Y-37181500D01*
X70651500Y-37181500D01*
X70709691Y-37200407D01*
X70745655Y-37249907D01*
X70750500Y-37280500D01*
X70750500Y-38654675D01*
X70752685Y-38688020D01*
X70752686Y-38688036D01*
X70756906Y-38720088D01*
X70756909Y-38720107D01*
X70763426Y-38752874D01*
X70763428Y-38752881D01*
X70767090Y-38766550D01*
X70772517Y-38780107D01*
X70785633Y-38812874D01*
X70789635Y-38822870D01*
X70817652Y-38874185D01*
X70817654Y-38874189D01*
X70835553Y-38902409D01*
X70835554Y-38902410D01*
X70908918Y-38969908D01*
X70968578Y-39006275D01*
X71035428Y-39034904D01*
X71049093Y-39038566D01*
X71081877Y-39045088D01*
X71113974Y-39049314D01*
X71147326Y-39051500D01*
X72544674Y-39051500D01*
X72578031Y-39049313D01*
X72610131Y-39045086D01*
X72642915Y-39038564D01*
X72642934Y-39038558D01*
X72642938Y-39038558D01*
X72646388Y-39037633D01*
X72656579Y-39034902D01*
X72712887Y-39012358D01*
X72764194Y-38984342D01*
X72792410Y-38966445D01*
X72859908Y-38893081D01*
X72896275Y-38833421D01*
X72924904Y-38766571D01*
X72928566Y-38752906D01*
X72935088Y-38720122D01*
X72939314Y-38688025D01*
X72941500Y-38654673D01*
X72941500Y-38596001D01*
X75170401Y-38596001D01*
X75170401Y-38670260D01*
X75176822Y-38719041D01*
X75226749Y-38826109D01*
X75310290Y-38909650D01*
X75417352Y-38959574D01*
X75417359Y-38959576D01*
X75466145Y-38965999D01*
X75590400Y-38965999D01*
X75590400Y-38596001D01*
X75790400Y-38596001D01*
X75790400Y-38965998D01*
X75790401Y-38965999D01*
X75914651Y-38965999D01*
X75914660Y-38965998D01*
X75963441Y-38959577D01*
X76070509Y-38909650D01*
X76154050Y-38826109D01*
X76203974Y-38719047D01*
X76203976Y-38719040D01*
X76210400Y-38670253D01*
X76210400Y-38596001D01*
X76210399Y-38596000D01*
X75790401Y-38596000D01*
X75790400Y-38596001D01*
X75590400Y-38596001D01*
X75590399Y-38596000D01*
X75170402Y-38596000D01*
X75170401Y-38596001D01*
X72941500Y-38596001D01*
X72941500Y-37559789D01*
X72960407Y-37501598D01*
X73009907Y-37465634D01*
X73071093Y-37465634D01*
X73110501Y-37489783D01*
X73377188Y-37756470D01*
X73377190Y-37756471D01*
X73448584Y-37797691D01*
X73448590Y-37797694D01*
X73448594Y-37797696D01*
X73457112Y-37802614D01*
X73546256Y-37826500D01*
X75134715Y-37826500D01*
X75192906Y-37845407D01*
X75204712Y-37855490D01*
X75278298Y-37929076D01*
X75278299Y-37929076D01*
X75278300Y-37929077D01*
X75284975Y-37933843D01*
X75284232Y-37934883D01*
X75322135Y-37971553D01*
X75332705Y-38031818D01*
X75305832Y-38086787D01*
X75304685Y-38087953D01*
X75226751Y-38165887D01*
X75226749Y-38165890D01*
X75176825Y-38272952D01*
X75176823Y-38272959D01*
X75170400Y-38321746D01*
X75170400Y-38395999D01*
X75170401Y-38396000D01*
X76210398Y-38396000D01*
X76210399Y-38395999D01*
X76210399Y-38321749D01*
X76210398Y-38321739D01*
X76203977Y-38272958D01*
X76154050Y-38165890D01*
X76076114Y-38087954D01*
X76048337Y-38033437D01*
X76057908Y-37973005D01*
X76096343Y-37934569D01*
X76095825Y-37933843D01*
X76100178Y-37930734D01*
X76101173Y-37929740D01*
X76102496Y-37929079D01*
X76102496Y-37929078D01*
X76102502Y-37929076D01*
X76193476Y-37838102D01*
X76249982Y-37722518D01*
X76260900Y-37647582D01*
X76260900Y-37304418D01*
X76249982Y-37229482D01*
X76193476Y-37113898D01*
X76102502Y-37022924D01*
X75986918Y-36966418D01*
X75911982Y-36955500D01*
X75468818Y-36955500D01*
X75393882Y-36966418D01*
X75278299Y-37022923D01*
X75278298Y-37022923D01*
X75278298Y-37022924D01*
X75204716Y-37096505D01*
X75150202Y-37124281D01*
X75134715Y-37125500D01*
X73778590Y-37125500D01*
X73720399Y-37106593D01*
X73708586Y-37096504D01*
X73660240Y-37048158D01*
X73632463Y-36993641D01*
X73642034Y-36933209D01*
X73660239Y-36908152D01*
X73684050Y-36884342D01*
X73741646Y-36771304D01*
X73756500Y-36677519D01*
X73756499Y-35439482D01*
X73756499Y-35439481D01*
X73756499Y-35439478D01*
X73756498Y-35439476D01*
X73741647Y-35345700D01*
X73741646Y-35345698D01*
X73741646Y-35345696D01*
X73684050Y-35232658D01*
X73667393Y-35216001D01*
X75271001Y-35216001D01*
X75271001Y-35820203D01*
X75273850Y-35850600D01*
X75273850Y-35850602D01*
X75318654Y-35978647D01*
X75399207Y-36087790D01*
X75399209Y-36087792D01*
X75508352Y-36168345D01*
X75636398Y-36213149D01*
X75666789Y-36215999D01*
X75945998Y-36215999D01*
X75946000Y-36215998D01*
X75946000Y-35216001D01*
X76146000Y-35216001D01*
X76146000Y-36215998D01*
X76146001Y-36215999D01*
X76425203Y-36215999D01*
X76455600Y-36213149D01*
X76455602Y-36213149D01*
X76583647Y-36168345D01*
X76692790Y-36087792D01*
X76692792Y-36087790D01*
X76773345Y-35978647D01*
X76818149Y-35850601D01*
X76820999Y-35820211D01*
X76821000Y-35820210D01*
X76821000Y-35216001D01*
X76820999Y-35216000D01*
X76146001Y-35216000D01*
X76146000Y-35216001D01*
X75946000Y-35216001D01*
X75945999Y-35216000D01*
X75271002Y-35216000D01*
X75271001Y-35216001D01*
X73667393Y-35216001D01*
X73594342Y-35142950D01*
X73481304Y-35085354D01*
X73481305Y-35085354D01*
X73387522Y-35070500D01*
X73024479Y-35070500D01*
X73024476Y-35070501D01*
X72930700Y-35085352D01*
X72930695Y-35085354D01*
X72817659Y-35142949D01*
X72727949Y-35232659D01*
X72670354Y-35345695D01*
X72655500Y-35439478D01*
X72655500Y-36677521D01*
X72655501Y-36677523D01*
X72658563Y-36696858D01*
X72648991Y-36757290D01*
X72605725Y-36800554D01*
X72554310Y-36811131D01*
X72544682Y-36810500D01*
X72544674Y-36810500D01*
X72090500Y-36810500D01*
X72032309Y-36791593D01*
X71996345Y-36742093D01*
X71991500Y-36711500D01*
X71991500Y-35337326D01*
X71989314Y-35303974D01*
X71985088Y-35271877D01*
X71978566Y-35239093D01*
X71974904Y-35225428D01*
X71970927Y-35215496D01*
X71952360Y-35169120D01*
X71952359Y-35169118D01*
X71952357Y-35169113D01*
X71924336Y-35117798D01*
X71906432Y-35089571D01*
X71904673Y-35087953D01*
X71833064Y-35022078D01*
X71773409Y-34985719D01*
X71773403Y-34985716D01*
X71773401Y-34985715D01*
X71706553Y-34957091D01*
X71706549Y-34957090D01*
X71706539Y-34957086D01*
X71692902Y-34953433D01*
X71692881Y-34953428D01*
X71660103Y-34946908D01*
X71629871Y-34942929D01*
X71628025Y-34942686D01*
X71628018Y-34942685D01*
X71628013Y-34942685D01*
X71594674Y-34940500D01*
X68457326Y-34940500D01*
X68457323Y-34940500D01*
X68423978Y-34942685D01*
X68423966Y-34942686D01*
X68391893Y-34946908D01*
X68359141Y-34953421D01*
X68359138Y-34953421D01*
X68359137Y-34953422D01*
X68352532Y-34955191D01*
X68352518Y-34955194D01*
X68352500Y-34955200D01*
X68352499Y-34955199D01*
X68345457Y-34957086D01*
X68345445Y-34957090D01*
X68289122Y-34979637D01*
X68289112Y-34979642D01*
X68237799Y-35007662D01*
X68209567Y-35025571D01*
X68142077Y-35098936D01*
X68105714Y-35158599D01*
X68105713Y-35158601D01*
X68095956Y-35181390D01*
X68078926Y-35221164D01*
X68077088Y-35225456D01*
X68077083Y-35225468D01*
X68073435Y-35239084D01*
X68073426Y-35239124D01*
X68066909Y-35271891D01*
X68066906Y-35271910D01*
X68062686Y-35303962D01*
X68062685Y-35303978D01*
X68060500Y-35337323D01*
X65494889Y-35337323D01*
X65489797Y-35323670D01*
X65403549Y-35208458D01*
X65403548Y-35208457D01*
X65403546Y-35208454D01*
X65399476Y-35205407D01*
X65288333Y-35122204D01*
X65260902Y-35111973D01*
X65212988Y-35073921D01*
X65196500Y-35019215D01*
X65196500Y-34411788D01*
X75271000Y-34411788D01*
X75271000Y-35015999D01*
X75271001Y-35016000D01*
X75945999Y-35016000D01*
X75946000Y-35015999D01*
X75946000Y-34016001D01*
X76146000Y-34016001D01*
X76146000Y-35015999D01*
X76146001Y-35016000D01*
X76820998Y-35016000D01*
X76820999Y-35015999D01*
X76820999Y-34411796D01*
X76818149Y-34381399D01*
X76818149Y-34381397D01*
X76773345Y-34253352D01*
X76692792Y-34144209D01*
X76692790Y-34144207D01*
X76583647Y-34063654D01*
X76455601Y-34018850D01*
X76425211Y-34016000D01*
X76146001Y-34016000D01*
X76146000Y-34016001D01*
X75946000Y-34016001D01*
X75945999Y-34016000D01*
X75666796Y-34016000D01*
X75636399Y-34018850D01*
X75636397Y-34018850D01*
X75508352Y-34063654D01*
X75399209Y-34144207D01*
X75399207Y-34144209D01*
X75318654Y-34253352D01*
X75273850Y-34381398D01*
X75271000Y-34411788D01*
X65196500Y-34411788D01*
X65196500Y-33800000D01*
X65215407Y-33741809D01*
X65264907Y-33705845D01*
X65295500Y-33701000D01*
X65320999Y-33701000D01*
X65321000Y-33700999D01*
X65321000Y-32775000D01*
X65339907Y-32716809D01*
X65389407Y-32680845D01*
X65420000Y-32676000D01*
X65422000Y-32676000D01*
X65480191Y-32694907D01*
X65516155Y-32744407D01*
X65521000Y-32775000D01*
X65521000Y-33700999D01*
X65521001Y-33701000D01*
X65740697Y-33701000D01*
X65740700Y-33700999D01*
X65799036Y-33689396D01*
X65865189Y-33645193D01*
X65865193Y-33645189D01*
X65909396Y-33579036D01*
X65920999Y-33520700D01*
X65921000Y-33520697D01*
X65921000Y-33516001D01*
X69996001Y-33516001D01*
X69996001Y-33795203D01*
X69998850Y-33825600D01*
X69998850Y-33825602D01*
X70043654Y-33953647D01*
X70124207Y-34062790D01*
X70124209Y-34062792D01*
X70233352Y-34143345D01*
X70361398Y-34188149D01*
X70391789Y-34190999D01*
X70995998Y-34190999D01*
X70996000Y-34190998D01*
X70996000Y-33516001D01*
X71196000Y-33516001D01*
X71196000Y-34190998D01*
X71196001Y-34190999D01*
X71800203Y-34190999D01*
X71830600Y-34188149D01*
X71830602Y-34188149D01*
X71958647Y-34143345D01*
X72067790Y-34062792D01*
X72067792Y-34062790D01*
X72148345Y-33953647D01*
X72193149Y-33825601D01*
X72195999Y-33795211D01*
X72196000Y-33795210D01*
X72196000Y-33516001D01*
X72571001Y-33516001D01*
X72571001Y-33795203D01*
X72573850Y-33825600D01*
X72573850Y-33825602D01*
X72618654Y-33953647D01*
X72699207Y-34062790D01*
X72699209Y-34062792D01*
X72808352Y-34143345D01*
X72936398Y-34188149D01*
X72966789Y-34190999D01*
X73570998Y-34190999D01*
X73571000Y-34190998D01*
X73571000Y-33516001D01*
X73771000Y-33516001D01*
X73771000Y-34190998D01*
X73771001Y-34190999D01*
X74375203Y-34190999D01*
X74405600Y-34188149D01*
X74405602Y-34188149D01*
X74533647Y-34143345D01*
X74642790Y-34062792D01*
X74642792Y-34062790D01*
X74723345Y-33953647D01*
X74768149Y-33825601D01*
X74770999Y-33795211D01*
X74771000Y-33795210D01*
X74771000Y-33516001D01*
X74770999Y-33516000D01*
X73771001Y-33516000D01*
X73771000Y-33516001D01*
X73571000Y-33516001D01*
X73570999Y-33516000D01*
X72571002Y-33516000D01*
X72571001Y-33516001D01*
X72196000Y-33516001D01*
X72195999Y-33516000D01*
X71196001Y-33516000D01*
X71196000Y-33516001D01*
X70996000Y-33516001D01*
X70995999Y-33516000D01*
X69996002Y-33516000D01*
X69996001Y-33516001D01*
X65921000Y-33516001D01*
X65921000Y-33040533D01*
X65939907Y-32982342D01*
X65989407Y-32946378D01*
X66050593Y-32946378D01*
X66075001Y-32958217D01*
X66184428Y-33031333D01*
X66311817Y-33084098D01*
X66416000Y-33104822D01*
X66416000Y-32694788D01*
X66476504Y-32711000D01*
X66555496Y-32711000D01*
X66616000Y-32694788D01*
X66616000Y-33104821D01*
X66720181Y-33084098D01*
X66720183Y-33084098D01*
X66834401Y-33036788D01*
X69996000Y-33036788D01*
X69996000Y-33315999D01*
X69996001Y-33316000D01*
X70995999Y-33316000D01*
X70996000Y-33315999D01*
X70996000Y-32641001D01*
X71196000Y-32641001D01*
X71196000Y-33315999D01*
X71196001Y-33316000D01*
X72195998Y-33316000D01*
X72195999Y-33315999D01*
X72195999Y-33036796D01*
X72195998Y-33036788D01*
X72571000Y-33036788D01*
X72571000Y-33315999D01*
X72571001Y-33316000D01*
X73570999Y-33316000D01*
X73571000Y-33315999D01*
X73571000Y-32641001D01*
X73771000Y-32641001D01*
X73771000Y-33315999D01*
X73771001Y-33316000D01*
X74770998Y-33316000D01*
X74770999Y-33315999D01*
X74770999Y-33036796D01*
X74768149Y-33006399D01*
X74768149Y-33006397D01*
X74723345Y-32878352D01*
X74642792Y-32769209D01*
X74642790Y-32769207D01*
X74533647Y-32688654D01*
X74405601Y-32643850D01*
X74375211Y-32641000D01*
X73771001Y-32641000D01*
X73771000Y-32641001D01*
X73571000Y-32641001D01*
X73570999Y-32641000D01*
X72966796Y-32641000D01*
X72936399Y-32643850D01*
X72936397Y-32643850D01*
X72808352Y-32688654D01*
X72699209Y-32769207D01*
X72699207Y-32769209D01*
X72618654Y-32878352D01*
X72573850Y-33006398D01*
X72571000Y-33036788D01*
X72195998Y-33036788D01*
X72193149Y-33006399D01*
X72193149Y-33006397D01*
X72148345Y-32878352D01*
X72067792Y-32769209D01*
X72067790Y-32769207D01*
X71958647Y-32688654D01*
X71830601Y-32643850D01*
X71800211Y-32641000D01*
X71196001Y-32641000D01*
X71196000Y-32641001D01*
X70996000Y-32641001D01*
X70995999Y-32641000D01*
X70391796Y-32641000D01*
X70361399Y-32643850D01*
X70361397Y-32643850D01*
X70233352Y-32688654D01*
X70124209Y-32769207D01*
X70124207Y-32769209D01*
X70043654Y-32878352D01*
X69998850Y-33006398D01*
X69996000Y-33036788D01*
X66834401Y-33036788D01*
X66847571Y-33031333D01*
X66962220Y-32954728D01*
X67059728Y-32857220D01*
X67136333Y-32742571D01*
X67189098Y-32615183D01*
X67215999Y-32479944D01*
X67216000Y-32479942D01*
X67216000Y-31961001D01*
X67215999Y-31961000D01*
X66816000Y-31961000D01*
X66816000Y-31761000D01*
X67215999Y-31761000D01*
X67216000Y-31760999D01*
X67216000Y-31242057D01*
X67215999Y-31242055D01*
X67189098Y-31106816D01*
X67136333Y-30979428D01*
X67059728Y-30864779D01*
X66962220Y-30767271D01*
X66847571Y-30690666D01*
X66720182Y-30637901D01*
X66616000Y-30617177D01*
X66616000Y-31027211D01*
X66555496Y-31011000D01*
X66476504Y-31011000D01*
X66416000Y-31027211D01*
X66416000Y-30617177D01*
X66311817Y-30637901D01*
X66184428Y-30690666D01*
X66069779Y-30767271D01*
X65972271Y-30864779D01*
X65895666Y-30979428D01*
X65842901Y-31106816D01*
X65831502Y-31164124D01*
X65801605Y-31217507D01*
X65746039Y-31243123D01*
X65686030Y-31231186D01*
X65644497Y-31186256D01*
X65638779Y-31170438D01*
X65622281Y-31108865D01*
X65622279Y-31108861D01*
X65622279Y-31108860D01*
X65546518Y-30977639D01*
X65546516Y-30977637D01*
X65546515Y-30977635D01*
X65439365Y-30870485D01*
X65439362Y-30870483D01*
X65439360Y-30870481D01*
X65308138Y-30794720D01*
X65308140Y-30794720D01*
X65251347Y-30779503D01*
X65161766Y-30755500D01*
X65010234Y-30755500D01*
X64920652Y-30779503D01*
X64863860Y-30794720D01*
X64732639Y-30870481D01*
X64625481Y-30977639D01*
X64549720Y-31108860D01*
X64533222Y-31170432D01*
X64510500Y-31255234D01*
X64510500Y-31406766D01*
X64535730Y-31500928D01*
X64549720Y-31553139D01*
X64606798Y-31652000D01*
X64619520Y-31711848D01*
X64594633Y-31767744D01*
X64541645Y-31798337D01*
X64521062Y-31800500D01*
X64321325Y-31800500D01*
X64301453Y-31804453D01*
X64248260Y-31815034D01*
X64248258Y-31815034D01*
X64240315Y-31816615D01*
X64201685Y-31816615D01*
X64193741Y-31815034D01*
X64193740Y-31815034D01*
X64120674Y-31800500D01*
X63771326Y-31800500D01*
X63771320Y-31800500D01*
X63715313Y-31811641D01*
X63676687Y-31811641D01*
X63620679Y-31800500D01*
X63620674Y-31800500D01*
X63423063Y-31800500D01*
X63364872Y-31781593D01*
X63328908Y-31732093D01*
X63327437Y-31727125D01*
X63320570Y-31701500D01*
X63319207Y-31696412D01*
X63304482Y-31670907D01*
X63266483Y-31605091D01*
X63266481Y-31605089D01*
X63266480Y-31605087D01*
X63091713Y-31430320D01*
X63091710Y-31430318D01*
X63091708Y-31430316D01*
X63000391Y-31377594D01*
X63000393Y-31377594D01*
X62940416Y-31361524D01*
X62898527Y-31350300D01*
X62898525Y-31350300D01*
X62445500Y-31350300D01*
X62387309Y-31331393D01*
X62351345Y-31281893D01*
X62346500Y-31251300D01*
X62346500Y-30947778D01*
X62346501Y-30947765D01*
X62346501Y-30834336D01*
X62346500Y-30834334D01*
X62334888Y-30791000D01*
X62319207Y-30732477D01*
X62283399Y-30670456D01*
X62266480Y-30641151D01*
X62191913Y-30566584D01*
X62191910Y-30566582D01*
X61642761Y-30017433D01*
X68702900Y-30017433D01*
X68702900Y-31234554D01*
X68705083Y-31267874D01*
X68705084Y-31267888D01*
X68706752Y-31280560D01*
X68706755Y-31280579D01*
X68711061Y-31302227D01*
X68713273Y-31313349D01*
X68717193Y-31327978D01*
X68724951Y-31356937D01*
X68724952Y-31356940D01*
X68724954Y-31356946D01*
X68745590Y-31406764D01*
X68750490Y-31418593D01*
X68763162Y-31440537D01*
X68763173Y-31440554D01*
X68803387Y-31492958D01*
X68803764Y-31493449D01*
X68830950Y-31520635D01*
X68883867Y-31561239D01*
X68905833Y-31573921D01*
X68905834Y-31573921D01*
X68905837Y-31573923D01*
X68967450Y-31599444D01*
X68967451Y-31599444D01*
X68967453Y-31599445D01*
X69011039Y-31611124D01*
X69043811Y-31617643D01*
X69056493Y-31619313D01*
X69089850Y-31621500D01*
X75272993Y-31621500D01*
X75331184Y-31640407D01*
X75342997Y-31650496D01*
X75358501Y-31666000D01*
X76376000Y-31666000D01*
X76376000Y-31866000D01*
X75358502Y-31866000D01*
X75358501Y-31866001D01*
X75358501Y-31929091D01*
X75364729Y-31976408D01*
X75364731Y-31976415D01*
X75371212Y-31990314D01*
X75378666Y-32051044D01*
X75361888Y-32088317D01*
X75362563Y-32088768D01*
X75360755Y-32091472D01*
X75348085Y-32113417D01*
X75325609Y-32167672D01*
X75323092Y-32173252D01*
X75318636Y-32182368D01*
X75318633Y-32182377D01*
X75317137Y-32192647D01*
X75314800Y-32203987D01*
X75310872Y-32218649D01*
X75304348Y-32251457D01*
X75302680Y-32264133D01*
X75300500Y-32297433D01*
X75300500Y-33264567D01*
X75302688Y-33297937D01*
X75304361Y-33310635D01*
X75310898Y-33343464D01*
X75322607Y-33387107D01*
X75336632Y-33420920D01*
X75348189Y-33448785D01*
X75360898Y-33470766D01*
X75360901Y-33470770D01*
X75360905Y-33470776D01*
X75401586Y-33523708D01*
X75401588Y-33523710D01*
X75428829Y-33550901D01*
X75481848Y-33591493D01*
X75503853Y-33604162D01*
X75503854Y-33604162D01*
X75503857Y-33604164D01*
X75565573Y-33629629D01*
X75565571Y-33629629D01*
X75565577Y-33629630D01*
X75565578Y-33629631D01*
X75575472Y-33632266D01*
X75609217Y-33641254D01*
X75609223Y-33641255D01*
X75609230Y-33641257D01*
X75642051Y-33647732D01*
X75654752Y-33649383D01*
X75654764Y-33649383D01*
X75654766Y-33649384D01*
X75657258Y-33649542D01*
X75688154Y-33651515D01*
X77131320Y-33648876D01*
X77189544Y-33667677D01*
X77225598Y-33717111D01*
X77230500Y-33747876D01*
X77230500Y-35914554D01*
X77232683Y-35947874D01*
X77232684Y-35947888D01*
X77234352Y-35960560D01*
X77234355Y-35960579D01*
X77240870Y-35993336D01*
X77240874Y-35993351D01*
X77252551Y-36036937D01*
X77252552Y-36036940D01*
X77252554Y-36036946D01*
X77273615Y-36087790D01*
X77278090Y-36098593D01*
X77280357Y-36102518D01*
X77290768Y-36120547D01*
X77331364Y-36173449D01*
X77358550Y-36200635D01*
X77411467Y-36241239D01*
X77433433Y-36253921D01*
X77433434Y-36253921D01*
X77433437Y-36253923D01*
X77495050Y-36279444D01*
X77495051Y-36279444D01*
X77495053Y-36279445D01*
X77538639Y-36291124D01*
X77571411Y-36297643D01*
X77584093Y-36299313D01*
X77617450Y-36301500D01*
X78028300Y-36301500D01*
X78086491Y-36320407D01*
X78122455Y-36369907D01*
X78127300Y-36400500D01*
X78127300Y-37451475D01*
X78129485Y-37484820D01*
X78129486Y-37484836D01*
X78133706Y-37516888D01*
X78133709Y-37516907D01*
X78140226Y-37549674D01*
X78140228Y-37549681D01*
X78143890Y-37563350D01*
X78166435Y-37619670D01*
X78194452Y-37670985D01*
X78194454Y-37670989D01*
X78212353Y-37699209D01*
X78212354Y-37699210D01*
X78285718Y-37766708D01*
X78345378Y-37803075D01*
X78412228Y-37831704D01*
X78425893Y-37835366D01*
X78458677Y-37841888D01*
X78490774Y-37846114D01*
X78524126Y-37848300D01*
X79444674Y-37848300D01*
X79478031Y-37846113D01*
X79510131Y-37841886D01*
X79542915Y-37835364D01*
X79542934Y-37835358D01*
X79542938Y-37835358D01*
X79546388Y-37834433D01*
X79556579Y-37831702D01*
X79612887Y-37809158D01*
X79664194Y-37781142D01*
X79692410Y-37763245D01*
X79759908Y-37689881D01*
X79796275Y-37630221D01*
X79824904Y-37563371D01*
X79828566Y-37549706D01*
X79835088Y-37516922D01*
X79839314Y-37484825D01*
X79841500Y-37451473D01*
X79841500Y-36018000D01*
X79841500Y-35285500D01*
X79860407Y-35227309D01*
X79909907Y-35191345D01*
X79940500Y-35186500D01*
X80157815Y-35186500D01*
X80216006Y-35205407D01*
X80227812Y-35215490D01*
X80288320Y-35275998D01*
X80316096Y-35330513D01*
X80306525Y-35390945D01*
X80288321Y-35416000D01*
X80245811Y-35458511D01*
X80210423Y-35493899D01*
X80189605Y-35536483D01*
X80153918Y-35609482D01*
X80143000Y-35684418D01*
X80143000Y-36027582D01*
X80153918Y-36102518D01*
X80210424Y-36218102D01*
X80301398Y-36309076D01*
X80416982Y-36365582D01*
X80491918Y-36376500D01*
X80491921Y-36376500D01*
X80935078Y-36376500D01*
X80935082Y-36376500D01*
X81010018Y-36365582D01*
X81125602Y-36309076D01*
X81199183Y-36235494D01*
X81253698Y-36207719D01*
X81269185Y-36206500D01*
X86169326Y-36206500D01*
X86227517Y-36225407D01*
X86262084Y-36270904D01*
X86273662Y-36301948D01*
X86321297Y-36365581D01*
X86354528Y-36409972D01*
X86389971Y-36436504D01*
X86462551Y-36490837D01*
X86588972Y-36537989D01*
X86588973Y-36537989D01*
X86588978Y-36537991D01*
X86644870Y-36544000D01*
X86644874Y-36544000D01*
X87247126Y-36544000D01*
X87247130Y-36544000D01*
X87303022Y-36537991D01*
X87346918Y-36521618D01*
X87429448Y-36490837D01*
X87429448Y-36490836D01*
X87429450Y-36490836D01*
X87537472Y-36409972D01*
X87618336Y-36301950D01*
X87619943Y-36297643D01*
X87665489Y-36175527D01*
X87665488Y-36175527D01*
X87665491Y-36175522D01*
X87671500Y-36119630D01*
X87671500Y-35592370D01*
X87665491Y-35536478D01*
X87658649Y-35518133D01*
X87618337Y-35410051D01*
X87563893Y-35337323D01*
X87537472Y-35302028D01*
X87453434Y-35239118D01*
X87429448Y-35221162D01*
X87303027Y-35174010D01*
X87303022Y-35174009D01*
X87303020Y-35174008D01*
X87303016Y-35174008D01*
X87277744Y-35171291D01*
X87247130Y-35168000D01*
X86644870Y-35168000D01*
X86617943Y-35170894D01*
X86588983Y-35174008D01*
X86588972Y-35174010D01*
X86462551Y-35221162D01*
X86354531Y-35302025D01*
X86354525Y-35302031D01*
X86273662Y-35410051D01*
X86262084Y-35441096D01*
X86224034Y-35489011D01*
X86169326Y-35505500D01*
X81269185Y-35505500D01*
X81210994Y-35486593D01*
X81199187Y-35476509D01*
X81138679Y-35416001D01*
X81110904Y-35361487D01*
X81120475Y-35301055D01*
X81138678Y-35275999D01*
X81216576Y-35198102D01*
X81273082Y-35082518D01*
X81284000Y-35007582D01*
X81284000Y-34664418D01*
X81273082Y-34589482D01*
X81216576Y-34473898D01*
X81125602Y-34382924D01*
X81121669Y-34381001D01*
X86271001Y-34381001D01*
X86271001Y-34532709D01*
X86286531Y-34630762D01*
X86346751Y-34748952D01*
X86440547Y-34842748D01*
X86558735Y-34902968D01*
X86656791Y-34918499D01*
X86846000Y-34918499D01*
X86846000Y-34381001D01*
X87046000Y-34381001D01*
X87046000Y-34918498D01*
X87046001Y-34918499D01*
X87235209Y-34918499D01*
X87333262Y-34902968D01*
X87451452Y-34842748D01*
X87545248Y-34748952D01*
X87605468Y-34630764D01*
X87621000Y-34532708D01*
X87621000Y-34381001D01*
X87620999Y-34381000D01*
X87046001Y-34381000D01*
X87046000Y-34381001D01*
X86846000Y-34381001D01*
X86845999Y-34381000D01*
X86271002Y-34381000D01*
X86271001Y-34381001D01*
X81121669Y-34381001D01*
X81119517Y-34379949D01*
X81075545Y-34337406D01*
X81064000Y-34291010D01*
X81064000Y-34029291D01*
X86271000Y-34029291D01*
X86271000Y-34180999D01*
X86271001Y-34181000D01*
X86845999Y-34181000D01*
X86846000Y-34180999D01*
X86846000Y-33643501D01*
X87046000Y-33643501D01*
X87046000Y-34180999D01*
X87046001Y-34181000D01*
X87620998Y-34181000D01*
X87620999Y-34180999D01*
X87620999Y-34029290D01*
X87605468Y-33931237D01*
X87545248Y-33813047D01*
X87451452Y-33719251D01*
X87333264Y-33659031D01*
X87235209Y-33643500D01*
X87046001Y-33643500D01*
X87046000Y-33643501D01*
X86846000Y-33643501D01*
X86845999Y-33643500D01*
X86656790Y-33643500D01*
X86558737Y-33659031D01*
X86440547Y-33719251D01*
X86346751Y-33813047D01*
X86286531Y-33931235D01*
X86271000Y-34029291D01*
X81064000Y-34029291D01*
X81064000Y-33596685D01*
X81082907Y-33538494D01*
X81092990Y-33526687D01*
X81166576Y-33453102D01*
X81223082Y-33337518D01*
X81234000Y-33262582D01*
X81234000Y-32819418D01*
X81223082Y-32744482D01*
X81166576Y-32628898D01*
X81075602Y-32537924D01*
X80960018Y-32481418D01*
X80927597Y-32476694D01*
X80872743Y-32449595D01*
X80844291Y-32395427D01*
X80853113Y-32334881D01*
X80895838Y-32291083D01*
X80928956Y-32280575D01*
X80936543Y-32279576D01*
X81043609Y-32229650D01*
X81127150Y-32146109D01*
X81177074Y-32039047D01*
X81177076Y-32039040D01*
X81183500Y-31990253D01*
X81183500Y-31866001D01*
X81183499Y-31866000D01*
X80712500Y-31866000D01*
X80654309Y-31847093D01*
X80618345Y-31797593D01*
X80613500Y-31767000D01*
X80613500Y-31246001D01*
X80813500Y-31246001D01*
X80813500Y-31665999D01*
X80813501Y-31666000D01*
X81183498Y-31666000D01*
X81183499Y-31665999D01*
X81183499Y-31541749D01*
X81183498Y-31541739D01*
X81177077Y-31492958D01*
X81127150Y-31385890D01*
X81043609Y-31302349D01*
X80936547Y-31252425D01*
X80936540Y-31252423D01*
X80887754Y-31246000D01*
X80813501Y-31246000D01*
X80813500Y-31246001D01*
X80613500Y-31246001D01*
X80613500Y-31245999D01*
X80539249Y-31246000D01*
X80539238Y-31246001D01*
X80490459Y-31252422D01*
X80383388Y-31302350D01*
X80305453Y-31380285D01*
X80250936Y-31408062D01*
X80190504Y-31398490D01*
X80152069Y-31360055D01*
X80151343Y-31360575D01*
X80148232Y-31356218D01*
X80147240Y-31355226D01*
X80146581Y-31353905D01*
X80146577Y-31353900D01*
X80146576Y-31353899D01*
X80146576Y-31353898D01*
X80055602Y-31262924D01*
X79997571Y-31234554D01*
X79940014Y-31206416D01*
X79939698Y-31206319D01*
X79939434Y-31206133D01*
X79933111Y-31203042D01*
X79933607Y-31202026D01*
X79889686Y-31171071D01*
X79869943Y-31113158D01*
X79888012Y-31054701D01*
X79936989Y-31018029D01*
X79953434Y-31013955D01*
X79965675Y-31012017D01*
X80075891Y-30955859D01*
X80149207Y-30882542D01*
X80203722Y-30854767D01*
X80264154Y-30864338D01*
X80289213Y-30882544D01*
X80325478Y-30918809D01*
X80434138Y-30969478D01*
X80434145Y-30969480D01*
X80483661Y-30976000D01*
X80563499Y-30976000D01*
X80563500Y-30975999D01*
X80563500Y-30566001D01*
X80763500Y-30566001D01*
X80763500Y-30975999D01*
X80763501Y-30976000D01*
X80843338Y-30976000D01*
X80892854Y-30969480D01*
X80892861Y-30969478D01*
X81001521Y-30918809D01*
X81086309Y-30834021D01*
X81136978Y-30725361D01*
X81136980Y-30725354D01*
X81143500Y-30675838D01*
X81143500Y-30566001D01*
X81143499Y-30566000D01*
X80763501Y-30566000D01*
X80763500Y-30566001D01*
X80563500Y-30566001D01*
X80563500Y-29956001D01*
X80763500Y-29956001D01*
X80763500Y-30365999D01*
X80763501Y-30366000D01*
X81143499Y-30366000D01*
X81143500Y-30365999D01*
X81143500Y-30256161D01*
X81136980Y-30206645D01*
X81136978Y-30206638D01*
X81086309Y-30097978D01*
X81001521Y-30013190D01*
X80892861Y-29962521D01*
X80892854Y-29962519D01*
X80843339Y-29956000D01*
X80763501Y-29956000D01*
X80763500Y-29956001D01*
X80563500Y-29956001D01*
X80563499Y-29956000D01*
X80483661Y-29956000D01*
X80434145Y-29962519D01*
X80434138Y-29962521D01*
X80325478Y-30013190D01*
X80289213Y-30049456D01*
X80234696Y-30077233D01*
X80174264Y-30067662D01*
X80149208Y-30049458D01*
X80075891Y-29976141D01*
X79965675Y-29919983D01*
X79965676Y-29919983D01*
X79874236Y-29905500D01*
X79532762Y-29905500D01*
X79441325Y-29919983D01*
X79441321Y-29919984D01*
X79331110Y-29976140D01*
X79243639Y-30063611D01*
X79239061Y-30069913D01*
X79237447Y-30068740D01*
X79201479Y-30104709D01*
X79156534Y-30115500D01*
X78530045Y-30115500D01*
X78471854Y-30096593D01*
X78460042Y-30086504D01*
X78404712Y-30031175D01*
X78404711Y-30031174D01*
X78292125Y-29976134D01*
X78292126Y-29976134D01*
X78260016Y-29971456D01*
X78219136Y-29965500D01*
X77772864Y-29965500D01*
X77732286Y-29971412D01*
X77699873Y-29976134D01*
X77587290Y-30031173D01*
X77498673Y-30119790D01*
X77496000Y-30125257D01*
X77496000Y-29717400D01*
X76376000Y-29717400D01*
X76376000Y-29804638D01*
X76340635Y-29758550D01*
X76313449Y-29731364D01*
X76295457Y-29717557D01*
X76260554Y-29690773D01*
X76260550Y-29690771D01*
X76260547Y-29690768D01*
X76260540Y-29690764D01*
X76260537Y-29690762D01*
X76238593Y-29678090D01*
X76238576Y-29678083D01*
X76176946Y-29652554D01*
X76176940Y-29652552D01*
X76176937Y-29652551D01*
X76152567Y-29646022D01*
X76133349Y-29640873D01*
X76133342Y-29640871D01*
X76133336Y-29640870D01*
X76100579Y-29634355D01*
X76100564Y-29634352D01*
X76100561Y-29634352D01*
X76096336Y-29633796D01*
X76087888Y-29632684D01*
X76087874Y-29632683D01*
X76054554Y-29630500D01*
X76054550Y-29630500D01*
X69089850Y-29630500D01*
X69089834Y-29630500D01*
X69056557Y-29632679D01*
X69056526Y-29632682D01*
X69043842Y-29634350D01*
X69043831Y-29634352D01*
X69011061Y-29640870D01*
X69011037Y-29640875D01*
X68967447Y-29652554D01*
X68905819Y-29678083D01*
X68883862Y-29690762D01*
X68830958Y-29731356D01*
X68803759Y-29758555D01*
X68763160Y-29811463D01*
X68750482Y-29833421D01*
X68724961Y-29895033D01*
X68724956Y-29895046D01*
X68713273Y-29938643D01*
X68713270Y-29938655D01*
X68706748Y-29971457D01*
X68705080Y-29984133D01*
X68702900Y-30017433D01*
X61642761Y-30017433D01*
X60693286Y-29067957D01*
X60693283Y-29067955D01*
X60693281Y-29067953D01*
X60601964Y-29015231D01*
X60601966Y-29015231D01*
X60562443Y-29004641D01*
X60500100Y-28987937D01*
X55984954Y-28987937D01*
X55879500Y-28987937D01*
X55817156Y-29004641D01*
X55777634Y-29015231D01*
X55686318Y-29067953D01*
X53842016Y-30912255D01*
X53789294Y-31003572D01*
X53789293Y-31003574D01*
X53779090Y-31041650D01*
X53779091Y-31041651D01*
X53762000Y-31105437D01*
X53762000Y-33067999D01*
X53743093Y-33126190D01*
X53733005Y-33138001D01*
X53629441Y-33241564D01*
X53574926Y-33269341D01*
X53548354Y-33269937D01*
X53426004Y-33256151D01*
X53425996Y-33256151D01*
X53257946Y-33275085D01*
X53257934Y-33275088D01*
X53098309Y-33330944D01*
X53098308Y-33330944D01*
X52955113Y-33420920D01*
X52835520Y-33540513D01*
X52745544Y-33683708D01*
X52745544Y-33683709D01*
X52689688Y-33843334D01*
X52689685Y-33843346D01*
X52670751Y-34011395D01*
X52670751Y-34011404D01*
X52689685Y-34179453D01*
X52689688Y-34179465D01*
X52745544Y-34339090D01*
X52745544Y-34339091D01*
X52835520Y-34482286D01*
X52835523Y-34482290D01*
X52955110Y-34601877D01*
X52982972Y-34619383D01*
X53022183Y-34666349D01*
X53029300Y-34703208D01*
X53029300Y-35072400D01*
X53010393Y-35130591D01*
X53000304Y-35142403D01*
X52951751Y-35190956D01*
X52951750Y-35190958D01*
X52894154Y-35303995D01*
X52879300Y-35397778D01*
X52879300Y-36485821D01*
X52879301Y-36485823D01*
X52894152Y-36579599D01*
X52894154Y-36579604D01*
X52951750Y-36692642D01*
X53041458Y-36782350D01*
X53154496Y-36839946D01*
X53248281Y-36854800D01*
X53611318Y-36854799D01*
X53611320Y-36854799D01*
X53611321Y-36854798D01*
X53658211Y-36847372D01*
X53705099Y-36839947D01*
X53705099Y-36839946D01*
X53705104Y-36839946D01*
X53818142Y-36782350D01*
X53870506Y-36729985D01*
X53925020Y-36702209D01*
X53985452Y-36711780D01*
X54010512Y-36729986D01*
X54023612Y-36743086D01*
X54128551Y-36794387D01*
X54196584Y-36804299D01*
X54279800Y-36804299D01*
X54279800Y-35079300D01*
X54196585Y-35079300D01*
X54196582Y-35079301D01*
X54128550Y-35089212D01*
X54023610Y-35140514D01*
X54010510Y-35153614D01*
X53955992Y-35181391D01*
X53895561Y-35171817D01*
X53870501Y-35153609D01*
X53859293Y-35142400D01*
X53831518Y-35087883D01*
X53830300Y-35072400D01*
X53830300Y-34698433D01*
X53849207Y-34640242D01*
X53876629Y-34614607D01*
X53896890Y-34601877D01*
X54016477Y-34482290D01*
X54106456Y-34339090D01*
X54161774Y-34180999D01*
X54162311Y-34179465D01*
X54162314Y-34179453D01*
X54181249Y-34011404D01*
X54181249Y-34011396D01*
X54174742Y-33953647D01*
X54167462Y-33889042D01*
X54179734Y-33829103D01*
X54195832Y-33807959D01*
X54305997Y-33697795D01*
X54360512Y-33670019D01*
X54420944Y-33679591D01*
X54446003Y-33697796D01*
X54556163Y-33807956D01*
X54583940Y-33862473D01*
X54584537Y-33889044D01*
X54579783Y-33931237D01*
X54570752Y-34011396D01*
X54570751Y-34011403D01*
X54570751Y-34011404D01*
X54589685Y-34179453D01*
X54589688Y-34179465D01*
X54645544Y-34339090D01*
X54645544Y-34339091D01*
X54735520Y-34482286D01*
X54735523Y-34482290D01*
X54855110Y-34601877D01*
X54882972Y-34619383D01*
X54922183Y-34666349D01*
X54929300Y-34703208D01*
X54929300Y-35072400D01*
X54910393Y-35130591D01*
X54900304Y-35142404D01*
X54889095Y-35153613D01*
X54834578Y-35181390D01*
X54774146Y-35171819D01*
X54749087Y-35153613D01*
X54735987Y-35140513D01*
X54631048Y-35089212D01*
X54563016Y-35079300D01*
X54479801Y-35079300D01*
X54479800Y-35079301D01*
X54479800Y-36804298D01*
X54479801Y-36804299D01*
X54563013Y-36804299D01*
X54563016Y-36804298D01*
X54631050Y-36794387D01*
X54743358Y-36739483D01*
X54744408Y-36741631D01*
X54791297Y-36726815D01*
X54849333Y-36746193D01*
X54884895Y-36795982D01*
X54884400Y-36857166D01*
X54860500Y-36895816D01*
X54481512Y-37274804D01*
X54426995Y-37302581D01*
X54411508Y-37303800D01*
X54198279Y-37303800D01*
X54198276Y-37303801D01*
X54104500Y-37318652D01*
X54104495Y-37318654D01*
X53991458Y-37376250D01*
X53991455Y-37376252D01*
X53974802Y-37392905D01*
X53920285Y-37420681D01*
X53859853Y-37411109D01*
X53834798Y-37392905D01*
X53818144Y-37376252D01*
X53818142Y-37376250D01*
X53705104Y-37318654D01*
X53705105Y-37318654D01*
X53611322Y-37303800D01*
X53248279Y-37303800D01*
X53248276Y-37303801D01*
X53154500Y-37318652D01*
X53154495Y-37318654D01*
X53041459Y-37376249D01*
X52951749Y-37465959D01*
X52894154Y-37578995D01*
X52879300Y-37672778D01*
X52879300Y-38760821D01*
X52879301Y-38760823D01*
X52894152Y-38854599D01*
X52894154Y-38854604D01*
X52951750Y-38967642D01*
X53000305Y-39016197D01*
X53028081Y-39070712D01*
X53029300Y-39086199D01*
X53029300Y-39292773D01*
X53029300Y-39398227D01*
X53053370Y-39488059D01*
X53056594Y-39500092D01*
X53109316Y-39591408D01*
X53109318Y-39591410D01*
X53109320Y-39591413D01*
X53736805Y-40218898D01*
X53764581Y-40273413D01*
X53765800Y-40288900D01*
X53765800Y-40294663D01*
X53746893Y-40352854D01*
X53736804Y-40364667D01*
X52452216Y-41649255D01*
X52399494Y-41740573D01*
X52399493Y-41740575D01*
X52399493Y-41740576D01*
X52399493Y-41740577D01*
X52380562Y-41811230D01*
X52372200Y-41842438D01*
X52372200Y-43445398D01*
X52353293Y-43503589D01*
X52343204Y-43515401D01*
X52135720Y-43722885D01*
X52135716Y-43722890D01*
X52082994Y-43814206D01*
X52055700Y-43916073D01*
X52055700Y-43943115D01*
X52036793Y-44001306D01*
X52026709Y-44013112D01*
X51980416Y-44059406D01*
X51953123Y-44086699D01*
X51926200Y-44141771D01*
X51896618Y-44202282D01*
X51885700Y-44277218D01*
X50896500Y-44277218D01*
X50896500Y-28359709D01*
X51295500Y-28359709D01*
X51295500Y-28572290D01*
X51328752Y-28782238D01*
X51394443Y-28984412D01*
X51490948Y-29173815D01*
X51490950Y-29173819D01*
X51615891Y-29345786D01*
X51615893Y-29345788D01*
X51615896Y-29345792D01*
X51766208Y-29496104D01*
X51766211Y-29496106D01*
X51766213Y-29496108D01*
X51938180Y-29621049D01*
X51938184Y-29621051D01*
X52127588Y-29717557D01*
X52329757Y-29783246D01*
X52329758Y-29783246D01*
X52329761Y-29783247D01*
X52539710Y-29816500D01*
X52539713Y-29816500D01*
X52752290Y-29816500D01*
X52962238Y-29783247D01*
X52962239Y-29783246D01*
X52962243Y-29783246D01*
X53164412Y-29717557D01*
X53353816Y-29621051D01*
X53525792Y-29496104D01*
X53676104Y-29345792D01*
X53801051Y-29173816D01*
X53897557Y-28984412D01*
X53963246Y-28782243D01*
X53980260Y-28674821D01*
X53996500Y-28572290D01*
X53996500Y-28359709D01*
X53963247Y-28149761D01*
X53963246Y-28149757D01*
X53897557Y-27947588D01*
X53801051Y-27758184D01*
X53801049Y-27758180D01*
X53676108Y-27586213D01*
X53676106Y-27586211D01*
X53676104Y-27586208D01*
X53525792Y-27435896D01*
X53525788Y-27435893D01*
X53525786Y-27435891D01*
X53353819Y-27310950D01*
X53353815Y-27310948D01*
X53164412Y-27214443D01*
X52962238Y-27148752D01*
X52752290Y-27115500D01*
X52752287Y-27115500D01*
X52539713Y-27115500D01*
X52539710Y-27115500D01*
X52329761Y-27148752D01*
X52127587Y-27214443D01*
X51938184Y-27310948D01*
X51938180Y-27310950D01*
X51766213Y-27435891D01*
X51615891Y-27586213D01*
X51490950Y-27758180D01*
X51490948Y-27758184D01*
X51394443Y-27947587D01*
X51328752Y-28149761D01*
X51295500Y-28359709D01*
X50896500Y-28359709D01*
X50896500Y-27470859D01*
X50896977Y-27461156D01*
X50909945Y-27329485D01*
X50913731Y-27310450D01*
X50950724Y-27188500D01*
X50958142Y-27170590D01*
X51018225Y-27058183D01*
X51028993Y-27042069D01*
X51109845Y-26943550D01*
X51123550Y-26929845D01*
X51222069Y-26848993D01*
X51238183Y-26838225D01*
X51350590Y-26778142D01*
X51368500Y-26770724D01*
X51490452Y-26733730D01*
X51509483Y-26729945D01*
X51641157Y-26716977D01*
X51650860Y-26716500D01*
X51690170Y-26716500D01*
X57311543Y-26716500D01*
X57369734Y-26735407D01*
G37*
%TD.AperFunction*%
%TD*%
M02*
