M48
; DRILL file {KiCad 8.0.5} date 2024-11-09T17:21:19+0300
; FORMAT={-:-/ absolute / inch / decimal}
; #@! TF.CreationDate,2024-11-09T17:21:19+03:00
; #@! TF.GenerationSoftware,Kicad,Pcbnew,8.0.5
; #@! TF.FileFunction,Plated,1,2,PTH
FMAT,2
INCH
; #@! TA.AperFunction,Plated,PTH,ViaDrill
T1C0.0118
; #@! TA.AperFunction,Plated,PTH,ComponentDrill
T2C0.0236
; #@! TA.AperFunction,Plated,PTH,ComponentDrill
T3C0.0256
; #@! TA.AperFunction,Plated,PTH,ComponentDrill
T4C0.0394
%
G90
G05
T1
X2.0331Y-1.2594
X2.0331Y-1.3594
X2.0331Y-1.4594
X2.0331Y-1.5594
X2.0331Y-1.6594
X2.0331Y-1.8594
X2.0331Y-1.9594
X2.0331Y-2.0594
X2.0331Y-2.3594
X2.0419Y-2.15
X2.0419Y-2.174
X2.1331Y-1.8594
X2.1331Y-1.9594
X2.1331Y-2.3594
X2.1408Y-1.339
X2.1411Y-1.4594
X2.2179Y-1.429
X2.2179Y-1.488
X2.2331Y-1.2594
X2.2331Y-1.5594
X2.2331Y-1.6594
X2.2331Y-2.3594
X2.2331Y-2.4594
X2.3217Y-1.3313
X2.3217Y-1.3589
X2.3331Y-1.5594
X2.3331Y-1.6594
X2.3331Y-1.7594
X2.3331Y-1.8594
X2.3331Y-1.9594
X2.3331Y-2.0594
X2.3331Y-2.1594
X2.3331Y-2.3594
X2.3331Y-2.4594
X2.3837Y-1.3609
X2.4331Y-1.3594
X2.4331Y-1.5594
X2.4331Y-1.6594
X2.4331Y-1.7594
X2.4331Y-1.8594
X2.4331Y-1.9594
X2.4331Y-2.0594
X2.4331Y-2.1594
X2.4331Y-2.3594
X2.4331Y-2.4594
X2.4506Y-1.4239
X2.5136Y-1.3609
X2.5331Y-1.1594
X2.5331Y-1.7594
X2.5331Y-1.8594
X2.5331Y-1.9594
X2.5331Y-2.0594
X2.5331Y-2.1594
X2.5331Y-2.3594
X2.5331Y-2.4594
X2.5754Y-1.3313
X2.5754Y-1.3589
X2.6331Y-1.1594
X2.6331Y-1.3594
X2.6331Y-1.4594
X2.6331Y-1.5594
X2.6331Y-1.6594
X2.6331Y-1.7594
X2.6331Y-1.8594
X2.6331Y-1.9594
X2.6331Y-2.0594
X2.6331Y-2.1594
X2.6331Y-2.3594
X2.6331Y-2.4594
X2.7331Y-1.5594
X2.7331Y-1.6594
X2.7331Y-1.7594
X2.7331Y-1.8594
X2.7331Y-1.9594
X2.7331Y-2.0594
X2.7331Y-2.1594
X2.7331Y-2.3594
X2.7331Y-2.4594
X2.7359Y-1.194
X2.7359Y-1.218
X2.8089Y-1.473
X2.8089Y-1.493
X2.8089Y-1.513
X2.8331Y-1.2594
X2.8331Y-1.7594
X2.8331Y-1.8594
X2.8331Y-1.9594
X2.8331Y-2.0594
X2.8331Y-2.1594
X2.8331Y-2.3594
X2.8331Y-2.4594
X2.9331Y-1.5594
X2.9331Y-1.6594
X2.9331Y-1.7594
X2.9331Y-1.8594
X2.9331Y-1.9594
X2.9331Y-2.0594
X2.9331Y-2.1594
X2.9331Y-2.3594
X2.9331Y-2.4594
X3.0289Y-1.212
X3.0289Y-1.2378
X3.0289Y-1.264
X3.0331Y-1.1594
X3.0331Y-1.4594
X3.0331Y-1.5594
X3.0331Y-1.6594
X3.0331Y-1.7594
X3.0331Y-1.8594
X3.0331Y-1.9594
X3.0331Y-2.0594
X3.0331Y-2.3594
X3.0331Y-2.4594
X3.1099Y-1.442
X3.1099Y-1.466
X3.1099Y-1.6207
X3.1331Y-1.1594
X3.1331Y-2.2594
X3.1331Y-2.3594
X3.1331Y-2.4594
X3.2331Y-1.1594
X3.2331Y-1.2594
X3.2331Y-1.3594
X3.2331Y-1.4594
X3.2331Y-1.5594
X3.2331Y-1.6594
X3.2331Y-1.7594
X3.2331Y-2.0594
X3.2331Y-2.3594
X3.2331Y-2.4594
X3.3331Y-1.1594
X3.3331Y-1.2594
X3.3331Y-1.3594
X3.3331Y-1.4594
X3.3331Y-1.6594
X3.3331Y-1.7594
X3.3331Y-2.0594
X3.3331Y-2.3594
X3.3331Y-2.4594
X3.4331Y-1.2594
X3.4331Y-1.4594
X3.4331Y-1.7594
X3.4331Y-1.8594
X3.4331Y-1.9594
X3.4331Y-2.0594
X3.4331Y-2.1594
X3.4331Y-2.2594
X3.4331Y-2.3594
T3
X2.1034Y-1.339
X2.1782Y-1.339
X2.253Y-1.339
T4
X2.5451Y-1.605
X2.8365Y-1.605
T2
G00X2.2786Y-1.1016
M15
G01X2.2786Y-1.078
M16
G05
G00X2.2786Y-1.276
M15
G01X2.2786Y-1.2327
M16
G05
G00X2.6187Y-1.1016
M15
G01X2.6187Y-1.078
M16
G05
G00X2.6187Y-1.276
M15
G01X2.6187Y-1.2327
M16
G05
M30
