%TF.GenerationSoftware,KiCad,Pcbnew,8.0.5*%
%TF.CreationDate,2024-12-24T21:51:09+03:00*%
%TF.ProjectId,BLR8812AF1 baseboard,424c5238-3831-4324-9146-312062617365,rev?*%
%TF.SameCoordinates,Original*%
%TF.FileFunction,Legend,Top*%
%TF.FilePolarity,Positive*%
%FSLAX46Y46*%
G04 Gerber Fmt 4.6, Leading zero omitted, Abs format (unit mm)*
G04 Created by KiCad (PCBNEW 8.0.5) date 2024-12-24 21:51:09*
%MOMM*%
%LPD*%
G01*
G04 APERTURE LIST*
%ADD10C,0.100000*%
%ADD11C,0.150000*%
%ADD12C,0.120000*%
G04 APERTURE END LIST*
D10*
G36*
X55128845Y-32126879D02*
G01*
X55179801Y-32132512D01*
X55231797Y-32143338D01*
X55268339Y-32155043D01*
X55315704Y-32176243D01*
X55357964Y-32202594D01*
X55398556Y-32237532D01*
X55401939Y-32241017D01*
X55435961Y-32282437D01*
X55461530Y-32324951D01*
X55481995Y-32372092D01*
X55483761Y-32377060D01*
X55498444Y-32428981D01*
X55507009Y-32479136D01*
X55511169Y-32532536D01*
X55511605Y-32557311D01*
X55510190Y-32606559D01*
X55505111Y-32659407D01*
X55496337Y-32708591D01*
X55482051Y-32759545D01*
X55463283Y-32805842D01*
X55437399Y-32851799D01*
X55406220Y-32891985D01*
X55395833Y-32902915D01*
X55357890Y-32935563D01*
X55314890Y-32962678D01*
X55266833Y-32984259D01*
X55256615Y-32987912D01*
X55207804Y-33001489D01*
X55153970Y-33010623D01*
X55101901Y-33015012D01*
X55060244Y-33016000D01*
X54872177Y-33016000D01*
X54842135Y-33005497D01*
X54828213Y-32967884D01*
X54828213Y-32914394D01*
X54946427Y-32914394D01*
X55067815Y-32914394D01*
X55118467Y-32912319D01*
X55168123Y-32905243D01*
X55211430Y-32893145D01*
X55255675Y-32872132D01*
X55296200Y-32841117D01*
X55308883Y-32827933D01*
X55339504Y-32785210D01*
X55361156Y-32737921D01*
X55367745Y-32717779D01*
X55378870Y-32669248D01*
X55384976Y-32620171D01*
X55387266Y-32566371D01*
X55387285Y-32560731D01*
X55384778Y-32507951D01*
X55377256Y-32458057D01*
X55369455Y-32426397D01*
X55351623Y-32378615D01*
X55324935Y-32333468D01*
X55313524Y-32318930D01*
X55276304Y-32283013D01*
X55234795Y-32256527D01*
X55217048Y-32248100D01*
X55168527Y-32232621D01*
X55115723Y-32224708D01*
X55066594Y-32222699D01*
X54946427Y-32222699D01*
X54946427Y-32914394D01*
X54828213Y-32914394D01*
X54828213Y-32173117D01*
X54842135Y-32135748D01*
X54872177Y-32125002D01*
X55073433Y-32125002D01*
X55128845Y-32126879D01*
G37*
G36*
X55953928Y-32671861D02*
G01*
X55947822Y-32708742D01*
X55929993Y-32719000D01*
X55642763Y-32719000D01*
X55624200Y-32708498D01*
X55618094Y-32671861D01*
X55624200Y-32635469D01*
X55642763Y-32625211D01*
X55929993Y-32625211D01*
X55939762Y-32627409D01*
X55947334Y-32635225D01*
X55952219Y-32649879D01*
X55953928Y-32671861D01*
G37*
G36*
X61712616Y-40789013D02*
G01*
X61710418Y-40811239D01*
X61705045Y-40826626D01*
X61696741Y-40835419D01*
X61686482Y-40838106D01*
X61461290Y-40838106D01*
X61461290Y-41082348D01*
X61458360Y-41091385D01*
X61449811Y-41097736D01*
X61434180Y-41102132D01*
X61410244Y-41103842D01*
X61386552Y-41102132D01*
X61370921Y-41097736D01*
X61362128Y-41091385D01*
X61359441Y-41082348D01*
X61359441Y-40838106D01*
X61134249Y-40838106D01*
X61123503Y-40835419D01*
X61115687Y-40826626D01*
X61110069Y-40811239D01*
X61108115Y-40789013D01*
X61110069Y-40767519D01*
X61115687Y-40752132D01*
X61123503Y-40743095D01*
X61133517Y-40740408D01*
X61359441Y-40740408D01*
X61359441Y-40483709D01*
X61362128Y-40473451D01*
X61370921Y-40465635D01*
X61386552Y-40460750D01*
X61410244Y-40459041D01*
X61434180Y-40460750D01*
X61449811Y-40465635D01*
X61458360Y-40473451D01*
X61461290Y-40483709D01*
X61461290Y-40740408D01*
X61687215Y-40740408D01*
X61696985Y-40743095D01*
X61705289Y-40752132D01*
X61710907Y-40767519D01*
X61712616Y-40789013D01*
G37*
G36*
X62387215Y-40894281D02*
G01*
X62383815Y-40946454D01*
X62372457Y-40997936D01*
X62363035Y-41023486D01*
X62338258Y-41069441D01*
X62305814Y-41108570D01*
X62295136Y-41118496D01*
X62253442Y-41148757D01*
X62208949Y-41170577D01*
X62190355Y-41177359D01*
X62142854Y-41189712D01*
X62091574Y-41196364D01*
X62055289Y-41197631D01*
X62005525Y-41195246D01*
X61977131Y-41191525D01*
X61928054Y-41181584D01*
X61911186Y-41176870D01*
X61864973Y-41160293D01*
X61863803Y-41159773D01*
X61840111Y-41146340D01*
X61832784Y-41137059D01*
X61829120Y-41127045D01*
X61826678Y-41111902D01*
X61825945Y-41089920D01*
X61826922Y-41068427D01*
X61830830Y-41053039D01*
X61837180Y-41044247D01*
X61845973Y-41041316D01*
X61867222Y-41050597D01*
X61906057Y-41070381D01*
X61953324Y-41086802D01*
X61966385Y-41090408D01*
X62016722Y-41098594D01*
X62051870Y-41099934D01*
X62101329Y-41096379D01*
X62136378Y-41088699D01*
X62182399Y-41068483D01*
X62202812Y-41053528D01*
X62235325Y-41014844D01*
X62246287Y-40993444D01*
X62259543Y-40944922D01*
X62262163Y-40905272D01*
X62256915Y-40854726D01*
X62248729Y-40828336D01*
X62221975Y-40786039D01*
X62207452Y-40772648D01*
X62164707Y-40748421D01*
X62137110Y-40739676D01*
X62087269Y-40731100D01*
X62035505Y-40728685D01*
X61985417Y-40730473D01*
X61963210Y-40732837D01*
X61913628Y-40736924D01*
X61907034Y-40736989D01*
X61879434Y-40728196D01*
X61871374Y-40694002D01*
X61871374Y-40335210D01*
X61881877Y-40301993D01*
X61912407Y-40291002D01*
X62306127Y-40291002D01*
X62316873Y-40294177D01*
X62325422Y-40303214D01*
X62330551Y-40318845D01*
X62332260Y-40341071D01*
X62325422Y-40379173D01*
X62306127Y-40392607D01*
X61974445Y-40392607D01*
X61974445Y-40639536D01*
X62023293Y-40635628D01*
X62073302Y-40634907D01*
X62081423Y-40634896D01*
X62131672Y-40637089D01*
X62181223Y-40644485D01*
X62214780Y-40653458D01*
X62260975Y-40672478D01*
X62302481Y-40699498D01*
X62309790Y-40705726D01*
X62343435Y-40743034D01*
X62367676Y-40787547D01*
X62381701Y-40834964D01*
X62387139Y-40886995D01*
X62387215Y-40894281D01*
G37*
G36*
X62943356Y-41157331D02*
G01*
X62935540Y-41169787D01*
X62922351Y-41177359D01*
X62900369Y-41181023D01*
X62867152Y-41182000D01*
X62840530Y-41181755D01*
X62820990Y-41180046D01*
X62806824Y-41176870D01*
X62797055Y-41172474D01*
X62790460Y-41166124D01*
X62786064Y-41156842D01*
X62495415Y-40336675D01*
X62489553Y-40312495D01*
X62495415Y-40298573D01*
X62515198Y-40292467D01*
X62552323Y-40291002D01*
X62582854Y-40291979D01*
X62600439Y-40295886D01*
X62609720Y-40302969D01*
X62615582Y-40314205D01*
X62870572Y-41057191D01*
X62871060Y-41057191D01*
X63119211Y-40315670D01*
X63123852Y-40303458D01*
X63133621Y-40295886D01*
X63152672Y-40291979D01*
X63185889Y-40291002D01*
X63219351Y-40292711D01*
X63236203Y-40299306D01*
X63239623Y-40313228D01*
X63233272Y-40337408D01*
X62943356Y-41157331D01*
G37*
G36*
X57063109Y-37010026D02*
G01*
X57086312Y-37011491D01*
X57102921Y-37015644D01*
X57112446Y-37022482D01*
X57115133Y-37031519D01*
X57102921Y-37058875D01*
X57079679Y-37102552D01*
X57076054Y-37110410D01*
X57057872Y-37158300D01*
X57049187Y-37187835D01*
X57040028Y-37236989D01*
X57037023Y-37286911D01*
X57036975Y-37294569D01*
X57040179Y-37343323D01*
X57050981Y-37392427D01*
X57064086Y-37426460D01*
X57089580Y-37470946D01*
X57122008Y-37509547D01*
X57139313Y-37525378D01*
X57181390Y-37555217D01*
X57225525Y-37577250D01*
X57253618Y-37587660D01*
X57304658Y-37600758D01*
X57354219Y-37607454D01*
X57396745Y-37609154D01*
X57448875Y-37606840D01*
X57501811Y-37598951D01*
X57550129Y-37585462D01*
X57597219Y-37565152D01*
X57641643Y-37537413D01*
X57662725Y-37520005D01*
X57696365Y-37483212D01*
X57722669Y-37441097D01*
X57732334Y-37419866D01*
X57747674Y-37370781D01*
X57754892Y-37322180D01*
X57756026Y-37292371D01*
X57752496Y-37243214D01*
X57746012Y-37209084D01*
X57730590Y-37160974D01*
X57715970Y-37130438D01*
X57455119Y-37130438D01*
X57455119Y-37336334D01*
X57443395Y-37353920D01*
X57406515Y-37359782D01*
X57384288Y-37358561D01*
X57368901Y-37353920D01*
X57360353Y-37346837D01*
X57357422Y-37336334D01*
X57357422Y-37053990D01*
X57360353Y-37039091D01*
X57368657Y-37025413D01*
X57383800Y-37015644D01*
X57405538Y-37012224D01*
X57745279Y-37012224D01*
X57776542Y-37018575D01*
X57799501Y-37044709D01*
X57819056Y-37090195D01*
X57821239Y-37096000D01*
X57836672Y-37144497D01*
X57841023Y-37161212D01*
X57850815Y-37210043D01*
X57853479Y-37229356D01*
X57857303Y-37278258D01*
X57857631Y-37297256D01*
X57855616Y-37347417D01*
X57848532Y-37400564D01*
X57836348Y-37450234D01*
X57825391Y-37481415D01*
X57802570Y-37529638D01*
X57774405Y-37572949D01*
X57740898Y-37611345D01*
X57733556Y-37618435D01*
X57693995Y-37650816D01*
X57649807Y-37678045D01*
X57600992Y-37700123D01*
X57590674Y-37703920D01*
X57542298Y-37718206D01*
X57490871Y-37727817D01*
X57436391Y-37732752D01*
X57404805Y-37733473D01*
X57352689Y-37731474D01*
X57303078Y-37725474D01*
X57250257Y-37713945D01*
X57211364Y-37701478D01*
X57164621Y-37681432D01*
X57121934Y-37657291D01*
X57079263Y-37625663D01*
X57063598Y-37611596D01*
X57028130Y-37572999D01*
X56998053Y-37529870D01*
X56973366Y-37482209D01*
X56969076Y-37472133D01*
X56952782Y-37424993D01*
X56941821Y-37375070D01*
X56936193Y-37322365D01*
X56935370Y-37291882D01*
X56937446Y-37242484D01*
X56943674Y-37196383D01*
X56954569Y-37146837D01*
X56963214Y-37117004D01*
X56981166Y-37071163D01*
X56987638Y-37058630D01*
X57009131Y-37026146D01*
X57029159Y-37013690D01*
X57063109Y-37010026D01*
G37*
G36*
X57791197Y-36122936D02*
G01*
X57814644Y-36127332D01*
X57830520Y-36139056D01*
X57839313Y-36155176D01*
X57842000Y-36173006D01*
X57842000Y-36210863D01*
X57838092Y-36242127D01*
X57823926Y-36267528D01*
X57796082Y-36291464D01*
X57753285Y-36316944D01*
X57751630Y-36317842D01*
X57247024Y-36598233D01*
X57201901Y-36623117D01*
X57165203Y-36642685D01*
X57120409Y-36665404D01*
X57081916Y-36683962D01*
X57081916Y-36685427D01*
X57131802Y-36684206D01*
X57182788Y-36683473D01*
X57233957Y-36682924D01*
X57284882Y-36682741D01*
X57820018Y-36682741D01*
X57829299Y-36685427D01*
X57836138Y-36694709D01*
X57840290Y-36712050D01*
X57842000Y-36738916D01*
X57840290Y-36766272D01*
X57836138Y-36783124D01*
X57829299Y-36791917D01*
X57820018Y-36794604D01*
X57001804Y-36794604D01*
X56962725Y-36779461D01*
X56951002Y-36746488D01*
X56951002Y-36690312D01*
X56954421Y-36656851D01*
X56965900Y-36632915D01*
X56987882Y-36612399D01*
X57023053Y-36590661D01*
X57412376Y-36374995D01*
X57456283Y-36350532D01*
X57481986Y-36336404D01*
X57526124Y-36312672D01*
X57548908Y-36300745D01*
X57593563Y-36277352D01*
X57613632Y-36266795D01*
X57657522Y-36243738D01*
X57677624Y-36233334D01*
X57677624Y-36232845D01*
X57626054Y-36233829D01*
X57576179Y-36234457D01*
X57565272Y-36234555D01*
X57514870Y-36234722D01*
X57462838Y-36234797D01*
X57452676Y-36234799D01*
X56972983Y-36234799D01*
X56963946Y-36232113D01*
X56956863Y-36222831D01*
X56952467Y-36205734D01*
X56951002Y-36177891D01*
X56952467Y-36151757D01*
X56956863Y-36134660D01*
X56963946Y-36125623D01*
X56972983Y-36122936D01*
X57791197Y-36122936D01*
G37*
G36*
X57432559Y-35208928D02*
G01*
X57485407Y-35214007D01*
X57534591Y-35222781D01*
X57585545Y-35237067D01*
X57631842Y-35255835D01*
X57677799Y-35281720D01*
X57717985Y-35312899D01*
X57728915Y-35323285D01*
X57761563Y-35361228D01*
X57788678Y-35404229D01*
X57810259Y-35452285D01*
X57813912Y-35462503D01*
X57827489Y-35511314D01*
X57836623Y-35565148D01*
X57841012Y-35617218D01*
X57842000Y-35658875D01*
X57842000Y-35846942D01*
X57831497Y-35876983D01*
X57793884Y-35890905D01*
X56999117Y-35890905D01*
X56961748Y-35876983D01*
X56951002Y-35846942D01*
X56951002Y-35652524D01*
X57048699Y-35652524D01*
X57048699Y-35772692D01*
X57740394Y-35772692D01*
X57740394Y-35651303D01*
X57738319Y-35600651D01*
X57731243Y-35550995D01*
X57719145Y-35507688D01*
X57698132Y-35463444D01*
X57667117Y-35422919D01*
X57653933Y-35410235D01*
X57611210Y-35379614D01*
X57563921Y-35357962D01*
X57543779Y-35351373D01*
X57495248Y-35340248D01*
X57446171Y-35334142D01*
X57392371Y-35331852D01*
X57386731Y-35331833D01*
X57333951Y-35334341D01*
X57284057Y-35341863D01*
X57252397Y-35349663D01*
X57204615Y-35367495D01*
X57159468Y-35394183D01*
X57144930Y-35405595D01*
X57109013Y-35442814D01*
X57082527Y-35484324D01*
X57074100Y-35502071D01*
X57058621Y-35550591D01*
X57050708Y-35603396D01*
X57048699Y-35652524D01*
X56951002Y-35652524D01*
X56951002Y-35645685D01*
X56952879Y-35590273D01*
X56958512Y-35539318D01*
X56969338Y-35487321D01*
X56981043Y-35450780D01*
X57002243Y-35403415D01*
X57028594Y-35361154D01*
X57063532Y-35320563D01*
X57067017Y-35317179D01*
X57108437Y-35283157D01*
X57150951Y-35257588D01*
X57198092Y-35237123D01*
X57203060Y-35235357D01*
X57254981Y-35220674D01*
X57305136Y-35212109D01*
X57358536Y-35207949D01*
X57383311Y-35207514D01*
X57432559Y-35208928D01*
G37*
G36*
X52588845Y-32116879D02*
G01*
X52639801Y-32122512D01*
X52691797Y-32133338D01*
X52728339Y-32145043D01*
X52775704Y-32166243D01*
X52817964Y-32192594D01*
X52858556Y-32227532D01*
X52861939Y-32231017D01*
X52895961Y-32272437D01*
X52921530Y-32314951D01*
X52941995Y-32362092D01*
X52943761Y-32367060D01*
X52958444Y-32418981D01*
X52967009Y-32469136D01*
X52971169Y-32522536D01*
X52971605Y-32547311D01*
X52970190Y-32596559D01*
X52965111Y-32649407D01*
X52956337Y-32698591D01*
X52942051Y-32749545D01*
X52923283Y-32795842D01*
X52897399Y-32841799D01*
X52866220Y-32881985D01*
X52855833Y-32892915D01*
X52817890Y-32925563D01*
X52774890Y-32952678D01*
X52726833Y-32974259D01*
X52716615Y-32977912D01*
X52667804Y-32991489D01*
X52613970Y-33000623D01*
X52561901Y-33005012D01*
X52520244Y-33006000D01*
X52332177Y-33006000D01*
X52302135Y-32995497D01*
X52288213Y-32957884D01*
X52288213Y-32904394D01*
X52406427Y-32904394D01*
X52527815Y-32904394D01*
X52578467Y-32902319D01*
X52628123Y-32895243D01*
X52671430Y-32883145D01*
X52715675Y-32862132D01*
X52756200Y-32831117D01*
X52768883Y-32817933D01*
X52799504Y-32775210D01*
X52821156Y-32727921D01*
X52827745Y-32707779D01*
X52838870Y-32659248D01*
X52844976Y-32610171D01*
X52847266Y-32556371D01*
X52847285Y-32550731D01*
X52844778Y-32497951D01*
X52837256Y-32448057D01*
X52829455Y-32416397D01*
X52811623Y-32368615D01*
X52784935Y-32323468D01*
X52773524Y-32308930D01*
X52736304Y-32273013D01*
X52694795Y-32246527D01*
X52677048Y-32238100D01*
X52628527Y-32222621D01*
X52575723Y-32214708D01*
X52526594Y-32212699D01*
X52406427Y-32212699D01*
X52406427Y-32904394D01*
X52288213Y-32904394D01*
X52288213Y-32163117D01*
X52302135Y-32125748D01*
X52332177Y-32115002D01*
X52533433Y-32115002D01*
X52588845Y-32116879D01*
G37*
G36*
X53683328Y-32613013D02*
G01*
X53681130Y-32635239D01*
X53675757Y-32650626D01*
X53667452Y-32659419D01*
X53657194Y-32662106D01*
X53432002Y-32662106D01*
X53432002Y-32906348D01*
X53429071Y-32915385D01*
X53420523Y-32921736D01*
X53404891Y-32926132D01*
X53380956Y-32927842D01*
X53357264Y-32926132D01*
X53341632Y-32921736D01*
X53332840Y-32915385D01*
X53330153Y-32906348D01*
X53330153Y-32662106D01*
X53104961Y-32662106D01*
X53094214Y-32659419D01*
X53086399Y-32650626D01*
X53080781Y-32635239D01*
X53078827Y-32613013D01*
X53080781Y-32591519D01*
X53086399Y-32576132D01*
X53094214Y-32567095D01*
X53104228Y-32564408D01*
X53330153Y-32564408D01*
X53330153Y-32307709D01*
X53332840Y-32297451D01*
X53341632Y-32289635D01*
X53357264Y-32284750D01*
X53380956Y-32283041D01*
X53404891Y-32284750D01*
X53420523Y-32289635D01*
X53429071Y-32297451D01*
X53432002Y-32307709D01*
X53432002Y-32564408D01*
X53657927Y-32564408D01*
X53667697Y-32567095D01*
X53676001Y-32576132D01*
X53681618Y-32591519D01*
X53683328Y-32613013D01*
G37*
G36*
X68957973Y-40403109D02*
G01*
X68956508Y-40426312D01*
X68952355Y-40442921D01*
X68945517Y-40452446D01*
X68936480Y-40455133D01*
X68909124Y-40442921D01*
X68865447Y-40419679D01*
X68857589Y-40416054D01*
X68809699Y-40397872D01*
X68780164Y-40389187D01*
X68731010Y-40380028D01*
X68681088Y-40377023D01*
X68673430Y-40376975D01*
X68624676Y-40380179D01*
X68575572Y-40390981D01*
X68541539Y-40404086D01*
X68497053Y-40429580D01*
X68458452Y-40462008D01*
X68442621Y-40479313D01*
X68412782Y-40521390D01*
X68390749Y-40565525D01*
X68380339Y-40593618D01*
X68367241Y-40644658D01*
X68360545Y-40694219D01*
X68358845Y-40736745D01*
X68361159Y-40788875D01*
X68369048Y-40841811D01*
X68382537Y-40890129D01*
X68402847Y-40937219D01*
X68430586Y-40981643D01*
X68447994Y-41002725D01*
X68484787Y-41036365D01*
X68526902Y-41062669D01*
X68548133Y-41072334D01*
X68597218Y-41087674D01*
X68645819Y-41094892D01*
X68675628Y-41096026D01*
X68724785Y-41092496D01*
X68758915Y-41086012D01*
X68807025Y-41070590D01*
X68837561Y-41055970D01*
X68837561Y-40795119D01*
X68631665Y-40795119D01*
X68614079Y-40783395D01*
X68608217Y-40746515D01*
X68609438Y-40724288D01*
X68614079Y-40708901D01*
X68621162Y-40700353D01*
X68631665Y-40697422D01*
X68914009Y-40697422D01*
X68928908Y-40700353D01*
X68942586Y-40708657D01*
X68952355Y-40723800D01*
X68955775Y-40745538D01*
X68955775Y-41085279D01*
X68949424Y-41116542D01*
X68923290Y-41139501D01*
X68877804Y-41159056D01*
X68872000Y-41161239D01*
X68823502Y-41176672D01*
X68806787Y-41181023D01*
X68757956Y-41190815D01*
X68738643Y-41193479D01*
X68689741Y-41197303D01*
X68670743Y-41197631D01*
X68620582Y-41195616D01*
X68567435Y-41188532D01*
X68517765Y-41176348D01*
X68486584Y-41165391D01*
X68438361Y-41142570D01*
X68395050Y-41114405D01*
X68356654Y-41080898D01*
X68349564Y-41073556D01*
X68317183Y-41033995D01*
X68289954Y-40989807D01*
X68267876Y-40940992D01*
X68264079Y-40930674D01*
X68249793Y-40882298D01*
X68240182Y-40830871D01*
X68235247Y-40776391D01*
X68234526Y-40744805D01*
X68236525Y-40692689D01*
X68242525Y-40643078D01*
X68254054Y-40590257D01*
X68266521Y-40551364D01*
X68286567Y-40504621D01*
X68310708Y-40461934D01*
X68342336Y-40419263D01*
X68356403Y-40403598D01*
X68395000Y-40368130D01*
X68438129Y-40338053D01*
X68485790Y-40313366D01*
X68495866Y-40309076D01*
X68543006Y-40292782D01*
X68592929Y-40281821D01*
X68645634Y-40276193D01*
X68676117Y-40275370D01*
X68725515Y-40277446D01*
X68771616Y-40283674D01*
X68821162Y-40294569D01*
X68850995Y-40303214D01*
X68896836Y-40321166D01*
X68909369Y-40327638D01*
X68941853Y-40349131D01*
X68954309Y-40369159D01*
X68957973Y-40403109D01*
G37*
G36*
X69845063Y-41131197D02*
G01*
X69840667Y-41154644D01*
X69828943Y-41170520D01*
X69812823Y-41179313D01*
X69794993Y-41182000D01*
X69757136Y-41182000D01*
X69725872Y-41178092D01*
X69700471Y-41163926D01*
X69676535Y-41136082D01*
X69651055Y-41093285D01*
X69650157Y-41091630D01*
X69369766Y-40587024D01*
X69344882Y-40541901D01*
X69325314Y-40505203D01*
X69302595Y-40460409D01*
X69284037Y-40421916D01*
X69282572Y-40421916D01*
X69283793Y-40471802D01*
X69284526Y-40522788D01*
X69285075Y-40573957D01*
X69285258Y-40624882D01*
X69285258Y-41160018D01*
X69282572Y-41169299D01*
X69273290Y-41176138D01*
X69255949Y-41180290D01*
X69229083Y-41182000D01*
X69201727Y-41180290D01*
X69184875Y-41176138D01*
X69176082Y-41169299D01*
X69173395Y-41160018D01*
X69173395Y-40341804D01*
X69188538Y-40302725D01*
X69221511Y-40291002D01*
X69277687Y-40291002D01*
X69311148Y-40294421D01*
X69335084Y-40305900D01*
X69355600Y-40327882D01*
X69377338Y-40363053D01*
X69593004Y-40752376D01*
X69617467Y-40796283D01*
X69631595Y-40821986D01*
X69655327Y-40866124D01*
X69667254Y-40888908D01*
X69690647Y-40933563D01*
X69701204Y-40953632D01*
X69724261Y-40997522D01*
X69734665Y-41017624D01*
X69735154Y-41017624D01*
X69734170Y-40966054D01*
X69733542Y-40916179D01*
X69733444Y-40905272D01*
X69733277Y-40854870D01*
X69733202Y-40802838D01*
X69733200Y-40792676D01*
X69733200Y-40312983D01*
X69735886Y-40303946D01*
X69745168Y-40296863D01*
X69762265Y-40292467D01*
X69790108Y-40291002D01*
X69816242Y-40292467D01*
X69833339Y-40296863D01*
X69842376Y-40303946D01*
X69845063Y-40312983D01*
X69845063Y-41131197D01*
G37*
G36*
X70377726Y-40292879D02*
G01*
X70428681Y-40298512D01*
X70480678Y-40309338D01*
X70517219Y-40321043D01*
X70564584Y-40342243D01*
X70606845Y-40368594D01*
X70647436Y-40403532D01*
X70650820Y-40407017D01*
X70684842Y-40448437D01*
X70710411Y-40490951D01*
X70730876Y-40538092D01*
X70732642Y-40543060D01*
X70747325Y-40594981D01*
X70755890Y-40645136D01*
X70760050Y-40698536D01*
X70760485Y-40723311D01*
X70759071Y-40772559D01*
X70753992Y-40825407D01*
X70745218Y-40874591D01*
X70730932Y-40925545D01*
X70712164Y-40971842D01*
X70686279Y-41017799D01*
X70655100Y-41057985D01*
X70644714Y-41068915D01*
X70606771Y-41101563D01*
X70563770Y-41128678D01*
X70515714Y-41150259D01*
X70505496Y-41153912D01*
X70456685Y-41167489D01*
X70402851Y-41176623D01*
X70350781Y-41181012D01*
X70309124Y-41182000D01*
X70121057Y-41182000D01*
X70091016Y-41171497D01*
X70077094Y-41133884D01*
X70077094Y-41080394D01*
X70195307Y-41080394D01*
X70316696Y-41080394D01*
X70367348Y-41078319D01*
X70417004Y-41071243D01*
X70460311Y-41059145D01*
X70504555Y-41038132D01*
X70545080Y-41007117D01*
X70557764Y-40993933D01*
X70588385Y-40951210D01*
X70610037Y-40903921D01*
X70616626Y-40883779D01*
X70627751Y-40835248D01*
X70633857Y-40786171D01*
X70636147Y-40732371D01*
X70636166Y-40726731D01*
X70633658Y-40673951D01*
X70626136Y-40624057D01*
X70618336Y-40592397D01*
X70600504Y-40544615D01*
X70573816Y-40499468D01*
X70562404Y-40484930D01*
X70525185Y-40449013D01*
X70483675Y-40422527D01*
X70465928Y-40414100D01*
X70417408Y-40398621D01*
X70364603Y-40390708D01*
X70315475Y-40388699D01*
X70195307Y-40388699D01*
X70195307Y-41080394D01*
X70077094Y-41080394D01*
X70077094Y-40339117D01*
X70091016Y-40301748D01*
X70121057Y-40291002D01*
X70322314Y-40291002D01*
X70377726Y-40292879D01*
G37*
D11*
G36*
X53246080Y-59583628D02*
G01*
X53245347Y-59602924D01*
X53242905Y-59617334D01*
X53238509Y-59628325D01*
X53228739Y-59639560D01*
X53199918Y-59659099D01*
X53155173Y-59681008D01*
X53145208Y-59684989D01*
X53098365Y-59699871D01*
X53070470Y-59706238D01*
X53020461Y-59713348D01*
X52978146Y-59715031D01*
X52925729Y-59712193D01*
X52876556Y-59703678D01*
X52826212Y-59687754D01*
X52821830Y-59685966D01*
X52776369Y-59662555D01*
X52735699Y-59632621D01*
X52702884Y-59599748D01*
X52671817Y-59557310D01*
X52648232Y-59513270D01*
X52629084Y-59464030D01*
X52627413Y-59458820D01*
X52614662Y-59409569D01*
X52606084Y-59356338D01*
X52601962Y-59305681D01*
X52601035Y-59265624D01*
X52602806Y-59211204D01*
X52608118Y-59159806D01*
X52616972Y-59111431D01*
X52629367Y-59066078D01*
X52647257Y-59018881D01*
X52671395Y-58971426D01*
X52700018Y-58929217D01*
X52709479Y-58917578D01*
X52743668Y-58882382D01*
X52785849Y-58850169D01*
X52832821Y-58824766D01*
X52879204Y-58807893D01*
X52928591Y-58797269D01*
X52980984Y-58792895D01*
X52991823Y-58792770D01*
X53041527Y-58796136D01*
X53066806Y-58800586D01*
X53114190Y-58813075D01*
X53133973Y-58820125D01*
X53179702Y-58841756D01*
X53188927Y-58847480D01*
X53222389Y-58872882D01*
X53234357Y-58887536D01*
X53238753Y-58899016D01*
X53241440Y-58914403D01*
X53242661Y-58935652D01*
X53241195Y-58959344D01*
X53237043Y-58975464D01*
X53230449Y-58985233D01*
X53221412Y-58988164D01*
X53194545Y-58973510D01*
X53155132Y-58944541D01*
X53150093Y-58941270D01*
X53105064Y-58917505D01*
X53084147Y-58909030D01*
X53035710Y-58897180D01*
X52991091Y-58894375D01*
X52941429Y-58899003D01*
X52892786Y-58914234D01*
X52883624Y-58918555D01*
X52841345Y-58946040D01*
X52805185Y-58983613D01*
X52800825Y-58989386D01*
X52773804Y-59034178D01*
X52753904Y-59082888D01*
X52747581Y-59103447D01*
X52736873Y-59152072D01*
X52730610Y-59205257D01*
X52728774Y-59257564D01*
X52730539Y-59309342D01*
X52736558Y-59361779D01*
X52746848Y-59409483D01*
X52762785Y-59455920D01*
X52786934Y-59502456D01*
X52799116Y-59519881D01*
X52834325Y-59556603D01*
X52876296Y-59583880D01*
X52882403Y-59586804D01*
X52931729Y-59603107D01*
X52982900Y-59609318D01*
X52994510Y-59609518D01*
X53044091Y-59606526D01*
X53086834Y-59597550D01*
X53133717Y-59580365D01*
X53154245Y-59570439D01*
X53196487Y-59545842D01*
X53199918Y-59543573D01*
X53228250Y-59531360D01*
X53236310Y-59533559D01*
X53241684Y-59541374D01*
X53244859Y-59557494D01*
X53246080Y-59583628D01*
G37*
G36*
X53917504Y-59651284D02*
G01*
X53915306Y-59673998D01*
X53909932Y-59688897D01*
X53902116Y-59696957D01*
X53892835Y-59699400D01*
X53428530Y-59699400D01*
X53419493Y-59696957D01*
X53411433Y-59688897D01*
X53405571Y-59673998D01*
X53403617Y-59651284D01*
X53405571Y-59629302D01*
X53410944Y-59614159D01*
X53418516Y-59604878D01*
X53428530Y-59601702D01*
X53613910Y-59601702D01*
X53613910Y-58933454D01*
X53442207Y-59042875D01*
X53421202Y-59051423D01*
X53408502Y-59048248D01*
X53401907Y-59033105D01*
X53400197Y-59005994D01*
X53401174Y-58985233D01*
X53404350Y-58971067D01*
X53410211Y-58961298D01*
X53420225Y-58952749D01*
X53624901Y-58816950D01*
X53631740Y-58813531D01*
X53641998Y-58810600D01*
X53656408Y-58808890D01*
X53677169Y-58808402D01*
X53704524Y-58809867D01*
X53721621Y-58813531D01*
X53729925Y-58819637D01*
X53732123Y-58827453D01*
X53732123Y-59601702D01*
X53892835Y-59601702D01*
X53903093Y-59604878D01*
X53910909Y-59614159D01*
X53915794Y-59629302D01*
X53917504Y-59651284D01*
G37*
G36*
X76916403Y-29045735D02*
G01*
X76914090Y-29094722D01*
X76906200Y-29144696D01*
X76892712Y-29190571D01*
X76872092Y-29235451D01*
X76843321Y-29277869D01*
X76825057Y-29298038D01*
X76786152Y-29330252D01*
X76740878Y-29355451D01*
X76717834Y-29364716D01*
X76668134Y-29378558D01*
X76618292Y-29385634D01*
X76574463Y-29387431D01*
X76525450Y-29384920D01*
X76475470Y-29376454D01*
X76440374Y-29366182D01*
X76394139Y-29345571D01*
X76353467Y-29318269D01*
X76336571Y-29303412D01*
X76304711Y-29266051D01*
X76279381Y-29221837D01*
X76269893Y-29199120D01*
X76255753Y-29149512D01*
X76248525Y-29099271D01*
X76246690Y-29054772D01*
X76246690Y-28502783D01*
X76249376Y-28493258D01*
X76259146Y-28486663D01*
X76276976Y-28482511D01*
X76305796Y-28480802D01*
X76333884Y-28482511D01*
X76352202Y-28486663D01*
X76361484Y-28493258D01*
X76364170Y-28502783D01*
X76364170Y-29039873D01*
X76367069Y-29090951D01*
X76376607Y-29139036D01*
X76379313Y-29147829D01*
X76400523Y-29194618D01*
X76422789Y-29224277D01*
X76460770Y-29255279D01*
X76491421Y-29270439D01*
X76539927Y-29282881D01*
X76582035Y-29285826D01*
X76633551Y-29281552D01*
X76673626Y-29270683D01*
X76717005Y-29247448D01*
X76741526Y-29225498D01*
X76769940Y-29184453D01*
X76784024Y-29150515D01*
X76795198Y-29102094D01*
X76798908Y-29049934D01*
X76798923Y-29046224D01*
X76798923Y-28502783D01*
X76801609Y-28493258D01*
X76811379Y-28486663D01*
X76829453Y-28482511D01*
X76858029Y-28480802D01*
X76885873Y-28482511D01*
X76903703Y-28486663D01*
X76913228Y-28493258D01*
X76916403Y-28502783D01*
X76916403Y-29045735D01*
G37*
G36*
X77655727Y-29119985D02*
G01*
X77651613Y-29171169D01*
X77638074Y-29221029D01*
X77634233Y-29230383D01*
X77610233Y-29273348D01*
X77578076Y-29310196D01*
X77573172Y-29314647D01*
X77531770Y-29343902D01*
X77485769Y-29364913D01*
X77474987Y-29368624D01*
X77425059Y-29380801D01*
X77374535Y-29386531D01*
X77343096Y-29387431D01*
X77292085Y-29384762D01*
X77259565Y-29379860D01*
X77210208Y-29368399D01*
X77190444Y-29362274D01*
X77144217Y-29343079D01*
X77140374Y-29341025D01*
X77115461Y-29325149D01*
X77107401Y-29315379D01*
X77102517Y-29303167D01*
X77099586Y-29285826D01*
X77098609Y-29260669D01*
X77103249Y-29225498D01*
X77117171Y-29215484D01*
X77141351Y-29227208D01*
X77184499Y-29250907D01*
X77188002Y-29252609D01*
X77234001Y-29271261D01*
X77254680Y-29278010D01*
X77303143Y-29287799D01*
X77339676Y-29289734D01*
X77389663Y-29285601D01*
X77419299Y-29278010D01*
X77464637Y-29255067D01*
X77476941Y-29245037D01*
X77507303Y-29205348D01*
X77512112Y-29194723D01*
X77523274Y-29145797D01*
X77523835Y-29130976D01*
X77516793Y-29082616D01*
X77508937Y-29063077D01*
X77479124Y-29022319D01*
X77465706Y-29010809D01*
X77422624Y-28986375D01*
X77395608Y-28977103D01*
X77345264Y-28967623D01*
X77301086Y-28965379D01*
X77216578Y-28965379D01*
X77206075Y-28962937D01*
X77197038Y-28955121D01*
X77190932Y-28940711D01*
X77188490Y-28917019D01*
X77190444Y-28895526D01*
X77196306Y-28881604D01*
X77204854Y-28874033D01*
X77216089Y-28871590D01*
X77293514Y-28871590D01*
X77344103Y-28867371D01*
X77374847Y-28859622D01*
X77419356Y-28838202D01*
X77436152Y-28825184D01*
X77467156Y-28786670D01*
X77474498Y-28771695D01*
X77486869Y-28722969D01*
X77487932Y-28701841D01*
X77480510Y-28652938D01*
X77478895Y-28648108D01*
X77453378Y-28604838D01*
X77452272Y-28603656D01*
X77411732Y-28575946D01*
X77406599Y-28573858D01*
X77357876Y-28563393D01*
X77342363Y-28562867D01*
X77292845Y-28568021D01*
X77269090Y-28574835D01*
X77223249Y-28593382D01*
X77209739Y-28599992D01*
X77166508Y-28625393D01*
X77142572Y-28637117D01*
X77133780Y-28635407D01*
X77127674Y-28628569D01*
X77124254Y-28614402D01*
X77123277Y-28589978D01*
X77124010Y-28571904D01*
X77126697Y-28558471D01*
X77131337Y-28547724D01*
X77140618Y-28536489D01*
X77167241Y-28517682D01*
X77210963Y-28495748D01*
X77216334Y-28493502D01*
X77263008Y-28478317D01*
X77283745Y-28473474D01*
X77333662Y-28466338D01*
X77365810Y-28465170D01*
X77416981Y-28468256D01*
X77465374Y-28478409D01*
X77474254Y-28481290D01*
X77519477Y-28501949D01*
X77552168Y-28526475D01*
X77583696Y-28565327D01*
X77598818Y-28596573D01*
X77611458Y-28645242D01*
X77614450Y-28686943D01*
X77610156Y-28737985D01*
X77603459Y-28766321D01*
X77583497Y-28812551D01*
X77571219Y-28831046D01*
X77535626Y-28867483D01*
X77518951Y-28879406D01*
X77474136Y-28900113D01*
X77447387Y-28906761D01*
X77447387Y-28908227D01*
X77496769Y-28917775D01*
X77531651Y-28931185D01*
X77575081Y-28957709D01*
X77597108Y-28977103D01*
X77628073Y-29017109D01*
X77640095Y-29041339D01*
X77653528Y-29089233D01*
X77655727Y-29119985D01*
G37*
D10*
G36*
X82125880Y-30729228D02*
G01*
X82125147Y-30748524D01*
X82122705Y-30762934D01*
X82118309Y-30773925D01*
X82108539Y-30785160D01*
X82079718Y-30804699D01*
X82034973Y-30826608D01*
X82025008Y-30830589D01*
X81978165Y-30845471D01*
X81950270Y-30851838D01*
X81900261Y-30858948D01*
X81857946Y-30860631D01*
X81805529Y-30857793D01*
X81756356Y-30849278D01*
X81706012Y-30833354D01*
X81701630Y-30831566D01*
X81656169Y-30808155D01*
X81615499Y-30778221D01*
X81582684Y-30745348D01*
X81551617Y-30702910D01*
X81528032Y-30658870D01*
X81508884Y-30609630D01*
X81507213Y-30604420D01*
X81494462Y-30555169D01*
X81485884Y-30501938D01*
X81481762Y-30451281D01*
X81480835Y-30411224D01*
X81482606Y-30356804D01*
X81487918Y-30305406D01*
X81496772Y-30257031D01*
X81509167Y-30211678D01*
X81527057Y-30164481D01*
X81551195Y-30117026D01*
X81579818Y-30074817D01*
X81589279Y-30063178D01*
X81623468Y-30027982D01*
X81665649Y-29995769D01*
X81712621Y-29970366D01*
X81759004Y-29953493D01*
X81808391Y-29942869D01*
X81860784Y-29938495D01*
X81871623Y-29938370D01*
X81921327Y-29941736D01*
X81946606Y-29946186D01*
X81993990Y-29958675D01*
X82013773Y-29965725D01*
X82059502Y-29987356D01*
X82068727Y-29993080D01*
X82102189Y-30018482D01*
X82114157Y-30033136D01*
X82118553Y-30044616D01*
X82121240Y-30060003D01*
X82122461Y-30081252D01*
X82120995Y-30104944D01*
X82116843Y-30121064D01*
X82110249Y-30130833D01*
X82101212Y-30133764D01*
X82074345Y-30119110D01*
X82034932Y-30090141D01*
X82029893Y-30086870D01*
X81984864Y-30063105D01*
X81963947Y-30054630D01*
X81915510Y-30042780D01*
X81870891Y-30039975D01*
X81821229Y-30044603D01*
X81772586Y-30059834D01*
X81763424Y-30064155D01*
X81721145Y-30091640D01*
X81684985Y-30129213D01*
X81680625Y-30134986D01*
X81653604Y-30179778D01*
X81633704Y-30228488D01*
X81627381Y-30249047D01*
X81616673Y-30297672D01*
X81610410Y-30350857D01*
X81608574Y-30403164D01*
X81610339Y-30454942D01*
X81616358Y-30507379D01*
X81626648Y-30555083D01*
X81642585Y-30601520D01*
X81666734Y-30648056D01*
X81678916Y-30665481D01*
X81714125Y-30702203D01*
X81756096Y-30729480D01*
X81762203Y-30732404D01*
X81811529Y-30748707D01*
X81862700Y-30754918D01*
X81874310Y-30755118D01*
X81923891Y-30752126D01*
X81966634Y-30743150D01*
X82013517Y-30725965D01*
X82034045Y-30716039D01*
X82076287Y-30691442D01*
X82079718Y-30689173D01*
X82108050Y-30676960D01*
X82116110Y-30679159D01*
X82121484Y-30686974D01*
X82124659Y-30703094D01*
X82125880Y-30729228D01*
G37*
G36*
X82791198Y-30557281D02*
G01*
X82787797Y-30609454D01*
X82776439Y-30660936D01*
X82767018Y-30686486D01*
X82742240Y-30732441D01*
X82709796Y-30771570D01*
X82699118Y-30781496D01*
X82657424Y-30811757D01*
X82612932Y-30833577D01*
X82594338Y-30840359D01*
X82546837Y-30852712D01*
X82495557Y-30859364D01*
X82459272Y-30860631D01*
X82409507Y-30858246D01*
X82381114Y-30854525D01*
X82332037Y-30844584D01*
X82315168Y-30839870D01*
X82268955Y-30823293D01*
X82267785Y-30822773D01*
X82244094Y-30809340D01*
X82236766Y-30800059D01*
X82233103Y-30790045D01*
X82230660Y-30774902D01*
X82229928Y-30752920D01*
X82230905Y-30731427D01*
X82234812Y-30716039D01*
X82241163Y-30707247D01*
X82249956Y-30704316D01*
X82271205Y-30713597D01*
X82310039Y-30733381D01*
X82357307Y-30749802D01*
X82370367Y-30753408D01*
X82420704Y-30761594D01*
X82455852Y-30762934D01*
X82505311Y-30759379D01*
X82540360Y-30751699D01*
X82586382Y-30731483D01*
X82606794Y-30716528D01*
X82639307Y-30677844D01*
X82650270Y-30656444D01*
X82663525Y-30607922D01*
X82666145Y-30568272D01*
X82660898Y-30517726D01*
X82652712Y-30491336D01*
X82625957Y-30449039D01*
X82611435Y-30435648D01*
X82568689Y-30411421D01*
X82541093Y-30402676D01*
X82491251Y-30394100D01*
X82439488Y-30391685D01*
X82389399Y-30393473D01*
X82367192Y-30395837D01*
X82317611Y-30399924D01*
X82311016Y-30399989D01*
X82283417Y-30391196D01*
X82275357Y-30357002D01*
X82275357Y-29998210D01*
X82285859Y-29964993D01*
X82316390Y-29954002D01*
X82710109Y-29954002D01*
X82720856Y-29957177D01*
X82729404Y-29966214D01*
X82734533Y-29981845D01*
X82736243Y-30004071D01*
X82729404Y-30042173D01*
X82710109Y-30055607D01*
X82378427Y-30055607D01*
X82378427Y-30302536D01*
X82427276Y-30298628D01*
X82477285Y-30297907D01*
X82485406Y-30297896D01*
X82535655Y-30300089D01*
X82585206Y-30307485D01*
X82618762Y-30316458D01*
X82664958Y-30335478D01*
X82706463Y-30362498D01*
X82713773Y-30368726D01*
X82747417Y-30406034D01*
X82771658Y-30450547D01*
X82785683Y-30497964D01*
X82791121Y-30549995D01*
X82791198Y-30557281D01*
G37*
G36*
X53918743Y-43234689D02*
G01*
X53925826Y-43243482D01*
X53929978Y-43262777D01*
X53931200Y-43295749D01*
X53929978Y-43325059D01*
X53925338Y-43343133D01*
X53916789Y-43353879D01*
X53902867Y-43360230D01*
X53692330Y-43442051D01*
X53645733Y-43462327D01*
X53626384Y-43471849D01*
X53584513Y-43499618D01*
X53574605Y-43508729D01*
X53545731Y-43548257D01*
X53540899Y-43558799D01*
X53529451Y-43608625D01*
X53528687Y-43628164D01*
X53528687Y-43707054D01*
X53909218Y-43707054D01*
X53918743Y-43710230D01*
X53925338Y-43719999D01*
X53929490Y-43737829D01*
X53931200Y-43766161D01*
X53929490Y-43794738D01*
X53925338Y-43813056D01*
X53918987Y-43822581D01*
X53909218Y-43825268D01*
X53088073Y-43825268D01*
X53050948Y-43811346D01*
X53040202Y-43781304D01*
X53040202Y-43607648D01*
X53137899Y-43607648D01*
X53137899Y-43707054D01*
X53430990Y-43707054D01*
X53430990Y-43591772D01*
X53427115Y-43540852D01*
X53419999Y-43511172D01*
X53398338Y-43466475D01*
X53388980Y-43454507D01*
X53348936Y-43423920D01*
X53342330Y-43421046D01*
X53293515Y-43410562D01*
X53283712Y-43410299D01*
X53233955Y-43416917D01*
X53197494Y-43433747D01*
X53163989Y-43470094D01*
X53146691Y-43512149D01*
X53140097Y-43550983D01*
X53137918Y-43601173D01*
X53137899Y-43607648D01*
X53040202Y-43607648D01*
X53040202Y-43592505D01*
X53041511Y-43542309D01*
X53041911Y-43536573D01*
X53045575Y-43496273D01*
X53056932Y-43447791D01*
X53073419Y-43405415D01*
X53099658Y-43362906D01*
X53121779Y-43338980D01*
X53161659Y-43310740D01*
X53188701Y-43298925D01*
X53238866Y-43287380D01*
X53271988Y-43285491D01*
X53321213Y-43289710D01*
X53351123Y-43297459D01*
X53395337Y-43318995D01*
X53412916Y-43332142D01*
X53447878Y-43369336D01*
X53459567Y-43386364D01*
X53482688Y-43431083D01*
X53492784Y-43457194D01*
X53517452Y-43417382D01*
X53552867Y-43383921D01*
X53595711Y-43357436D01*
X53600739Y-43354856D01*
X53645023Y-43334111D01*
X53661555Y-43327257D01*
X53858659Y-43247634D01*
X53893586Y-43235421D01*
X53908973Y-43232491D01*
X53918743Y-43234689D01*
G37*
G36*
X53883084Y-42546657D02*
G01*
X53905798Y-42548855D01*
X53920697Y-42554228D01*
X53928757Y-42562044D01*
X53931200Y-42571325D01*
X53931200Y-43035631D01*
X53928757Y-43044668D01*
X53920697Y-43052728D01*
X53905798Y-43058590D01*
X53883084Y-43060544D01*
X53861102Y-43058590D01*
X53845959Y-43053216D01*
X53836678Y-43045645D01*
X53833502Y-43035631D01*
X53833502Y-42850251D01*
X53165254Y-42850251D01*
X53274675Y-43021953D01*
X53283223Y-43042958D01*
X53280048Y-43055659D01*
X53264905Y-43062253D01*
X53237794Y-43063963D01*
X53217033Y-43062986D01*
X53202867Y-43059811D01*
X53193098Y-43053949D01*
X53184549Y-43043935D01*
X53048750Y-42839260D01*
X53045331Y-42832421D01*
X53042400Y-42822163D01*
X53040690Y-42807752D01*
X53040202Y-42786992D01*
X53041667Y-42759636D01*
X53045331Y-42742539D01*
X53051437Y-42734235D01*
X53059253Y-42732037D01*
X53833502Y-42732037D01*
X53833502Y-42571325D01*
X53836678Y-42561067D01*
X53845959Y-42553251D01*
X53861102Y-42548366D01*
X53883084Y-42546657D01*
G37*
G36*
X52858743Y-43234689D02*
G01*
X52865826Y-43243482D01*
X52869978Y-43262777D01*
X52871200Y-43295749D01*
X52869978Y-43325059D01*
X52865338Y-43343133D01*
X52856789Y-43353879D01*
X52842867Y-43360230D01*
X52632330Y-43442051D01*
X52585733Y-43462327D01*
X52566384Y-43471849D01*
X52524513Y-43499618D01*
X52514605Y-43508729D01*
X52485731Y-43548257D01*
X52480899Y-43558799D01*
X52469451Y-43608625D01*
X52468687Y-43628164D01*
X52468687Y-43707054D01*
X52849218Y-43707054D01*
X52858743Y-43710230D01*
X52865338Y-43719999D01*
X52869490Y-43737829D01*
X52871200Y-43766161D01*
X52869490Y-43794738D01*
X52865338Y-43813056D01*
X52858987Y-43822581D01*
X52849218Y-43825268D01*
X52028073Y-43825268D01*
X51990948Y-43811346D01*
X51980202Y-43781304D01*
X51980202Y-43607648D01*
X52077899Y-43607648D01*
X52077899Y-43707054D01*
X52370990Y-43707054D01*
X52370990Y-43591772D01*
X52367115Y-43540852D01*
X52359999Y-43511172D01*
X52338338Y-43466475D01*
X52328980Y-43454507D01*
X52288936Y-43423920D01*
X52282330Y-43421046D01*
X52233515Y-43410562D01*
X52223712Y-43410299D01*
X52173955Y-43416917D01*
X52137494Y-43433747D01*
X52103989Y-43470094D01*
X52086691Y-43512149D01*
X52080097Y-43550983D01*
X52077918Y-43601173D01*
X52077899Y-43607648D01*
X51980202Y-43607648D01*
X51980202Y-43592505D01*
X51981511Y-43542309D01*
X51981911Y-43536573D01*
X51985575Y-43496273D01*
X51996932Y-43447791D01*
X52013419Y-43405415D01*
X52039658Y-43362906D01*
X52061779Y-43338980D01*
X52101659Y-43310740D01*
X52128701Y-43298925D01*
X52178866Y-43287380D01*
X52211988Y-43285491D01*
X52261213Y-43289710D01*
X52291123Y-43297459D01*
X52335337Y-43318995D01*
X52352916Y-43332142D01*
X52387878Y-43369336D01*
X52399567Y-43386364D01*
X52422688Y-43431083D01*
X52432784Y-43457194D01*
X52457452Y-43417382D01*
X52492867Y-43383921D01*
X52535711Y-43357436D01*
X52540739Y-43354856D01*
X52585023Y-43334111D01*
X52601555Y-43327257D01*
X52798659Y-43247634D01*
X52833586Y-43235421D01*
X52848973Y-43232491D01*
X52858743Y-43234689D01*
G37*
G36*
X52819664Y-42548611D02*
G01*
X52841890Y-42550320D01*
X52858255Y-42555205D01*
X52868024Y-42563509D01*
X52871200Y-42574745D01*
X52871200Y-43065917D01*
X52868757Y-43082770D01*
X52860941Y-43095226D01*
X52844821Y-43102798D01*
X52819176Y-43104996D01*
X52794996Y-43104019D01*
X52776433Y-43099622D01*
X52760557Y-43091074D01*
X52743460Y-43077641D01*
X52562721Y-42905205D01*
X52524038Y-42870143D01*
X52484517Y-42836974D01*
X52448171Y-42809462D01*
X52405448Y-42781011D01*
X52360859Y-42756282D01*
X52355603Y-42753775D01*
X52308762Y-42735307D01*
X52279888Y-42728129D01*
X52231070Y-42722176D01*
X52215896Y-42721779D01*
X52166608Y-42729259D01*
X52159964Y-42731548D01*
X52117328Y-42756035D01*
X52113558Y-42759392D01*
X52084078Y-42799974D01*
X52081807Y-42805066D01*
X52070644Y-42852877D01*
X52070083Y-42868080D01*
X52075140Y-42917158D01*
X52083028Y-42943307D01*
X52103682Y-42988599D01*
X52111116Y-43001681D01*
X52138392Y-43042629D01*
X52139204Y-43043691D01*
X52152149Y-43068604D01*
X52149218Y-43077396D01*
X52139936Y-43083502D01*
X52122595Y-43087410D01*
X52096705Y-43088632D01*
X52077899Y-43087899D01*
X52064221Y-43085456D01*
X52053474Y-43081060D01*
X52040774Y-43070069D01*
X52020257Y-43041493D01*
X51996954Y-42996324D01*
X51994612Y-42990690D01*
X51978500Y-42943648D01*
X51973363Y-42923523D01*
X51965609Y-42873540D01*
X51964570Y-42846098D01*
X51967593Y-42796369D01*
X51978595Y-42745600D01*
X51982888Y-42733258D01*
X52004565Y-42688867D01*
X52032958Y-42652902D01*
X52072002Y-42622007D01*
X52106964Y-42605031D01*
X52156002Y-42592194D01*
X52196601Y-42589155D01*
X52247561Y-42591824D01*
X52282330Y-42596726D01*
X52329483Y-42609527D01*
X52374410Y-42628722D01*
X52419777Y-42654254D01*
X52462160Y-42682762D01*
X52484563Y-42699308D01*
X52524210Y-42730965D01*
X52562950Y-42764513D01*
X52599820Y-42798356D01*
X52624026Y-42821430D01*
X52769594Y-42962114D01*
X52769594Y-42575477D01*
X52772770Y-42564731D01*
X52782295Y-42555938D01*
X52797927Y-42550320D01*
X52819664Y-42548611D01*
G37*
G36*
X86554849Y-37067879D02*
G01*
X86605805Y-37073512D01*
X86657801Y-37084338D01*
X86694343Y-37096043D01*
X86741708Y-37117243D01*
X86783968Y-37143594D01*
X86824560Y-37178532D01*
X86827943Y-37182017D01*
X86861965Y-37223437D01*
X86887534Y-37265951D01*
X86907999Y-37313092D01*
X86909765Y-37318060D01*
X86924448Y-37369981D01*
X86933013Y-37420136D01*
X86937173Y-37473536D01*
X86937609Y-37498311D01*
X86936194Y-37547559D01*
X86931115Y-37600407D01*
X86922341Y-37649591D01*
X86908055Y-37700545D01*
X86889287Y-37746842D01*
X86863403Y-37792799D01*
X86832224Y-37832985D01*
X86821837Y-37843915D01*
X86783894Y-37876563D01*
X86740894Y-37903678D01*
X86692837Y-37925259D01*
X86682619Y-37928912D01*
X86633808Y-37942489D01*
X86579974Y-37951623D01*
X86527905Y-37956012D01*
X86486248Y-37957000D01*
X86298181Y-37957000D01*
X86268139Y-37946497D01*
X86254217Y-37908884D01*
X86254217Y-37855394D01*
X86372431Y-37855394D01*
X86493819Y-37855394D01*
X86544471Y-37853319D01*
X86594127Y-37846243D01*
X86637434Y-37834145D01*
X86681679Y-37813132D01*
X86722204Y-37782117D01*
X86734887Y-37768933D01*
X86765508Y-37726210D01*
X86787160Y-37678921D01*
X86793749Y-37658779D01*
X86804874Y-37610248D01*
X86810980Y-37561171D01*
X86813270Y-37507371D01*
X86813289Y-37501731D01*
X86810782Y-37448951D01*
X86803260Y-37399057D01*
X86795459Y-37367397D01*
X86777627Y-37319615D01*
X86750939Y-37274468D01*
X86739528Y-37259930D01*
X86702308Y-37224013D01*
X86660799Y-37197527D01*
X86643052Y-37189100D01*
X86594531Y-37173621D01*
X86541727Y-37165708D01*
X86492598Y-37163699D01*
X86372431Y-37163699D01*
X86372431Y-37855394D01*
X86254217Y-37855394D01*
X86254217Y-37114117D01*
X86268139Y-37076748D01*
X86298181Y-37066002D01*
X86499437Y-37066002D01*
X86554849Y-37067879D01*
G37*
G36*
X87631502Y-37905464D02*
G01*
X87629793Y-37927690D01*
X87624908Y-37944055D01*
X87616604Y-37953824D01*
X87605368Y-37957000D01*
X87114196Y-37957000D01*
X87097343Y-37954557D01*
X87084887Y-37946741D01*
X87077315Y-37930621D01*
X87075117Y-37904976D01*
X87076094Y-37880796D01*
X87080491Y-37862233D01*
X87089039Y-37846357D01*
X87102472Y-37829260D01*
X87274908Y-37648521D01*
X87309970Y-37609838D01*
X87343139Y-37570317D01*
X87370651Y-37533971D01*
X87399102Y-37491248D01*
X87423831Y-37446659D01*
X87426338Y-37441403D01*
X87444806Y-37394562D01*
X87451984Y-37365688D01*
X87457937Y-37316870D01*
X87458334Y-37301696D01*
X87450854Y-37252408D01*
X87448565Y-37245764D01*
X87424078Y-37203128D01*
X87420721Y-37199358D01*
X87380139Y-37169878D01*
X87375047Y-37167607D01*
X87327236Y-37156444D01*
X87312033Y-37155883D01*
X87262955Y-37160940D01*
X87236806Y-37168828D01*
X87191514Y-37189482D01*
X87178432Y-37196916D01*
X87137484Y-37224192D01*
X87136422Y-37225004D01*
X87111509Y-37237949D01*
X87102717Y-37235018D01*
X87096611Y-37225736D01*
X87092703Y-37208395D01*
X87091482Y-37182505D01*
X87092214Y-37163699D01*
X87094657Y-37150021D01*
X87099053Y-37139274D01*
X87110044Y-37126574D01*
X87138620Y-37106057D01*
X87183789Y-37082754D01*
X87189423Y-37080412D01*
X87236465Y-37064300D01*
X87256590Y-37059163D01*
X87306573Y-37051409D01*
X87334015Y-37050370D01*
X87383744Y-37053393D01*
X87434513Y-37064395D01*
X87446855Y-37068688D01*
X87491246Y-37090365D01*
X87527211Y-37118758D01*
X87558106Y-37157802D01*
X87575082Y-37192764D01*
X87587919Y-37241802D01*
X87590958Y-37282401D01*
X87588289Y-37333361D01*
X87583387Y-37368130D01*
X87570586Y-37415283D01*
X87551391Y-37460210D01*
X87525859Y-37505577D01*
X87497351Y-37547960D01*
X87480805Y-37570363D01*
X87449148Y-37610010D01*
X87415600Y-37648750D01*
X87381757Y-37685620D01*
X87358683Y-37709826D01*
X87217999Y-37855394D01*
X87604636Y-37855394D01*
X87615382Y-37858570D01*
X87624175Y-37868095D01*
X87629793Y-37883727D01*
X87631502Y-37905464D01*
G37*
G36*
X73743880Y-29205228D02*
G01*
X73743147Y-29224524D01*
X73740705Y-29238934D01*
X73736309Y-29249925D01*
X73726539Y-29261160D01*
X73697718Y-29280699D01*
X73652973Y-29302608D01*
X73643008Y-29306589D01*
X73596165Y-29321471D01*
X73568270Y-29327838D01*
X73518261Y-29334948D01*
X73475946Y-29336631D01*
X73423529Y-29333793D01*
X73374356Y-29325278D01*
X73324012Y-29309354D01*
X73319630Y-29307566D01*
X73274169Y-29284155D01*
X73233499Y-29254221D01*
X73200684Y-29221348D01*
X73169617Y-29178910D01*
X73146032Y-29134870D01*
X73126884Y-29085630D01*
X73125213Y-29080420D01*
X73112462Y-29031169D01*
X73103884Y-28977938D01*
X73099762Y-28927281D01*
X73098835Y-28887224D01*
X73100606Y-28832804D01*
X73105918Y-28781406D01*
X73114772Y-28733031D01*
X73127167Y-28687678D01*
X73145057Y-28640481D01*
X73169195Y-28593026D01*
X73197818Y-28550817D01*
X73207279Y-28539178D01*
X73241468Y-28503982D01*
X73283649Y-28471769D01*
X73330621Y-28446366D01*
X73377004Y-28429493D01*
X73426391Y-28418869D01*
X73478784Y-28414495D01*
X73489623Y-28414370D01*
X73539327Y-28417736D01*
X73564606Y-28422186D01*
X73611990Y-28434675D01*
X73631773Y-28441725D01*
X73677502Y-28463356D01*
X73686727Y-28469080D01*
X73720189Y-28494482D01*
X73732157Y-28509136D01*
X73736553Y-28520616D01*
X73739240Y-28536003D01*
X73740461Y-28557252D01*
X73738995Y-28580944D01*
X73734843Y-28597064D01*
X73728249Y-28606833D01*
X73719212Y-28609764D01*
X73692345Y-28595110D01*
X73652932Y-28566141D01*
X73647893Y-28562870D01*
X73602864Y-28539105D01*
X73581947Y-28530630D01*
X73533510Y-28518780D01*
X73488891Y-28515975D01*
X73439229Y-28520603D01*
X73390586Y-28535834D01*
X73381424Y-28540155D01*
X73339145Y-28567640D01*
X73302985Y-28605213D01*
X73298625Y-28610986D01*
X73271604Y-28655778D01*
X73251704Y-28704488D01*
X73245381Y-28725047D01*
X73234673Y-28773672D01*
X73228410Y-28826857D01*
X73226574Y-28879164D01*
X73228339Y-28930942D01*
X73234358Y-28983379D01*
X73244648Y-29031083D01*
X73260585Y-29077520D01*
X73284734Y-29124056D01*
X73296916Y-29141481D01*
X73332125Y-29178203D01*
X73374096Y-29205480D01*
X73380203Y-29208404D01*
X73429529Y-29224707D01*
X73480700Y-29230918D01*
X73492310Y-29231118D01*
X73541891Y-29228126D01*
X73584634Y-29219150D01*
X73631517Y-29201965D01*
X73652045Y-29192039D01*
X73694287Y-29167442D01*
X73697718Y-29165173D01*
X73726050Y-29152960D01*
X73734110Y-29155159D01*
X73739484Y-29162974D01*
X73742659Y-29179094D01*
X73743880Y-29205228D01*
G37*
G36*
X74406511Y-29069185D02*
G01*
X74402397Y-29120369D01*
X74388859Y-29170229D01*
X74385018Y-29179583D01*
X74361018Y-29222548D01*
X74328861Y-29259396D01*
X74323957Y-29263847D01*
X74282555Y-29293102D01*
X74236553Y-29314113D01*
X74225771Y-29317824D01*
X74175843Y-29330001D01*
X74125319Y-29335731D01*
X74093880Y-29336631D01*
X74042870Y-29333962D01*
X74010349Y-29329060D01*
X73960992Y-29317599D01*
X73941228Y-29311474D01*
X73895002Y-29292279D01*
X73891159Y-29290225D01*
X73866246Y-29274349D01*
X73858186Y-29264579D01*
X73853301Y-29252367D01*
X73850370Y-29235026D01*
X73849393Y-29209869D01*
X73854034Y-29174698D01*
X73867956Y-29164684D01*
X73892136Y-29176408D01*
X73935284Y-29200107D01*
X73938786Y-29201809D01*
X73984785Y-29220461D01*
X74005464Y-29227210D01*
X74053928Y-29236999D01*
X74090461Y-29238934D01*
X74140447Y-29234801D01*
X74170084Y-29227210D01*
X74215422Y-29204267D01*
X74227725Y-29194237D01*
X74258088Y-29154548D01*
X74262896Y-29143923D01*
X74274059Y-29094997D01*
X74274620Y-29080176D01*
X74267578Y-29031816D01*
X74259721Y-29012277D01*
X74229908Y-28971519D01*
X74216490Y-28960009D01*
X74173409Y-28935575D01*
X74146392Y-28926303D01*
X74096049Y-28916823D01*
X74051870Y-28914579D01*
X73967362Y-28914579D01*
X73956860Y-28912137D01*
X73947823Y-28904321D01*
X73941717Y-28889911D01*
X73939274Y-28866219D01*
X73941228Y-28844726D01*
X73947090Y-28830804D01*
X73955639Y-28823233D01*
X73966874Y-28820790D01*
X74044299Y-28820790D01*
X74094888Y-28816571D01*
X74125632Y-28808822D01*
X74170140Y-28787402D01*
X74186937Y-28774384D01*
X74217940Y-28735870D01*
X74225283Y-28720895D01*
X74237654Y-28672169D01*
X74238716Y-28651041D01*
X74231294Y-28602138D01*
X74229679Y-28597308D01*
X74204162Y-28554038D01*
X74203057Y-28552856D01*
X74162516Y-28525146D01*
X74157383Y-28523058D01*
X74108660Y-28512593D01*
X74093147Y-28512067D01*
X74043630Y-28517221D01*
X74019875Y-28524035D01*
X73974033Y-28542582D01*
X73960524Y-28549192D01*
X73917293Y-28574593D01*
X73893357Y-28586317D01*
X73884564Y-28584607D01*
X73878458Y-28577769D01*
X73875039Y-28563602D01*
X73874062Y-28539178D01*
X73874794Y-28521104D01*
X73877481Y-28507671D01*
X73882122Y-28496924D01*
X73891403Y-28485689D01*
X73918025Y-28466882D01*
X73961748Y-28444948D01*
X73967118Y-28442702D01*
X74013792Y-28427517D01*
X74034529Y-28422674D01*
X74084446Y-28415538D01*
X74116595Y-28414370D01*
X74167766Y-28417456D01*
X74216159Y-28427609D01*
X74225039Y-28430490D01*
X74270262Y-28451149D01*
X74302952Y-28475675D01*
X74334480Y-28514527D01*
X74349602Y-28545773D01*
X74362242Y-28594442D01*
X74365234Y-28636143D01*
X74360941Y-28687185D01*
X74354243Y-28715521D01*
X74334282Y-28761751D01*
X74322003Y-28780246D01*
X74286410Y-28816683D01*
X74269735Y-28828606D01*
X74224920Y-28849313D01*
X74198172Y-28855961D01*
X74198172Y-28857427D01*
X74247554Y-28866975D01*
X74282436Y-28880385D01*
X74325865Y-28906909D01*
X74347893Y-28926303D01*
X74378858Y-28966309D01*
X74390879Y-28990539D01*
X74404313Y-29038433D01*
X74406511Y-29069185D01*
G37*
G36*
X82248903Y-42214935D02*
G01*
X82246590Y-42263922D01*
X82238700Y-42313896D01*
X82225212Y-42359771D01*
X82204592Y-42404651D01*
X82175821Y-42447069D01*
X82157557Y-42467238D01*
X82118652Y-42499452D01*
X82073378Y-42524651D01*
X82050334Y-42533916D01*
X82000634Y-42547758D01*
X81950792Y-42554834D01*
X81906963Y-42556631D01*
X81857950Y-42554120D01*
X81807970Y-42545654D01*
X81772874Y-42535382D01*
X81726639Y-42514771D01*
X81685967Y-42487469D01*
X81669071Y-42472612D01*
X81637211Y-42435251D01*
X81611881Y-42391037D01*
X81602393Y-42368320D01*
X81588253Y-42318712D01*
X81581025Y-42268471D01*
X81579190Y-42223972D01*
X81579190Y-41671983D01*
X81581876Y-41662458D01*
X81591646Y-41655863D01*
X81609476Y-41651711D01*
X81638296Y-41650002D01*
X81666384Y-41651711D01*
X81684702Y-41655863D01*
X81693984Y-41662458D01*
X81696670Y-41671983D01*
X81696670Y-42209073D01*
X81699569Y-42260151D01*
X81709107Y-42308236D01*
X81711813Y-42317029D01*
X81733023Y-42363818D01*
X81755289Y-42393477D01*
X81793270Y-42424479D01*
X81823921Y-42439639D01*
X81872427Y-42452081D01*
X81914535Y-42455026D01*
X81966051Y-42450752D01*
X82006126Y-42439883D01*
X82049505Y-42416648D01*
X82074026Y-42394698D01*
X82102440Y-42353653D01*
X82116524Y-42319715D01*
X82127698Y-42271294D01*
X82131408Y-42219134D01*
X82131423Y-42215424D01*
X82131423Y-41671983D01*
X82134109Y-41662458D01*
X82143879Y-41655863D01*
X82161953Y-41651711D01*
X82190529Y-41650002D01*
X82218373Y-41651711D01*
X82236203Y-41655863D01*
X82245728Y-41662458D01*
X82248903Y-41671983D01*
X82248903Y-42214935D01*
G37*
G36*
X82997019Y-42492884D02*
G01*
X82994821Y-42515598D01*
X82989448Y-42530497D01*
X82981632Y-42538557D01*
X82972351Y-42541000D01*
X82508045Y-42541000D01*
X82499008Y-42538557D01*
X82490948Y-42530497D01*
X82485086Y-42515598D01*
X82483132Y-42492884D01*
X82485086Y-42470902D01*
X82490460Y-42455759D01*
X82498031Y-42446478D01*
X82508045Y-42443302D01*
X82693425Y-42443302D01*
X82693425Y-41775054D01*
X82521723Y-41884475D01*
X82500718Y-41893023D01*
X82488017Y-41889848D01*
X82481423Y-41874705D01*
X82479713Y-41847594D01*
X82480690Y-41826833D01*
X82483865Y-41812667D01*
X82489727Y-41802898D01*
X82499741Y-41794349D01*
X82704416Y-41658550D01*
X82711255Y-41655131D01*
X82721513Y-41652200D01*
X82735924Y-41650490D01*
X82756684Y-41650002D01*
X82784040Y-41651467D01*
X82801137Y-41655131D01*
X82809441Y-41661237D01*
X82811639Y-41669053D01*
X82811639Y-42443302D01*
X82972351Y-42443302D01*
X82982609Y-42446478D01*
X82990425Y-42455759D01*
X82995310Y-42470902D01*
X82997019Y-42492884D01*
G37*
D11*
G36*
X77504880Y-37265228D02*
G01*
X77504147Y-37284524D01*
X77501705Y-37298934D01*
X77497309Y-37309925D01*
X77487539Y-37321160D01*
X77458718Y-37340699D01*
X77413973Y-37362608D01*
X77404008Y-37366589D01*
X77357165Y-37381471D01*
X77329270Y-37387838D01*
X77279261Y-37394948D01*
X77236946Y-37396631D01*
X77184529Y-37393793D01*
X77135356Y-37385278D01*
X77085012Y-37369354D01*
X77080630Y-37367566D01*
X77035169Y-37344155D01*
X76994499Y-37314221D01*
X76961684Y-37281348D01*
X76930617Y-37238910D01*
X76907032Y-37194870D01*
X76887884Y-37145630D01*
X76886213Y-37140420D01*
X76873462Y-37091169D01*
X76864884Y-37037938D01*
X76860762Y-36987281D01*
X76859835Y-36947224D01*
X76861606Y-36892804D01*
X76866918Y-36841406D01*
X76875772Y-36793031D01*
X76888167Y-36747678D01*
X76906057Y-36700481D01*
X76930195Y-36653026D01*
X76958818Y-36610817D01*
X76968279Y-36599178D01*
X77002468Y-36563982D01*
X77044649Y-36531769D01*
X77091621Y-36506366D01*
X77138004Y-36489493D01*
X77187391Y-36478869D01*
X77239784Y-36474495D01*
X77250623Y-36474370D01*
X77300327Y-36477736D01*
X77325606Y-36482186D01*
X77372990Y-36494675D01*
X77392773Y-36501725D01*
X77438502Y-36523356D01*
X77447727Y-36529080D01*
X77481189Y-36554482D01*
X77493157Y-36569136D01*
X77497553Y-36580616D01*
X77500240Y-36596003D01*
X77501461Y-36617252D01*
X77499995Y-36640944D01*
X77495843Y-36657064D01*
X77489249Y-36666833D01*
X77480212Y-36669764D01*
X77453345Y-36655110D01*
X77413932Y-36626141D01*
X77408893Y-36622870D01*
X77363864Y-36599105D01*
X77342947Y-36590630D01*
X77294510Y-36578780D01*
X77249891Y-36575975D01*
X77200229Y-36580603D01*
X77151586Y-36595834D01*
X77142424Y-36600155D01*
X77100145Y-36627640D01*
X77063985Y-36665213D01*
X77059625Y-36670986D01*
X77032604Y-36715778D01*
X77012704Y-36764488D01*
X77006381Y-36785047D01*
X76995673Y-36833672D01*
X76989410Y-36886857D01*
X76987574Y-36939164D01*
X76989339Y-36990942D01*
X76995358Y-37043379D01*
X77005648Y-37091083D01*
X77021585Y-37137520D01*
X77045734Y-37184056D01*
X77057916Y-37201481D01*
X77093125Y-37238203D01*
X77135096Y-37265480D01*
X77141203Y-37268404D01*
X77190529Y-37284707D01*
X77241700Y-37290918D01*
X77253310Y-37291118D01*
X77302891Y-37288126D01*
X77345634Y-37279150D01*
X77392517Y-37261965D01*
X77413045Y-37252039D01*
X77455287Y-37227442D01*
X77458718Y-37225173D01*
X77487050Y-37212960D01*
X77495110Y-37215159D01*
X77500484Y-37222974D01*
X77503659Y-37239094D01*
X77504880Y-37265228D01*
G37*
G36*
X78037330Y-36491711D02*
G01*
X78064441Y-36496108D01*
X78080072Y-36503435D01*
X78085690Y-36513937D01*
X78085690Y-37080092D01*
X78186073Y-37080092D01*
X78204636Y-37092304D01*
X78211963Y-37128941D01*
X78205124Y-37164845D01*
X78186073Y-37177789D01*
X78085690Y-37177789D01*
X78085690Y-37360239D01*
X78082759Y-37369276D01*
X78073233Y-37375626D01*
X78055404Y-37379778D01*
X78027316Y-37381000D01*
X77999716Y-37379778D01*
X77982131Y-37375626D01*
X77973338Y-37369276D01*
X77970896Y-37360239D01*
X77970896Y-37177789D01*
X77604043Y-37177789D01*
X77590365Y-37175836D01*
X77580351Y-37168264D01*
X77574245Y-37152388D01*
X77572535Y-37125521D01*
X77573268Y-37102318D01*
X77575955Y-37083512D01*
X77577112Y-37080092D01*
X77680491Y-37080092D01*
X77970896Y-37080092D01*
X77970896Y-36593561D01*
X77969674Y-36593561D01*
X77680491Y-37080092D01*
X77577112Y-37080092D01*
X77581572Y-37066903D01*
X77589632Y-37050050D01*
X77909835Y-36511251D01*
X77919605Y-36501725D01*
X77936457Y-36494886D01*
X77962103Y-36490979D01*
X77997762Y-36490002D01*
X78037330Y-36491711D01*
G37*
D10*
G36*
X81808490Y-32622311D02*
G01*
X81814226Y-32622711D01*
X81854526Y-32626375D01*
X81903008Y-32637732D01*
X81945384Y-32654219D01*
X81987893Y-32680458D01*
X82011819Y-32702579D01*
X82040059Y-32742459D01*
X82051874Y-32769501D01*
X82063419Y-32819666D01*
X82065308Y-32852788D01*
X82061089Y-32902013D01*
X82053340Y-32931923D01*
X82031804Y-32976137D01*
X82018657Y-32993716D01*
X81981463Y-33028678D01*
X81964435Y-33040367D01*
X81919716Y-33063488D01*
X81893605Y-33073584D01*
X81933417Y-33098252D01*
X81966878Y-33133667D01*
X81993363Y-33176511D01*
X81995943Y-33181539D01*
X82016688Y-33225823D01*
X82023542Y-33242355D01*
X82103165Y-33439459D01*
X82115378Y-33474386D01*
X82118308Y-33489773D01*
X82116110Y-33499543D01*
X82107318Y-33506626D01*
X82088022Y-33510778D01*
X82055050Y-33512000D01*
X82025740Y-33510778D01*
X82007666Y-33506138D01*
X81996920Y-33497589D01*
X81990569Y-33483667D01*
X81908748Y-33273130D01*
X81888472Y-33226533D01*
X81878950Y-33207184D01*
X81851181Y-33165313D01*
X81842070Y-33155405D01*
X81802542Y-33126531D01*
X81792000Y-33121699D01*
X81742174Y-33110251D01*
X81722635Y-33109487D01*
X81643745Y-33109487D01*
X81643745Y-33490018D01*
X81640569Y-33499543D01*
X81630800Y-33506138D01*
X81612970Y-33510290D01*
X81584638Y-33512000D01*
X81556061Y-33510290D01*
X81537743Y-33506138D01*
X81528218Y-33499787D01*
X81525531Y-33490018D01*
X81525531Y-33011790D01*
X81643745Y-33011790D01*
X81759027Y-33011790D01*
X81809947Y-33007915D01*
X81839627Y-33000799D01*
X81884324Y-32979138D01*
X81896292Y-32969780D01*
X81926879Y-32929736D01*
X81929753Y-32923130D01*
X81940237Y-32874315D01*
X81940500Y-32864512D01*
X81933882Y-32814755D01*
X81917052Y-32778294D01*
X81880705Y-32744789D01*
X81838650Y-32727491D01*
X81799816Y-32720897D01*
X81749626Y-32718718D01*
X81743151Y-32718699D01*
X81643745Y-32718699D01*
X81643745Y-33011790D01*
X81525531Y-33011790D01*
X81525531Y-32668873D01*
X81539453Y-32631748D01*
X81569495Y-32621002D01*
X81758294Y-32621002D01*
X81808490Y-32622311D01*
G37*
G36*
X82665168Y-32622711D02*
G01*
X82692279Y-32627108D01*
X82707911Y-32634435D01*
X82713528Y-32644937D01*
X82713528Y-33211092D01*
X82813912Y-33211092D01*
X82832475Y-33223304D01*
X82839802Y-33259941D01*
X82832963Y-33295845D01*
X82813912Y-33308789D01*
X82713528Y-33308789D01*
X82713528Y-33491239D01*
X82710597Y-33500276D01*
X82701072Y-33506626D01*
X82683242Y-33510778D01*
X82655154Y-33512000D01*
X82627555Y-33510778D01*
X82609969Y-33506626D01*
X82601177Y-33500276D01*
X82598734Y-33491239D01*
X82598734Y-33308789D01*
X82231881Y-33308789D01*
X82218204Y-33306836D01*
X82208190Y-33299264D01*
X82202084Y-33283388D01*
X82200374Y-33256521D01*
X82201107Y-33233318D01*
X82203793Y-33214512D01*
X82204950Y-33211092D01*
X82308329Y-33211092D01*
X82598734Y-33211092D01*
X82598734Y-32724561D01*
X82597513Y-32724561D01*
X82308329Y-33211092D01*
X82204950Y-33211092D01*
X82209411Y-33197903D01*
X82217471Y-33181050D01*
X82537673Y-32642251D01*
X82547443Y-32632725D01*
X82564296Y-32625886D01*
X82589941Y-32621979D01*
X82625601Y-32621002D01*
X82665168Y-32622711D01*
G37*
G36*
X84729490Y-41893311D02*
G01*
X84735226Y-41893711D01*
X84775526Y-41897375D01*
X84824008Y-41908732D01*
X84866384Y-41925219D01*
X84908893Y-41951458D01*
X84932819Y-41973579D01*
X84961059Y-42013459D01*
X84972874Y-42040501D01*
X84984419Y-42090666D01*
X84986308Y-42123788D01*
X84982089Y-42173013D01*
X84974340Y-42202923D01*
X84952804Y-42247137D01*
X84939657Y-42264716D01*
X84902463Y-42299678D01*
X84885435Y-42311367D01*
X84840716Y-42334488D01*
X84814605Y-42344584D01*
X84854417Y-42369252D01*
X84887878Y-42404667D01*
X84914363Y-42447511D01*
X84916943Y-42452539D01*
X84937688Y-42496823D01*
X84944542Y-42513355D01*
X85024165Y-42710459D01*
X85036378Y-42745386D01*
X85039308Y-42760773D01*
X85037110Y-42770543D01*
X85028318Y-42777626D01*
X85009022Y-42781778D01*
X84976050Y-42783000D01*
X84946740Y-42781778D01*
X84928666Y-42777138D01*
X84917920Y-42768589D01*
X84911569Y-42754667D01*
X84829748Y-42544130D01*
X84809472Y-42497533D01*
X84799950Y-42478184D01*
X84772181Y-42436313D01*
X84763070Y-42426405D01*
X84723542Y-42397531D01*
X84713000Y-42392699D01*
X84663174Y-42381251D01*
X84643635Y-42380487D01*
X84564745Y-42380487D01*
X84564745Y-42761018D01*
X84561569Y-42770543D01*
X84551800Y-42777138D01*
X84533970Y-42781290D01*
X84505638Y-42783000D01*
X84477061Y-42781290D01*
X84458743Y-42777138D01*
X84449218Y-42770787D01*
X84446531Y-42761018D01*
X84446531Y-42282790D01*
X84564745Y-42282790D01*
X84680027Y-42282790D01*
X84730947Y-42278915D01*
X84760627Y-42271799D01*
X84805324Y-42250138D01*
X84817292Y-42240780D01*
X84847879Y-42200736D01*
X84850753Y-42194130D01*
X84861237Y-42145315D01*
X84861500Y-42135512D01*
X84854882Y-42085755D01*
X84838052Y-42049294D01*
X84801705Y-42015789D01*
X84759650Y-41998491D01*
X84720816Y-41991897D01*
X84670626Y-41989718D01*
X84664151Y-41989699D01*
X84564745Y-41989699D01*
X84564745Y-42282790D01*
X84446531Y-42282790D01*
X84446531Y-41939873D01*
X84460453Y-41902748D01*
X84490495Y-41892002D01*
X84679294Y-41892002D01*
X84729490Y-41893311D01*
G37*
G36*
X85716350Y-42531185D02*
G01*
X85712236Y-42582369D01*
X85698697Y-42632229D01*
X85694856Y-42641583D01*
X85670857Y-42684548D01*
X85638699Y-42721396D01*
X85633796Y-42725847D01*
X85592393Y-42755102D01*
X85546392Y-42776113D01*
X85535610Y-42779824D01*
X85485682Y-42792001D01*
X85435158Y-42797731D01*
X85403719Y-42798631D01*
X85352708Y-42795962D01*
X85320188Y-42791060D01*
X85270831Y-42779599D01*
X85251067Y-42773474D01*
X85204840Y-42754279D01*
X85200997Y-42752225D01*
X85176084Y-42736349D01*
X85168024Y-42726579D01*
X85163140Y-42714367D01*
X85160209Y-42697026D01*
X85159232Y-42671869D01*
X85163872Y-42636698D01*
X85177794Y-42626684D01*
X85201974Y-42638408D01*
X85245122Y-42662107D01*
X85248625Y-42663809D01*
X85294624Y-42682461D01*
X85315303Y-42689210D01*
X85363766Y-42698999D01*
X85400299Y-42700934D01*
X85450286Y-42696801D01*
X85479923Y-42689210D01*
X85525260Y-42666267D01*
X85537564Y-42656237D01*
X85567926Y-42616548D01*
X85572735Y-42605923D01*
X85583897Y-42556997D01*
X85584458Y-42542176D01*
X85577416Y-42493816D01*
X85569560Y-42474277D01*
X85539747Y-42433519D01*
X85526329Y-42422009D01*
X85483247Y-42397575D01*
X85456231Y-42388303D01*
X85405887Y-42378823D01*
X85361709Y-42376579D01*
X85277201Y-42376579D01*
X85266699Y-42374137D01*
X85257662Y-42366321D01*
X85251555Y-42351911D01*
X85249113Y-42328219D01*
X85251067Y-42306726D01*
X85256929Y-42292804D01*
X85265477Y-42285233D01*
X85276712Y-42282790D01*
X85354137Y-42282790D01*
X85404726Y-42278571D01*
X85435470Y-42270822D01*
X85479979Y-42249402D01*
X85496775Y-42236384D01*
X85527779Y-42197870D01*
X85535121Y-42182895D01*
X85547492Y-42134169D01*
X85548555Y-42113041D01*
X85541133Y-42064138D01*
X85539518Y-42059308D01*
X85514001Y-42016038D01*
X85512895Y-42014856D01*
X85472355Y-41987146D01*
X85467222Y-41985058D01*
X85418499Y-41974593D01*
X85402986Y-41974067D01*
X85353468Y-41979221D01*
X85329713Y-41986035D01*
X85283872Y-42004582D01*
X85270362Y-42011192D01*
X85227131Y-42036593D01*
X85203195Y-42048317D01*
X85194403Y-42046607D01*
X85188297Y-42039769D01*
X85184877Y-42025602D01*
X85183900Y-42001178D01*
X85184633Y-41983104D01*
X85187320Y-41969671D01*
X85191960Y-41958924D01*
X85201241Y-41947689D01*
X85227864Y-41928882D01*
X85271586Y-41906948D01*
X85276957Y-41904702D01*
X85323631Y-41889517D01*
X85344368Y-41884674D01*
X85394285Y-41877538D01*
X85426433Y-41876370D01*
X85477604Y-41879456D01*
X85525997Y-41889609D01*
X85534877Y-41892490D01*
X85580100Y-41913149D01*
X85612791Y-41937675D01*
X85644319Y-41976527D01*
X85659441Y-42007773D01*
X85672081Y-42056442D01*
X85675073Y-42098143D01*
X85670779Y-42149185D01*
X85664082Y-42177521D01*
X85644121Y-42223751D01*
X85631842Y-42242246D01*
X85596249Y-42278683D01*
X85579574Y-42290606D01*
X85534759Y-42311313D01*
X85508010Y-42317961D01*
X85508010Y-42319427D01*
X85557392Y-42328975D01*
X85592274Y-42342385D01*
X85635704Y-42368909D01*
X85657731Y-42388303D01*
X85688696Y-42428309D01*
X85700718Y-42452539D01*
X85714151Y-42500433D01*
X85716350Y-42531185D01*
G37*
D11*
G36*
X66780141Y-33941537D02*
G01*
X66778676Y-33964496D01*
X66774035Y-33980127D01*
X66765975Y-33988920D01*
X66756938Y-33991607D01*
X66431363Y-33991607D01*
X66431363Y-34292514D01*
X66739109Y-34292514D01*
X66748146Y-34294956D01*
X66756206Y-34302772D01*
X66760846Y-34317427D01*
X66762312Y-34341118D01*
X66760846Y-34363344D01*
X66756206Y-34378243D01*
X66748146Y-34387280D01*
X66739109Y-34390211D01*
X66431363Y-34390211D01*
X66431363Y-34759018D01*
X66428432Y-34768299D01*
X66418906Y-34775138D01*
X66401076Y-34779290D01*
X66372256Y-34781000D01*
X66343924Y-34779290D01*
X66325361Y-34775138D01*
X66315836Y-34768299D01*
X66313149Y-34759018D01*
X66313149Y-33937873D01*
X66327071Y-33900748D01*
X66357113Y-33890002D01*
X66756938Y-33890002D01*
X66765975Y-33892933D01*
X66774035Y-33901969D01*
X66778676Y-33918334D01*
X66780141Y-33941537D01*
G37*
G36*
X67474524Y-34732884D02*
G01*
X67472326Y-34755598D01*
X67466952Y-34770497D01*
X67459136Y-34778557D01*
X67449855Y-34781000D01*
X66985550Y-34781000D01*
X66976513Y-34778557D01*
X66968453Y-34770497D01*
X66962591Y-34755598D01*
X66960637Y-34732884D01*
X66962591Y-34710902D01*
X66967964Y-34695759D01*
X66975536Y-34686478D01*
X66985550Y-34683302D01*
X67170930Y-34683302D01*
X67170930Y-34015054D01*
X66999227Y-34124475D01*
X66978222Y-34133023D01*
X66965522Y-34129848D01*
X66958927Y-34114705D01*
X66957217Y-34087594D01*
X66958194Y-34066833D01*
X66961370Y-34052667D01*
X66967231Y-34042898D01*
X66977245Y-34034349D01*
X67181921Y-33898550D01*
X67188760Y-33895131D01*
X67199018Y-33892200D01*
X67213428Y-33890490D01*
X67234189Y-33890002D01*
X67261544Y-33891467D01*
X67278641Y-33895131D01*
X67286945Y-33901237D01*
X67289143Y-33909053D01*
X67289143Y-34683302D01*
X67449855Y-34683302D01*
X67460113Y-34686478D01*
X67467929Y-34695759D01*
X67472814Y-34710902D01*
X67474524Y-34732884D01*
G37*
G36*
X75331490Y-39226311D02*
G01*
X75337226Y-39226711D01*
X75377526Y-39230375D01*
X75426008Y-39241732D01*
X75468384Y-39258219D01*
X75510893Y-39284458D01*
X75534819Y-39306579D01*
X75563059Y-39346459D01*
X75574874Y-39373501D01*
X75586419Y-39423666D01*
X75588308Y-39456788D01*
X75584089Y-39506013D01*
X75576340Y-39535923D01*
X75554804Y-39580137D01*
X75541657Y-39597716D01*
X75504463Y-39632678D01*
X75487435Y-39644367D01*
X75442716Y-39667488D01*
X75416605Y-39677584D01*
X75456417Y-39702252D01*
X75489878Y-39737667D01*
X75516363Y-39780511D01*
X75518943Y-39785539D01*
X75539688Y-39829823D01*
X75546542Y-39846355D01*
X75626165Y-40043459D01*
X75638378Y-40078386D01*
X75641308Y-40093773D01*
X75639110Y-40103543D01*
X75630318Y-40110626D01*
X75611022Y-40114778D01*
X75578050Y-40116000D01*
X75548740Y-40114778D01*
X75530666Y-40110138D01*
X75519920Y-40101589D01*
X75513569Y-40087667D01*
X75431748Y-39877130D01*
X75411472Y-39830533D01*
X75401950Y-39811184D01*
X75374181Y-39769313D01*
X75365070Y-39759405D01*
X75325542Y-39730531D01*
X75315000Y-39725699D01*
X75265174Y-39714251D01*
X75245635Y-39713487D01*
X75166745Y-39713487D01*
X75166745Y-40094018D01*
X75163569Y-40103543D01*
X75153800Y-40110138D01*
X75135970Y-40114290D01*
X75107638Y-40116000D01*
X75079061Y-40114290D01*
X75060743Y-40110138D01*
X75051218Y-40103787D01*
X75048531Y-40094018D01*
X75048531Y-39615790D01*
X75166745Y-39615790D01*
X75282027Y-39615790D01*
X75332947Y-39611915D01*
X75362627Y-39604799D01*
X75407324Y-39583138D01*
X75419292Y-39573780D01*
X75449879Y-39533736D01*
X75452753Y-39527130D01*
X75463237Y-39478315D01*
X75463500Y-39468512D01*
X75456882Y-39418755D01*
X75440052Y-39382294D01*
X75403705Y-39348789D01*
X75361650Y-39331491D01*
X75322816Y-39324897D01*
X75272626Y-39322718D01*
X75266151Y-39322699D01*
X75166745Y-39322699D01*
X75166745Y-39615790D01*
X75048531Y-39615790D01*
X75048531Y-39272873D01*
X75062453Y-39235748D01*
X75092495Y-39225002D01*
X75281294Y-39225002D01*
X75331490Y-39226311D01*
G37*
G36*
X76183360Y-39212350D02*
G01*
X76184993Y-39212545D01*
X76233109Y-39220605D01*
X76270234Y-39232085D01*
X76290017Y-39242099D01*
X76297345Y-39250159D01*
X76301008Y-39259684D01*
X76303207Y-39271408D01*
X76303939Y-39287528D01*
X76303451Y-39308777D01*
X76300764Y-39323187D01*
X76294414Y-39331491D01*
X76284644Y-39334178D01*
X76263883Y-39329293D01*
X76232376Y-39318791D01*
X76187435Y-39308044D01*
X76138766Y-39303331D01*
X76125886Y-39303159D01*
X76076994Y-39307553D01*
X76027792Y-39323542D01*
X76015977Y-39329782D01*
X75974211Y-39360740D01*
X75942598Y-39398081D01*
X75940750Y-39400856D01*
X75916775Y-39445872D01*
X75900306Y-39493503D01*
X75897519Y-39504415D01*
X75888025Y-39552967D01*
X75882561Y-39602969D01*
X75881399Y-39626537D01*
X75921455Y-39606020D01*
X75968659Y-39587979D01*
X75970304Y-39587458D01*
X76018896Y-39575357D01*
X76026235Y-39574025D01*
X76074947Y-39569141D01*
X76089494Y-39568896D01*
X76140339Y-39571678D01*
X76191583Y-39581956D01*
X76210883Y-39588679D01*
X76255701Y-39612249D01*
X76290994Y-39643390D01*
X76318660Y-39684015D01*
X76334714Y-39725699D01*
X76344606Y-39775098D01*
X76347890Y-39825068D01*
X76347903Y-39828526D01*
X76344444Y-39879282D01*
X76334065Y-39928543D01*
X76329829Y-39942343D01*
X76310535Y-39987950D01*
X76281666Y-40031317D01*
X76274874Y-40039307D01*
X76238724Y-40072720D01*
X76194812Y-40099868D01*
X76180841Y-40106474D01*
X76131176Y-40122762D01*
X76079250Y-40130427D01*
X76046263Y-40131631D01*
X75996900Y-40128572D01*
X75947833Y-40117709D01*
X75901241Y-40097248D01*
X75873828Y-40078386D01*
X75838546Y-40041750D01*
X75821315Y-40015371D01*
X75800312Y-39969888D01*
X75787610Y-39930131D01*
X75776680Y-39880000D01*
X75769650Y-39828898D01*
X75769292Y-39825351D01*
X75765618Y-39774013D01*
X75764050Y-39723579D01*
X75764035Y-39721303D01*
X75883353Y-39721303D01*
X75884450Y-39774183D01*
X75888192Y-39825793D01*
X75894588Y-39870535D01*
X75906549Y-39918407D01*
X75926227Y-39964470D01*
X75927561Y-39966767D01*
X75960615Y-40005376D01*
X75981539Y-40018547D01*
X76028803Y-40032116D01*
X76057254Y-40033934D01*
X76107629Y-40027446D01*
X76133458Y-40017325D01*
X76174125Y-39987647D01*
X76186947Y-39972873D01*
X76211787Y-39929189D01*
X76218210Y-39910103D01*
X76227246Y-39861270D01*
X76228224Y-39838540D01*
X76224858Y-39789337D01*
X76220408Y-39766000D01*
X76201637Y-39720741D01*
X76194030Y-39710312D01*
X76153838Y-39679284D01*
X76144449Y-39675141D01*
X76095207Y-39663901D01*
X76068245Y-39662685D01*
X76019030Y-39667040D01*
X76017442Y-39667325D01*
X75969832Y-39679282D01*
X75968350Y-39679782D01*
X75922920Y-39698344D01*
X75883353Y-39721303D01*
X75764035Y-39721303D01*
X75763918Y-39703473D01*
X75765087Y-39652803D01*
X75768593Y-39601666D01*
X75770024Y-39586969D01*
X75777357Y-39536260D01*
X75788243Y-39487139D01*
X75792006Y-39473397D01*
X75808048Y-39426787D01*
X75830008Y-39379650D01*
X75834993Y-39370570D01*
X75863415Y-39328023D01*
X75897847Y-39291058D01*
X75902893Y-39286551D01*
X75944849Y-39256394D01*
X75990303Y-39234154D01*
X76000834Y-39230131D01*
X76050294Y-39216689D01*
X76101316Y-39210363D01*
X76133458Y-39209370D01*
X76183360Y-39212350D01*
G37*
D10*
G36*
X71203880Y-29205228D02*
G01*
X71203147Y-29224524D01*
X71200705Y-29238934D01*
X71196309Y-29249925D01*
X71186539Y-29261160D01*
X71157718Y-29280699D01*
X71112973Y-29302608D01*
X71103008Y-29306589D01*
X71056165Y-29321471D01*
X71028270Y-29327838D01*
X70978261Y-29334948D01*
X70935946Y-29336631D01*
X70883529Y-29333793D01*
X70834356Y-29325278D01*
X70784012Y-29309354D01*
X70779630Y-29307566D01*
X70734169Y-29284155D01*
X70693499Y-29254221D01*
X70660684Y-29221348D01*
X70629617Y-29178910D01*
X70606032Y-29134870D01*
X70586884Y-29085630D01*
X70585213Y-29080420D01*
X70572462Y-29031169D01*
X70563884Y-28977938D01*
X70559762Y-28927281D01*
X70558835Y-28887224D01*
X70560606Y-28832804D01*
X70565918Y-28781406D01*
X70574772Y-28733031D01*
X70587167Y-28687678D01*
X70605057Y-28640481D01*
X70629195Y-28593026D01*
X70657818Y-28550817D01*
X70667279Y-28539178D01*
X70701468Y-28503982D01*
X70743649Y-28471769D01*
X70790621Y-28446366D01*
X70837004Y-28429493D01*
X70886391Y-28418869D01*
X70938784Y-28414495D01*
X70949623Y-28414370D01*
X70999327Y-28417736D01*
X71024606Y-28422186D01*
X71071990Y-28434675D01*
X71091773Y-28441725D01*
X71137502Y-28463356D01*
X71146727Y-28469080D01*
X71180189Y-28494482D01*
X71192157Y-28509136D01*
X71196553Y-28520616D01*
X71199240Y-28536003D01*
X71200461Y-28557252D01*
X71198995Y-28580944D01*
X71194843Y-28597064D01*
X71188249Y-28606833D01*
X71179212Y-28609764D01*
X71152345Y-28595110D01*
X71112932Y-28566141D01*
X71107893Y-28562870D01*
X71062864Y-28539105D01*
X71041947Y-28530630D01*
X70993510Y-28518780D01*
X70948891Y-28515975D01*
X70899229Y-28520603D01*
X70850586Y-28535834D01*
X70841424Y-28540155D01*
X70799145Y-28567640D01*
X70762985Y-28605213D01*
X70758625Y-28610986D01*
X70731604Y-28655778D01*
X70711704Y-28704488D01*
X70705381Y-28725047D01*
X70694673Y-28773672D01*
X70688410Y-28826857D01*
X70686574Y-28879164D01*
X70688339Y-28930942D01*
X70694358Y-28983379D01*
X70704648Y-29031083D01*
X70720585Y-29077520D01*
X70744734Y-29124056D01*
X70756916Y-29141481D01*
X70792125Y-29178203D01*
X70834096Y-29205480D01*
X70840203Y-29208404D01*
X70889529Y-29224707D01*
X70940700Y-29230918D01*
X70952310Y-29231118D01*
X71001891Y-29228126D01*
X71044634Y-29219150D01*
X71091517Y-29201965D01*
X71112045Y-29192039D01*
X71154287Y-29167442D01*
X71157718Y-29165173D01*
X71186050Y-29152960D01*
X71194110Y-29155159D01*
X71199484Y-29162974D01*
X71202659Y-29179094D01*
X71203880Y-29205228D01*
G37*
G36*
X71873350Y-29269464D02*
G01*
X71871640Y-29291690D01*
X71866755Y-29308055D01*
X71858451Y-29317824D01*
X71847216Y-29321000D01*
X71356043Y-29321000D01*
X71339191Y-29318557D01*
X71326734Y-29310741D01*
X71319163Y-29294621D01*
X71316965Y-29268976D01*
X71317942Y-29244796D01*
X71322338Y-29226233D01*
X71330886Y-29210357D01*
X71344320Y-29193260D01*
X71516755Y-29012521D01*
X71551817Y-28973838D01*
X71584986Y-28934317D01*
X71612498Y-28897971D01*
X71640949Y-28855248D01*
X71665679Y-28810659D01*
X71668186Y-28805403D01*
X71686653Y-28758562D01*
X71693831Y-28729688D01*
X71699785Y-28680870D01*
X71700182Y-28665696D01*
X71692702Y-28616408D01*
X71690412Y-28609764D01*
X71665926Y-28567128D01*
X71662568Y-28563358D01*
X71621986Y-28533878D01*
X71616895Y-28531607D01*
X71569084Y-28520444D01*
X71553880Y-28519883D01*
X71504803Y-28524940D01*
X71478653Y-28532828D01*
X71433362Y-28553482D01*
X71420279Y-28560916D01*
X71379331Y-28588192D01*
X71378270Y-28589004D01*
X71353357Y-28601949D01*
X71344564Y-28599018D01*
X71338458Y-28589736D01*
X71334550Y-28572395D01*
X71333329Y-28546505D01*
X71334062Y-28527699D01*
X71336504Y-28514021D01*
X71340900Y-28503274D01*
X71351891Y-28490574D01*
X71380468Y-28470057D01*
X71425636Y-28446754D01*
X71431270Y-28444412D01*
X71478312Y-28428300D01*
X71498437Y-28423163D01*
X71548421Y-28415409D01*
X71575862Y-28414370D01*
X71625592Y-28417393D01*
X71676360Y-28428395D01*
X71688702Y-28432688D01*
X71733093Y-28454365D01*
X71769058Y-28482758D01*
X71799953Y-28521802D01*
X71816930Y-28556764D01*
X71829767Y-28605802D01*
X71832805Y-28646401D01*
X71830136Y-28697361D01*
X71825234Y-28732130D01*
X71812433Y-28779283D01*
X71793238Y-28824210D01*
X71767706Y-28869577D01*
X71739198Y-28911960D01*
X71722652Y-28934363D01*
X71690996Y-28974010D01*
X71657448Y-29012750D01*
X71623605Y-29049620D01*
X71600531Y-29073826D01*
X71459847Y-29219394D01*
X71846483Y-29219394D01*
X71857230Y-29222570D01*
X71866023Y-29232095D01*
X71871640Y-29247727D01*
X71873350Y-29269464D01*
G37*
D11*
G36*
X73460925Y-38322727D02*
G01*
X73514334Y-38330875D01*
X73563259Y-38344843D01*
X73577062Y-38350168D01*
X73624163Y-38373886D01*
X73665723Y-38404069D01*
X73698695Y-38437118D01*
X73729561Y-38479557D01*
X73752611Y-38523597D01*
X73770891Y-38572836D01*
X73772457Y-38578046D01*
X73784500Y-38627140D01*
X73792601Y-38680176D01*
X73796494Y-38730627D01*
X73797369Y-38770510D01*
X73795920Y-38821926D01*
X73791573Y-38871303D01*
X73790775Y-38877732D01*
X73782287Y-38927619D01*
X73770014Y-38974697D01*
X73753085Y-39021295D01*
X73734599Y-39059205D01*
X73706696Y-39102448D01*
X73684529Y-39129058D01*
X73723313Y-39161594D01*
X73762855Y-39191222D01*
X73772457Y-39197690D01*
X73814627Y-39223756D01*
X73834983Y-39234815D01*
X73873329Y-39252645D01*
X73894090Y-39264613D01*
X73903615Y-39283175D01*
X73906546Y-39314927D01*
X73904836Y-39341305D01*
X73899707Y-39357669D01*
X73892136Y-39365485D01*
X73883831Y-39367683D01*
X73839379Y-39355715D01*
X73793013Y-39334401D01*
X73769037Y-39321277D01*
X73725152Y-39294645D01*
X73683797Y-39266567D01*
X73644727Y-39236300D01*
X73606593Y-39201919D01*
X73595869Y-39191340D01*
X73549762Y-39214013D01*
X73510873Y-39227244D01*
X73462600Y-39237762D01*
X73412083Y-39242255D01*
X73391194Y-39242631D01*
X73336990Y-39240274D01*
X73287037Y-39233203D01*
X73236519Y-39219817D01*
X73217781Y-39212833D01*
X73170547Y-39189086D01*
X73129257Y-39158817D01*
X73096881Y-39125639D01*
X73066994Y-39082859D01*
X73044784Y-39038209D01*
X73027295Y-38988072D01*
X73025806Y-38982757D01*
X73014472Y-38932563D01*
X73006847Y-38878429D01*
X73003183Y-38827000D01*
X73002359Y-38786385D01*
X73002590Y-38778814D01*
X73127411Y-38778814D01*
X73128941Y-38831689D01*
X73133530Y-38881506D01*
X73140356Y-38924138D01*
X73153975Y-38975015D01*
X73173398Y-39020088D01*
X73184320Y-39038933D01*
X73215435Y-39077301D01*
X73254498Y-39107347D01*
X73267118Y-39114404D01*
X73313741Y-39131641D01*
X73364505Y-39139752D01*
X73397544Y-39141026D01*
X73447888Y-39137592D01*
X73496225Y-39126011D01*
X73527970Y-39111961D01*
X73570372Y-39082435D01*
X73604826Y-39045149D01*
X73613210Y-39033071D01*
X73637867Y-38986648D01*
X73654401Y-38938100D01*
X73659128Y-38918032D01*
X73667463Y-38867726D01*
X73671951Y-38815359D01*
X73672806Y-38779302D01*
X73671218Y-38728211D01*
X73665866Y-38675437D01*
X73659372Y-38637886D01*
X73645673Y-38587722D01*
X73624249Y-38540011D01*
X73614920Y-38524557D01*
X73583544Y-38486309D01*
X73544128Y-38456196D01*
X73531389Y-38449086D01*
X73484850Y-38431533D01*
X73434664Y-38423272D01*
X73402185Y-38421975D01*
X73352206Y-38425381D01*
X73304332Y-38436864D01*
X73272980Y-38450796D01*
X73231153Y-38479894D01*
X73196711Y-38516753D01*
X73188228Y-38528709D01*
X73163310Y-38574444D01*
X73146452Y-38622269D01*
X73141577Y-38642038D01*
X73132945Y-38691497D01*
X73128297Y-38743154D01*
X73127411Y-38778814D01*
X73002590Y-38778814D01*
X73003947Y-38734301D01*
X73008709Y-38684780D01*
X73017863Y-38632136D01*
X73027760Y-38593434D01*
X73044176Y-38546965D01*
X73067083Y-38500091D01*
X73094904Y-38458226D01*
X73104208Y-38446644D01*
X73138440Y-38411505D01*
X73177634Y-38381805D01*
X73221788Y-38357543D01*
X73231215Y-38353343D01*
X73281323Y-38335955D01*
X73330661Y-38325812D01*
X73384019Y-38320885D01*
X73409023Y-38320370D01*
X73460925Y-38322727D01*
G37*
G36*
X74513001Y-39178884D02*
G01*
X74510803Y-39201598D01*
X74505429Y-39216497D01*
X74497614Y-39224557D01*
X74488332Y-39227000D01*
X74024027Y-39227000D01*
X74014990Y-39224557D01*
X74006930Y-39216497D01*
X74001068Y-39201598D01*
X73999114Y-39178884D01*
X74001068Y-39156902D01*
X74006441Y-39141759D01*
X74014013Y-39132478D01*
X74024027Y-39129302D01*
X74209407Y-39129302D01*
X74209407Y-38461054D01*
X74037704Y-38570475D01*
X74016700Y-38579023D01*
X74003999Y-38575848D01*
X73997404Y-38560705D01*
X73995695Y-38533594D01*
X73996672Y-38512833D01*
X73999847Y-38498667D01*
X74005709Y-38488898D01*
X74015723Y-38480349D01*
X74220398Y-38344550D01*
X74227237Y-38341131D01*
X74237495Y-38338200D01*
X74251905Y-38336490D01*
X74272666Y-38336002D01*
X74300021Y-38337467D01*
X74317118Y-38341131D01*
X74325423Y-38347237D01*
X74327621Y-38355053D01*
X74327621Y-39129302D01*
X74488332Y-39129302D01*
X74498591Y-39132478D01*
X74506406Y-39141759D01*
X74511291Y-39156902D01*
X74513001Y-39178884D01*
G37*
D10*
G36*
X56612539Y-29834593D02*
G01*
X56623285Y-29858529D01*
X56618645Y-29872451D01*
X56598373Y-29879290D01*
X56561003Y-29881000D01*
X56526565Y-29880023D01*
X56507026Y-29876359D01*
X56496035Y-29869764D01*
X56489685Y-29859750D01*
X56291848Y-29508529D01*
X56091813Y-29859750D01*
X56084241Y-29870253D01*
X56073006Y-29876603D01*
X56053467Y-29880023D01*
X56020494Y-29881000D01*
X55984590Y-29879290D01*
X55966516Y-29872451D01*
X55963097Y-29858529D01*
X55973844Y-29834593D01*
X56216133Y-29428662D01*
X55984835Y-29036408D01*
X55974088Y-29012228D01*
X55977019Y-28997817D01*
X55996314Y-28991467D01*
X56034172Y-28990002D01*
X56067877Y-28990979D01*
X56088394Y-28994398D01*
X56099384Y-29001237D01*
X56106956Y-29011251D01*
X56297954Y-29341467D01*
X56487486Y-29011251D01*
X56494325Y-29001237D01*
X56504339Y-28994398D01*
X56522657Y-28990979D01*
X56554165Y-28990002D01*
X56588847Y-28991711D01*
X56608142Y-28998306D01*
X56612539Y-29012228D01*
X56603013Y-29036408D01*
X56372204Y-29425975D01*
X56612539Y-29834593D01*
G37*
G36*
X57291045Y-29832884D02*
G01*
X57288847Y-29855598D01*
X57283474Y-29870497D01*
X57275658Y-29878557D01*
X57266377Y-29881000D01*
X56802071Y-29881000D01*
X56793034Y-29878557D01*
X56784974Y-29870497D01*
X56779112Y-29855598D01*
X56777158Y-29832884D01*
X56779112Y-29810902D01*
X56784486Y-29795759D01*
X56792057Y-29786478D01*
X56802071Y-29783302D01*
X56987451Y-29783302D01*
X56987451Y-29115054D01*
X56815749Y-29224475D01*
X56794744Y-29233023D01*
X56782043Y-29229848D01*
X56775449Y-29214705D01*
X56773739Y-29187594D01*
X56774716Y-29166833D01*
X56777891Y-29152667D01*
X56783753Y-29142898D01*
X56793767Y-29134349D01*
X56998442Y-28998550D01*
X57005281Y-28995131D01*
X57015539Y-28992200D01*
X57029950Y-28990490D01*
X57050710Y-28990002D01*
X57078066Y-28991467D01*
X57095163Y-28995131D01*
X57103467Y-29001237D01*
X57105665Y-29009053D01*
X57105665Y-29783302D01*
X57266377Y-29783302D01*
X57276635Y-29786478D01*
X57284451Y-29795759D01*
X57289336Y-29810902D01*
X57291045Y-29832884D01*
G37*
G36*
X86579849Y-42991879D02*
G01*
X86630805Y-42997512D01*
X86682801Y-43008338D01*
X86719343Y-43020043D01*
X86766708Y-43041243D01*
X86808968Y-43067594D01*
X86849560Y-43102532D01*
X86852943Y-43106017D01*
X86886965Y-43147437D01*
X86912534Y-43189951D01*
X86932999Y-43237092D01*
X86934765Y-43242060D01*
X86949448Y-43293981D01*
X86958013Y-43344136D01*
X86962173Y-43397536D01*
X86962609Y-43422311D01*
X86961194Y-43471559D01*
X86956115Y-43524407D01*
X86947341Y-43573591D01*
X86933055Y-43624545D01*
X86914287Y-43670842D01*
X86888403Y-43716799D01*
X86857224Y-43756985D01*
X86846837Y-43767915D01*
X86808894Y-43800563D01*
X86765894Y-43827678D01*
X86717837Y-43849259D01*
X86707619Y-43852912D01*
X86658808Y-43866489D01*
X86604974Y-43875623D01*
X86552905Y-43880012D01*
X86511248Y-43881000D01*
X86323181Y-43881000D01*
X86293139Y-43870497D01*
X86279217Y-43832884D01*
X86279217Y-43779394D01*
X86397431Y-43779394D01*
X86518819Y-43779394D01*
X86569471Y-43777319D01*
X86619127Y-43770243D01*
X86662434Y-43758145D01*
X86706679Y-43737132D01*
X86747204Y-43706117D01*
X86759887Y-43692933D01*
X86790508Y-43650210D01*
X86812160Y-43602921D01*
X86818749Y-43582779D01*
X86829874Y-43534248D01*
X86835980Y-43485171D01*
X86838270Y-43431371D01*
X86838289Y-43425731D01*
X86835782Y-43372951D01*
X86828260Y-43323057D01*
X86820459Y-43291397D01*
X86802627Y-43243615D01*
X86775939Y-43198468D01*
X86764528Y-43183930D01*
X86727308Y-43148013D01*
X86685799Y-43121527D01*
X86668052Y-43113100D01*
X86619531Y-43097621D01*
X86566727Y-43089708D01*
X86517598Y-43087699D01*
X86397431Y-43087699D01*
X86397431Y-43779394D01*
X86279217Y-43779394D01*
X86279217Y-43038117D01*
X86293139Y-43000748D01*
X86323181Y-42990002D01*
X86524437Y-42990002D01*
X86579849Y-42991879D01*
G37*
G36*
X87658456Y-43832884D02*
G01*
X87656258Y-43855598D01*
X87650885Y-43870497D01*
X87643069Y-43878557D01*
X87633788Y-43881000D01*
X87169482Y-43881000D01*
X87160445Y-43878557D01*
X87152385Y-43870497D01*
X87146523Y-43855598D01*
X87144569Y-43832884D01*
X87146523Y-43810902D01*
X87151897Y-43795759D01*
X87159468Y-43786478D01*
X87169482Y-43783302D01*
X87354863Y-43783302D01*
X87354863Y-43115054D01*
X87183160Y-43224475D01*
X87162155Y-43233023D01*
X87149454Y-43229848D01*
X87142860Y-43214705D01*
X87141150Y-43187594D01*
X87142127Y-43166833D01*
X87145302Y-43152667D01*
X87151164Y-43142898D01*
X87161178Y-43134349D01*
X87365853Y-42998550D01*
X87372692Y-42995131D01*
X87382950Y-42992200D01*
X87397361Y-42990490D01*
X87418121Y-42990002D01*
X87445477Y-42991467D01*
X87462574Y-42995131D01*
X87470878Y-43001237D01*
X87473076Y-43009053D01*
X87473076Y-43783302D01*
X87633788Y-43783302D01*
X87644046Y-43786478D01*
X87651862Y-43795759D01*
X87656747Y-43810902D01*
X87658456Y-43832884D01*
G37*
G36*
X81808490Y-31352311D02*
G01*
X81814226Y-31352711D01*
X81854526Y-31356375D01*
X81903008Y-31367732D01*
X81945384Y-31384219D01*
X81987893Y-31410458D01*
X82011819Y-31432579D01*
X82040059Y-31472459D01*
X82051874Y-31499501D01*
X82063419Y-31549666D01*
X82065308Y-31582788D01*
X82061089Y-31632013D01*
X82053340Y-31661923D01*
X82031804Y-31706137D01*
X82018657Y-31723716D01*
X81981463Y-31758678D01*
X81964435Y-31770367D01*
X81919716Y-31793488D01*
X81893605Y-31803584D01*
X81933417Y-31828252D01*
X81966878Y-31863667D01*
X81993363Y-31906511D01*
X81995943Y-31911539D01*
X82016688Y-31955823D01*
X82023542Y-31972355D01*
X82103165Y-32169459D01*
X82115378Y-32204386D01*
X82118308Y-32219773D01*
X82116110Y-32229543D01*
X82107318Y-32236626D01*
X82088022Y-32240778D01*
X82055050Y-32242000D01*
X82025740Y-32240778D01*
X82007666Y-32236138D01*
X81996920Y-32227589D01*
X81990569Y-32213667D01*
X81908748Y-32003130D01*
X81888472Y-31956533D01*
X81878950Y-31937184D01*
X81851181Y-31895313D01*
X81842070Y-31885405D01*
X81802542Y-31856531D01*
X81792000Y-31851699D01*
X81742174Y-31840251D01*
X81722635Y-31839487D01*
X81643745Y-31839487D01*
X81643745Y-32220018D01*
X81640569Y-32229543D01*
X81630800Y-32236138D01*
X81612970Y-32240290D01*
X81584638Y-32242000D01*
X81556061Y-32240290D01*
X81537743Y-32236138D01*
X81528218Y-32229787D01*
X81525531Y-32220018D01*
X81525531Y-31741790D01*
X81643745Y-31741790D01*
X81759027Y-31741790D01*
X81809947Y-31737915D01*
X81839627Y-31730799D01*
X81884324Y-31709138D01*
X81896292Y-31699780D01*
X81926879Y-31659736D01*
X81929753Y-31653130D01*
X81940237Y-31604315D01*
X81940500Y-31594512D01*
X81933882Y-31544755D01*
X81917052Y-31508294D01*
X81880705Y-31474789D01*
X81838650Y-31457491D01*
X81799816Y-31450897D01*
X81749626Y-31448718D01*
X81743151Y-31448699D01*
X81643745Y-31448699D01*
X81643745Y-31741790D01*
X81525531Y-31741790D01*
X81525531Y-31398873D01*
X81539453Y-31361748D01*
X81569495Y-31351002D01*
X81758294Y-31351002D01*
X81808490Y-31352311D01*
G37*
G36*
X82815133Y-31402537D02*
G01*
X82814156Y-31425496D01*
X82811470Y-31445035D01*
X82806585Y-31463109D01*
X82799502Y-31481427D01*
X82479299Y-32215377D01*
X82470751Y-32228566D01*
X82457562Y-32236870D01*
X82437290Y-32241023D01*
X82407248Y-32242000D01*
X82370611Y-32240046D01*
X82351805Y-32233451D01*
X82346675Y-32222704D01*
X82351560Y-32207073D01*
X82688127Y-31456515D01*
X82261435Y-31456515D01*
X82241895Y-31442593D01*
X82235301Y-31403514D01*
X82237010Y-31380311D01*
X82242384Y-31363946D01*
X82250444Y-31354177D01*
X82261435Y-31351002D01*
X82779474Y-31351002D01*
X82796082Y-31353200D01*
X82807073Y-31361504D01*
X82812935Y-31377624D01*
X82815133Y-31402537D01*
G37*
G36*
X52258935Y-37051096D02*
G01*
X52307922Y-37053409D01*
X52357896Y-37061299D01*
X52403771Y-37074787D01*
X52448651Y-37095407D01*
X52491069Y-37124178D01*
X52511238Y-37142442D01*
X52543452Y-37181347D01*
X52568651Y-37226621D01*
X52577916Y-37249665D01*
X52591758Y-37299365D01*
X52598834Y-37349207D01*
X52600631Y-37393036D01*
X52598120Y-37442049D01*
X52589654Y-37492029D01*
X52579382Y-37527125D01*
X52558771Y-37573360D01*
X52531469Y-37614032D01*
X52516612Y-37630928D01*
X52479251Y-37662788D01*
X52435037Y-37688118D01*
X52412320Y-37697606D01*
X52362712Y-37711746D01*
X52312471Y-37718974D01*
X52267972Y-37720809D01*
X51715983Y-37720809D01*
X51706458Y-37718123D01*
X51699863Y-37708353D01*
X51695711Y-37690523D01*
X51694002Y-37661703D01*
X51695711Y-37633615D01*
X51699863Y-37615297D01*
X51706458Y-37606015D01*
X51715983Y-37603329D01*
X52253073Y-37603329D01*
X52304151Y-37600430D01*
X52352236Y-37590892D01*
X52361029Y-37588186D01*
X52407818Y-37566976D01*
X52437477Y-37544710D01*
X52468479Y-37506729D01*
X52483639Y-37476078D01*
X52496081Y-37427572D01*
X52499026Y-37385464D01*
X52494752Y-37333948D01*
X52483883Y-37293873D01*
X52460648Y-37250494D01*
X52438698Y-37225973D01*
X52397653Y-37197559D01*
X52363715Y-37183475D01*
X52315294Y-37172301D01*
X52263134Y-37168591D01*
X52259424Y-37168576D01*
X51715983Y-37168576D01*
X51706458Y-37165890D01*
X51699863Y-37156120D01*
X51695711Y-37138046D01*
X51694002Y-37109470D01*
X51695711Y-37081626D01*
X51699863Y-37063796D01*
X51706458Y-37054271D01*
X51715983Y-37051096D01*
X52258935Y-37051096D01*
G37*
G36*
X52533464Y-36304934D02*
G01*
X52555690Y-36306643D01*
X52572055Y-36311528D01*
X52581824Y-36319832D01*
X52585000Y-36331068D01*
X52585000Y-36822240D01*
X52582557Y-36839093D01*
X52574741Y-36851549D01*
X52558621Y-36859121D01*
X52532976Y-36861319D01*
X52508796Y-36860342D01*
X52490233Y-36855945D01*
X52474357Y-36847397D01*
X52457260Y-36833964D01*
X52276521Y-36661528D01*
X52237838Y-36626466D01*
X52198317Y-36593297D01*
X52161971Y-36565785D01*
X52119248Y-36537335D01*
X52074659Y-36512605D01*
X52069403Y-36510098D01*
X52022562Y-36491630D01*
X51993688Y-36484452D01*
X51944870Y-36478499D01*
X51929696Y-36478102D01*
X51880408Y-36485582D01*
X51873764Y-36487872D01*
X51831128Y-36512358D01*
X51827358Y-36515715D01*
X51797878Y-36556297D01*
X51795607Y-36561389D01*
X51784444Y-36609200D01*
X51783883Y-36624403D01*
X51788940Y-36673481D01*
X51796828Y-36699630D01*
X51817482Y-36744922D01*
X51824916Y-36758004D01*
X51852192Y-36798952D01*
X51853004Y-36800014D01*
X51865949Y-36824927D01*
X51863018Y-36833719D01*
X51853736Y-36839825D01*
X51836395Y-36843733D01*
X51810505Y-36844955D01*
X51791699Y-36844222D01*
X51778021Y-36841779D01*
X51767274Y-36837383D01*
X51754574Y-36826392D01*
X51734057Y-36797816D01*
X51710754Y-36752647D01*
X51708412Y-36747013D01*
X51692300Y-36699971D01*
X51687163Y-36679846D01*
X51679409Y-36629863D01*
X51678370Y-36602421D01*
X51681393Y-36552692D01*
X51692395Y-36501923D01*
X51696688Y-36489581D01*
X51718365Y-36445190D01*
X51746758Y-36409225D01*
X51785802Y-36378331D01*
X51820764Y-36361354D01*
X51869802Y-36348517D01*
X51910401Y-36345478D01*
X51961361Y-36348147D01*
X51996130Y-36353049D01*
X52043283Y-36365851D01*
X52088210Y-36385045D01*
X52133577Y-36410577D01*
X52175960Y-36439085D01*
X52198363Y-36455631D01*
X52238010Y-36487288D01*
X52276750Y-36520836D01*
X52313620Y-36554679D01*
X52337826Y-36577753D01*
X52483394Y-36718437D01*
X52483394Y-36331800D01*
X52486570Y-36321054D01*
X52496095Y-36312261D01*
X52511727Y-36306643D01*
X52533464Y-36304934D01*
G37*
G36*
X80379990Y-36559311D02*
G01*
X80385726Y-36559711D01*
X80426026Y-36563375D01*
X80474508Y-36574732D01*
X80516884Y-36591219D01*
X80559393Y-36617458D01*
X80583319Y-36639579D01*
X80611559Y-36679459D01*
X80623374Y-36706501D01*
X80634919Y-36756666D01*
X80636808Y-36789788D01*
X80632589Y-36839013D01*
X80624840Y-36868923D01*
X80603304Y-36913137D01*
X80590157Y-36930716D01*
X80552963Y-36965678D01*
X80535935Y-36977367D01*
X80491216Y-37000488D01*
X80465105Y-37010584D01*
X80504917Y-37035252D01*
X80538378Y-37070667D01*
X80564863Y-37113511D01*
X80567443Y-37118539D01*
X80588188Y-37162823D01*
X80595042Y-37179355D01*
X80674665Y-37376459D01*
X80686878Y-37411386D01*
X80689808Y-37426773D01*
X80687610Y-37436543D01*
X80678818Y-37443626D01*
X80659522Y-37447778D01*
X80626550Y-37449000D01*
X80597240Y-37447778D01*
X80579166Y-37443138D01*
X80568420Y-37434589D01*
X80562069Y-37420667D01*
X80480248Y-37210130D01*
X80459972Y-37163533D01*
X80450450Y-37144184D01*
X80422681Y-37102313D01*
X80413570Y-37092405D01*
X80374042Y-37063531D01*
X80363500Y-37058699D01*
X80313674Y-37047251D01*
X80294135Y-37046487D01*
X80215245Y-37046487D01*
X80215245Y-37427018D01*
X80212069Y-37436543D01*
X80202300Y-37443138D01*
X80184470Y-37447290D01*
X80156138Y-37449000D01*
X80127561Y-37447290D01*
X80109243Y-37443138D01*
X80099718Y-37436787D01*
X80097031Y-37427018D01*
X80097031Y-36948790D01*
X80215245Y-36948790D01*
X80330527Y-36948790D01*
X80381447Y-36944915D01*
X80411127Y-36937799D01*
X80455824Y-36916138D01*
X80467792Y-36906780D01*
X80498379Y-36866736D01*
X80501253Y-36860130D01*
X80511737Y-36811315D01*
X80512000Y-36801512D01*
X80505382Y-36751755D01*
X80488552Y-36715294D01*
X80452205Y-36681789D01*
X80410150Y-36664491D01*
X80371316Y-36657897D01*
X80321126Y-36655718D01*
X80314651Y-36655699D01*
X80215245Y-36655699D01*
X80215245Y-36948790D01*
X80097031Y-36948790D01*
X80097031Y-36605873D01*
X80110953Y-36568748D01*
X80140995Y-36558002D01*
X80329794Y-36558002D01*
X80379990Y-36559311D01*
G37*
G36*
X81369536Y-37161281D02*
G01*
X81366136Y-37213454D01*
X81354778Y-37264936D01*
X81345356Y-37290486D01*
X81320579Y-37336441D01*
X81288135Y-37375570D01*
X81277457Y-37385496D01*
X81235763Y-37415757D01*
X81191270Y-37437577D01*
X81172677Y-37444359D01*
X81125175Y-37456712D01*
X81073896Y-37463364D01*
X81037610Y-37464631D01*
X80987846Y-37462246D01*
X80959453Y-37458525D01*
X80910375Y-37448584D01*
X80893507Y-37443870D01*
X80847294Y-37427293D01*
X80846124Y-37426773D01*
X80822432Y-37413340D01*
X80815105Y-37404059D01*
X80811441Y-37394045D01*
X80808999Y-37378902D01*
X80808266Y-37356920D01*
X80809243Y-37335427D01*
X80813151Y-37320039D01*
X80819501Y-37311247D01*
X80828294Y-37308316D01*
X80849543Y-37317597D01*
X80888378Y-37337381D01*
X80935646Y-37353802D01*
X80948706Y-37357408D01*
X80999043Y-37365594D01*
X81034191Y-37366934D01*
X81083650Y-37363379D01*
X81118699Y-37355699D01*
X81164721Y-37335483D01*
X81185133Y-37320528D01*
X81217646Y-37281844D01*
X81228608Y-37260444D01*
X81241864Y-37211922D01*
X81244484Y-37172272D01*
X81239237Y-37121726D01*
X81231051Y-37095336D01*
X81204296Y-37053039D01*
X81189774Y-37039648D01*
X81147028Y-37015421D01*
X81119432Y-37006676D01*
X81069590Y-36998100D01*
X81017827Y-36995685D01*
X80967738Y-36997473D01*
X80945531Y-36999837D01*
X80895949Y-37003924D01*
X80889355Y-37003989D01*
X80861755Y-36995196D01*
X80853695Y-36961002D01*
X80853695Y-36602210D01*
X80864198Y-36568993D01*
X80894728Y-36558002D01*
X81288448Y-36558002D01*
X81299194Y-36561177D01*
X81307743Y-36570214D01*
X81312872Y-36585845D01*
X81314582Y-36608071D01*
X81307743Y-36646173D01*
X81288448Y-36659607D01*
X80956766Y-36659607D01*
X80956766Y-36906536D01*
X81005614Y-36902628D01*
X81055623Y-36901907D01*
X81063744Y-36901896D01*
X81113993Y-36904089D01*
X81163544Y-36911485D01*
X81197101Y-36920458D01*
X81243296Y-36939478D01*
X81284802Y-36966498D01*
X81292111Y-36972726D01*
X81325756Y-37010034D01*
X81349997Y-37054547D01*
X81364022Y-37101964D01*
X81369460Y-37153995D01*
X81369536Y-37161281D01*
G37*
D12*
%TO.C,C1*%
X52377600Y-55677548D02*
X52377600Y-57100052D01*
X54197600Y-55677548D02*
X54197600Y-57100052D01*
%TO.C,U3*%
X75533500Y-33051000D02*
X78333500Y-33051000D01*
X75643500Y-29831000D02*
X78333500Y-29831000D01*
X75403500Y-30061000D02*
X75123500Y-30061000D01*
X75403500Y-29781000D01*
X75403500Y-30061000D01*
G36*
X75403500Y-30061000D02*
G01*
X75123500Y-30061000D01*
X75403500Y-29781000D01*
X75403500Y-30061000D01*
G37*
%TO.C,C5*%
X80075664Y-30106000D02*
X80291336Y-30106000D01*
X80075664Y-30826000D02*
X80291336Y-30826000D01*
%TO.C,R1*%
X53136200Y-44805159D02*
X53136200Y-45112441D01*
X53896200Y-44805159D02*
X53896200Y-45112441D01*
%TO.C,R2*%
X52076200Y-44805159D02*
X52076200Y-45112441D01*
X52836200Y-44805159D02*
X52836200Y-45112441D01*
%TO.C,D2*%
X86211000Y-33583500D02*
X86211000Y-35868500D01*
X87681000Y-33583500D02*
X86211000Y-33583500D01*
X87681000Y-35868500D02*
X87681000Y-33583500D01*
%TO.C,C3*%
X72761000Y-31229748D02*
X72761000Y-32652252D01*
X74581000Y-31229748D02*
X74581000Y-32652252D01*
D10*
%TO.C,U1*%
X56146000Y-43016000D02*
X83146000Y-43016000D01*
X56146000Y-45816000D02*
X56146000Y-43016000D01*
X56146000Y-60816000D02*
X56146000Y-58016000D01*
X83146000Y-43016000D02*
X83146000Y-45166000D01*
X83146000Y-50366000D02*
X83146000Y-53466000D01*
X83146000Y-58666000D02*
X83146000Y-60816000D01*
X83146000Y-60816000D02*
X56146000Y-60816000D01*
D12*
%TO.C,C4*%
X78232252Y-34206000D02*
X76809748Y-34206000D01*
X78232252Y-36026000D02*
X76809748Y-36026000D01*
%TO.C,R4*%
X80049859Y-32661000D02*
X80357141Y-32661000D01*
X80049859Y-33421000D02*
X80357141Y-33421000D01*
%TO.C,R3*%
X84666000Y-40534859D02*
X84666000Y-40842141D01*
X85426000Y-40534859D02*
X85426000Y-40842141D01*
%TO.C,F1*%
X65484748Y-35306000D02*
X68257252Y-35306000D01*
X65484748Y-38726000D02*
X68257252Y-38726000D01*
%TO.C,R6*%
X75310400Y-38139641D02*
X75310400Y-37832359D01*
X76070400Y-38139641D02*
X76070400Y-37832359D01*
%TO.C,C2*%
X70186000Y-31229748D02*
X70186000Y-32652252D01*
X72006000Y-31229748D02*
X72006000Y-32652252D01*
%TO.C,Q1*%
X70696000Y-36996000D02*
X70696000Y-36346000D01*
X70696000Y-36996000D02*
X70696000Y-37646000D01*
X73816000Y-36996000D02*
X73816000Y-36346000D01*
X73816000Y-36996000D02*
X73816000Y-37646000D01*
X74096000Y-36073500D02*
X73766000Y-35833500D01*
X74096000Y-35593500D01*
X74096000Y-36073500D01*
G36*
X74096000Y-36073500D02*
G01*
X73766000Y-35833500D01*
X74096000Y-35593500D01*
X74096000Y-36073500D01*
G37*
D11*
%TO.C,X1*%
X57746000Y-28681000D02*
X57746000Y-30581000D01*
X66666000Y-28681000D02*
X66666000Y-30581000D01*
D12*
%TO.C,D1*%
X86211000Y-40166000D02*
X86211000Y-42451000D01*
X86211000Y-42451000D02*
X87681000Y-42451000D01*
X87681000Y-42451000D02*
X87681000Y-40166000D01*
%TO.C,R7*%
X80357141Y-31386000D02*
X80049859Y-31386000D01*
X80357141Y-32146000D02*
X80049859Y-32146000D01*
%TO.C,U2*%
X52819800Y-37079300D02*
X52819800Y-36279300D01*
X52819800Y-37079300D02*
X52819800Y-37879300D01*
X55939800Y-37079300D02*
X55939800Y-36279300D01*
X55939800Y-37079300D02*
X55939800Y-37879300D01*
X56219800Y-36019300D02*
X55889800Y-35779300D01*
X56219800Y-35539300D01*
X56219800Y-36019300D01*
G36*
X56219800Y-36019300D02*
G01*
X55889800Y-35779300D01*
X56219800Y-35539300D01*
X56219800Y-36019300D01*
G37*
%TO.C,R5*%
X80333500Y-35499641D02*
X80333500Y-35192359D01*
X81093500Y-35499641D02*
X81093500Y-35192359D01*
%TD*%
M02*
