%TF.GenerationSoftware,KiCad,Pcbnew,8.0.5*%
%TF.CreationDate,2024-12-24T21:51:09+03:00*%
%TF.ProjectId,BLR8812AF1 baseboard,424c5238-3831-4324-9146-312062617365,rev?*%
%TF.SameCoordinates,Original*%
%TF.FileFunction,Paste,Top*%
%TF.FilePolarity,Positive*%
%FSLAX46Y46*%
G04 Gerber Fmt 4.6, Leading zero omitted, Abs format (unit mm)*
G04 Created by KiCad (PCBNEW 8.0.5) date 2024-12-24 21:51:09*
%MOMM*%
%LPD*%
G01*
G04 APERTURE LIST*
G04 Aperture macros list*
%AMRoundRect*
0 Rectangle with rounded corners*
0 $1 Rounding radius*
0 $2 $3 $4 $5 $6 $7 $8 $9 X,Y pos of 4 corners*
0 Add a 4 corners polygon primitive as box body*
4,1,4,$2,$3,$4,$5,$6,$7,$8,$9,$2,$3,0*
0 Add four circle primitives for the rounded corners*
1,1,$1+$1,$2,$3*
1,1,$1+$1,$4,$5*
1,1,$1+$1,$6,$7*
1,1,$1+$1,$8,$9*
0 Add four rect primitives between the rounded corners*
20,1,$1+$1,$2,$3,$4,$5,0*
20,1,$1+$1,$4,$5,$6,$7,0*
20,1,$1+$1,$6,$7,$8,$9,0*
20,1,$1+$1,$8,$9,$2,$3,0*%
G04 Aperture macros list end*
%ADD10RoundRect,0.250000X-0.650000X0.325000X-0.650000X-0.325000X0.650000X-0.325000X0.650000X0.325000X0*%
%ADD11RoundRect,0.127500X-0.317500X-0.127500X0.317500X-0.127500X0.317500X0.127500X-0.317500X0.127500X0*%
%ADD12RoundRect,0.125000X-0.187500X-0.125000X0.187500X-0.125000X0.187500X0.125000X-0.187500X0.125000X0*%
%ADD13RoundRect,0.140000X-0.140000X-0.170000X0.140000X-0.170000X0.140000X0.170000X-0.140000X0.170000X0*%
%ADD14RoundRect,0.135000X-0.185000X0.135000X-0.185000X-0.135000X0.185000X-0.135000X0.185000X0.135000X0*%
%ADD15RoundRect,0.218750X-0.256250X0.218750X-0.256250X-0.218750X0.256250X-0.218750X0.256250X0.218750X0*%
%ADD16RoundRect,0.250000X-1.000000X-0.250000X1.000000X-0.250000X1.000000X0.250000X-1.000000X0.250000X0*%
%ADD17RoundRect,0.250000X0.325000X0.650000X-0.325000X0.650000X-0.325000X-0.650000X0.325000X-0.650000X0*%
%ADD18RoundRect,0.135000X-0.135000X-0.185000X0.135000X-0.185000X0.135000X0.185000X-0.135000X0.185000X0*%
%ADD19RoundRect,0.250000X-0.400000X-1.450000X0.400000X-1.450000X0.400000X1.450000X-0.400000X1.450000X0*%
%ADD20RoundRect,0.135000X0.185000X-0.135000X0.185000X0.135000X-0.185000X0.135000X-0.185000X-0.135000X0*%
%ADD21RoundRect,0.150000X-0.150000X0.587500X-0.150000X-0.587500X0.150000X-0.587500X0.150000X0.587500X0*%
%ADD22R,0.600000X1.450000*%
%ADD23R,0.300000X1.450000*%
%ADD24RoundRect,0.218750X0.256250X-0.218750X0.256250X0.218750X-0.256250X0.218750X-0.256250X-0.218750X0*%
%ADD25RoundRect,0.135000X0.135000X0.185000X-0.135000X0.185000X-0.135000X-0.185000X0.135000X-0.185000X0*%
%ADD26RoundRect,0.150000X-0.150000X0.512500X-0.150000X-0.512500X0.150000X-0.512500X0.150000X0.512500X0*%
G04 APERTURE END LIST*
D10*
%TO.C,C1*%
X53287600Y-54913800D03*
X53287600Y-57863800D03*
%TD*%
D11*
%TO.C,U3*%
X76933500Y-30811000D03*
X76933500Y-31441000D03*
X76933500Y-32071000D03*
D12*
X75871000Y-30466000D03*
X75871000Y-31116000D03*
X75871000Y-31766000D03*
X75871000Y-32416000D03*
X77996000Y-32416000D03*
X77996000Y-31766000D03*
X77996000Y-31116000D03*
X77996000Y-30466000D03*
%TD*%
D13*
%TO.C,C5*%
X79703500Y-30466000D03*
X80663500Y-30466000D03*
%TD*%
D14*
%TO.C,R1*%
X53516200Y-44448800D03*
X53516200Y-45468800D03*
%TD*%
%TO.C,R2*%
X52456200Y-44448800D03*
X52456200Y-45468800D03*
%TD*%
D15*
%TO.C,D2*%
X86946000Y-34281000D03*
X86946000Y-35856000D03*
%TD*%
D10*
%TO.C,C3*%
X73671000Y-30466000D03*
X73671000Y-33416000D03*
%TD*%
D16*
%TO.C,U1*%
X56146000Y-56916000D03*
X56146000Y-54916000D03*
X56146000Y-52916000D03*
X56146000Y-50916000D03*
X56146000Y-48916000D03*
X56146000Y-46916000D03*
X83146000Y-46266000D03*
X83146000Y-47766000D03*
X83146000Y-49266000D03*
X83146000Y-54566000D03*
X83146000Y-56066000D03*
X83146000Y-57566000D03*
%TD*%
D17*
%TO.C,C4*%
X78996000Y-35116000D03*
X76046000Y-35116000D03*
%TD*%
D18*
%TO.C,R4*%
X79693500Y-33041000D03*
X80713500Y-33041000D03*
%TD*%
D14*
%TO.C,R3*%
X85046000Y-40178500D03*
X85046000Y-41198500D03*
%TD*%
D19*
%TO.C,F1*%
X64646000Y-37016000D03*
X69096000Y-37016000D03*
%TD*%
D20*
%TO.C,R6*%
X75690400Y-38496000D03*
X75690400Y-37476000D03*
%TD*%
D10*
%TO.C,C2*%
X71096000Y-30466000D03*
X71096000Y-33416000D03*
%TD*%
D21*
%TO.C,Q1*%
X73206000Y-36058500D03*
X71306000Y-36058500D03*
X72256000Y-37933500D03*
%TD*%
D22*
%TO.C,X1*%
X65421000Y-32776000D03*
X64646000Y-32776000D03*
D23*
X63446000Y-32776000D03*
X62446000Y-32776000D03*
X61946000Y-32776000D03*
X60946000Y-32776000D03*
D22*
X58971000Y-32776000D03*
X59746000Y-32776000D03*
D23*
X60446000Y-32776000D03*
X61446000Y-32776000D03*
X62946000Y-32776000D03*
X63946000Y-32776000D03*
%TD*%
D24*
%TO.C,D1*%
X86946000Y-41753500D03*
X86946000Y-40178500D03*
%TD*%
D25*
%TO.C,R7*%
X80713500Y-31766000D03*
X79693500Y-31766000D03*
%TD*%
D26*
%TO.C,U2*%
X55329800Y-35941800D03*
X54379800Y-35941800D03*
X53429800Y-35941800D03*
X53429800Y-38216800D03*
X54379800Y-38216800D03*
X55329800Y-38216800D03*
%TD*%
D20*
%TO.C,R5*%
X80713500Y-35856000D03*
X80713500Y-34836000D03*
%TD*%
M02*
